<svg xmlns="http://www.w3.org/2000/svg" xmlns:xlink="http://www.w3.org/1999/xlink" viewBox="0 0 800 800" width="800" height="800" preserveAspectRatio="xMidYMid meet" style="width: 100%; height: 100%; transform: translate3d(0px, 0px, 0px); content-visibility: visible;"><defs><clipPath id="__lottie_element_483"><rect width="800" height="800" x="0" y="0"></rect></clipPath><clipPath id="__lottie_element_494"><path fill="#ffffff" clipRule="nonzero" d=" M291.4170227050781,625.6458740234375 C291.4170227050781,625.6458740234375 396.77239990234375,657.3534545898438 509.42279052734375,623.9435424804688 C509.42279052734375,623.9435424804688 497.3134460449219,711.0978393554688 402.6249694824219,711.7942504882812 C301.1182556152344,712.4937744140625 291.4170227050781,625.6458740234375 291.4170227050781,625.6458740234375" fill-opacity="1"></path></clipPath></defs><g clip-path="url(#__lottie_element_483)"><g transform="matrix(1,0,0,1,0,0)" opacity="1" style="display: block;"><g opacity="1" transform="matrix(1.0553499460220337,0,0,1,400.02899169921875,737.6279907226562)"><path class="chin_color" fill="rgb(0,0,0)" fill-opacity="1" d=" M0,6.120419025421143 C0,6.120419025421143 -30.74981689453125,8.592833518981934 -53.24974060058594,-14.994815826416016 C-53.24974060058594,-14.994815826416016 -39.595001220703125,20.17953109741211 0,20.17953109741211 C39.595001220703125,20.17953109741211 53.21002197265625,-14.994815826416016 53.21002197265625,-14.994815826416016 C32.80719757080078,7.631870269775391 0,6.120419025421143 0,6.120419025421143z"></path></g></g><g clip-path="url(#__lottie_element_494)" transform="matrix(1,0,0,1,0,0)" opacity="1" style="display: block;"><g opacity="1" transform="matrix(1,0,0,1,400,666.2360229492188)"><path class="mouth_color" fill="rgb(0,0,0)" fill-opacity="1" d=" M-109.08296203613281,-41.09012222290039 C-109.08296203613281,-41.09012222290039 -3.7275869846343994,-9.382548332214355 108.92280578613281,-42.79244613647461 C108.92280578613281,-42.79244613647461 96.81343841552734,44.36184310913086 2.1249730587005615,45.05821990966797 C-99.38175964355469,45.7578010559082 -109.08296203613281,-41.09012222290039 -109.08296203613281,-41.09012222290039z"></path></g><g opacity="1" transform="matrix(1,0,0,1,401,721.5155029296875)"><path class="tongue_color" fill="rgb(255,255,255)" fill-opacity="1" d=" M0,-40.27750015258789 C51.333045959472656,-40.27750015258789 93.0114974975586,-22.22915267944336 93.0114974975586,0 C93.0114974975586,22.22915267944336 51.333045959472656,40.27750015258789 0,40.27750015258789 C-51.333045959472656,40.27750015258789 -93.0114974975586,22.22915267944336 -93.0114974975586,0 C-93.0114974975586,-22.22915267944336 -51.333045959472656,-40.27750015258789 0,-40.27750015258789z"></path><path stroke-linecap="butt" stroke-linejoin="miter" fill-opacity="0" stroke-miterlimit="4" stroke="rgb(255,255,255)" stroke-opacity="1" stroke-width="0" d=" M0,-40.27750015258789 C51.333045959472656,-40.27750015258789 93.0114974975586,-22.22915267944336 93.0114974975586,0 C93.0114974975586,22.22915267944336 51.333045959472656,40.27750015258789 0,40.27750015258789 C-51.333045959472656,40.27750015258789 -93.0114974975586,22.22915267944336 -93.0114974975586,0 C-93.0114974975586,-22.22915267944336 -51.333045959472656,-40.27750015258789 0,-40.27750015258789z"></path></g><g class="teeth_fangs" opacity="1" transform="matrix(1,0,0,1,0,-3)"><g opacity="1" transform="matrix(1,0,0,1,451.9700012207031,645.9249877929688)"><path class="teeth_color" fill="rgb(255,255,255)" fill-opacity="1" d=" M7.675000190734863,-11.654999732971191 C7.675000190734863,-11.654999732971191 5.4730000495910645,1.9910000562667847 -2.934999942779541,9.961999893188477 C-4.7220001220703125,11.656000137329102 -7.675000190734863,10.380000114440918 -7.669000148773193,7.918000221252441 C-7.669000148773193,7.918000221252441 -7.625999927520752,-11.654999732971191 -7.625999927520752,-11.654999732971191 C-7.625999927520752,-11.654999732971191 7.675000190734863,-11.654999732971191 7.675000190734863,-11.654999732971191z"></path></g><g opacity="1" transform="matrix(1,0,0,1,348.0299987792969,645.9249877929688)"><path class="teeth_color" fill="rgb(255,255,255)" fill-opacity="1" d=" M-7.675000190734863,-11.654999732971191 C-7.675000190734863,-11.654999732971191 -5.4730000495910645,1.9910000562667847 2.934999942779541,9.961999893188477 C4.7220001220703125,11.656000137329102 7.675000190734863,10.380000114440918 7.669000148773193,7.918000221252441 C7.669000148773193,7.918000221252441 7.625999927520752,-11.654999732971191 7.625999927520752,-11.654999732971191 C7.625999927520752,-11.654999732971191 -7.675000190734863,-11.654999732971191 -7.675000190734863,-11.654999732971191z"></path></g></g><g class="teeth_buck" opacity="1" transform="matrix(1,0,0,1,400,651.8270263671875)"><path class="teeth_color" fill="rgb(255,255,255)" fill-opacity="1" d=" M0,-21.634000778198242 C0,-21.634000778198242 -37.47700119018555,-21.634000778198242 -37.47700119018555,-21.634000778198242 C-37.47700119018555,-21.634000778198242 -27.895999908447266,14.378000259399414 -27.895999908447266,14.378000259399414 C-27.23699951171875,16.856000900268555 -25.280000686645508,18.768999099731445 -22.78700065612793,19.365999221801758 C-17.801000595092773,20.559999465942383 -8.909000396728516,21.634000778198242 0,21.634000778198242 C8.909000396728516,21.634000778198242 17.801000595092773,20.559999465942383 22.78700065612793,19.365999221801758 C25.280000686645508,18.768999099731445 27.23699951171875,16.856000900268555 27.895999908447266,14.378000259399414 C27.895999908447266,14.378000259399414 37.47700119018555,-21.634000778198242 37.47700119018555,-21.634000778198242 C37.47700119018555,-21.634000778198242 0,-21.634000778198242 0,-21.634000778198242z"></path></g><g class="teeth_normal" opacity="1" transform="matrix(1,0,0,1,400.51800537109375,640.333984375)"><path class="teeth_color" fill="rgb(255,255,255)" fill-opacity="1" d=" M-83.76799774169922,-25.30299949645996 C-83.76799774169922,-25.30299949645996 -79.41400146484375,-1.7079999446868896 -76.43000030517578,5.449999809265137 C-75.23999786376953,8.305000305175781 -51.65700149536133,25.30299949645996 0,25.30299949645996 C30.132999420166016,25.30299949645996 50.952999114990234,19.863000869750977 50.952999114990234,19.863000869750977 C50.952999114990234,19.863000869750977 58.207000732421875,3.9730000495910645 58.207000732421875,3.9730000495910645 C58.207000732421875,3.9730000495910645 58.207000732421875,17.790000915527344 58.207000732421875,17.790000915527344 C58.207000732421875,17.790000915527344 71.08300018310547,12.980999946594238 76.38800048828125,8.79800033569336 C79.18399810791016,6.5929999351501465 83.76799774169922,-25.30299949645996 83.76799774169922,-25.30299949645996 C83.76799774169922,-25.30299949645996 -83.76799774169922,-25.30299949645996 -83.76799774169922,-25.30299949645996z"></path></g></g><g transform="matrix(1,0,0,1,0,-7.4207763671875)" opacity="1" style="display: block;"><g opacity="1" transform="matrix(1,0,0,1,523.676025390625,455.6820068359375)"><path class="right_eye_border_color" fill="rgb(0,0,0)" fill-opacity="1" d=" M-79.35700225830078,0 C-79.35700225830078,-43.827999114990234 -43.82699966430664,-79.35800170898438 0.0010000000474974513,-79.35800170898438 C43.82899856567383,-79.35800170898438 79.35700225830078,-43.827999114990234 79.35700225830078,0 C79.35700225830078,43.827999114990234 43.82899856567383,79.35800170898438 0.0010000000474974513,79.35800170898438 C-43.82699966430664,79.35800170898438 -79.35700225830078,43.827999114990234 -79.35700225830078,0z"></path></g><g opacity="1" transform="matrix(1,0,0,1,517.968994140625,461.3580017089844)"><path class="right_eyeball_color" fill="rgb(255,255,255)" fill-opacity="1" d=" M-69.39399719238281,0 C-69.39399719238281,-38.32500076293945 -38.32600021362305,-69.39299774169922 -0.0010000000474974513,-69.39299774169922 C38.32400131225586,-69.39299774169922 69.39299774169922,-38.32500076293945 69.39299774169922,0 C69.39299774169922,38.32500076293945 38.32400131225586,69.39299774169922 -0.0010000000474974513,69.39299774169922 C-38.32600021362305,69.39299774169922 -69.39399719238281,38.32500076293945 -69.39399719238281,0z"></path></g><g opacity="1" transform="matrix(1,0,0,1,506.5669860839844,461.3580017089844)"><path class="right_eye_pupil_color" fill="rgb(0,0,0)" fill-opacity="1" d=" M-33.28099822998047,0 C-33.28099822998047,-18.381000518798828 -18.3799991607666,-33.28200149536133 0.0010000000474974513,-33.28200149536133 C18.381000518798828,-33.28200149536133 33.28099822998047,-18.381000518798828 33.28099822998047,0 C33.28099822998047,18.381000518798828 18.381000518798828,33.28200149536133 0.0010000000474974513,33.28200149536133 C-18.3799991607666,33.28200149536133 -33.28099822998047,18.381000518798828 -33.28099822998047,0z"></path></g></g><g transform="matrix(1,0,0,1,0,-7.4207763671875)" opacity="1" style="display: block;"><g opacity="1" transform="matrix(1,0,0,1,276.3240051269531,455.6820068359375)"><path class="left_eye_border_color" fill="rgb(0,0,0)" fill-opacity="1" d=" M79.35700225830078,0 C79.35700225830078,-43.827999114990234 43.82699966430664,-79.35800170898438 -0.0010000000474974513,-79.35800170898438 C-43.82899856567383,-79.35800170898438 -79.35800170898438,-43.827999114990234 -79.35800170898438,0 C-79.35800170898438,43.827999114990234 -43.82899856567383,79.35800170898438 -0.0010000000474974513,79.35800170898438 C43.82699966430664,79.35800170898438 79.35700225830078,43.827999114990234 79.35700225830078,0z"></path></g><g opacity="1" transform="matrix(1,0,0,1,282.031005859375,461.3580017089844)"><path class="left_eyeball_color" fill="rgb(255,255,255)" fill-opacity="1" d=" M69.39299774169922,0 C69.39299774169922,-38.32500076293945 38.32500076293945,-69.39299774169922 0,-69.39299774169922 C-38.32500076293945,-69.39299774169922 -69.39399719238281,-38.32500076293945 -69.39399719238281,0 C-69.39399719238281,38.32500076293945 -38.32500076293945,69.39299774169922 0,69.39299774169922 C38.32500076293945,69.39299774169922 69.39299774169922,38.32500076293945 69.39299774169922,0z"></path></g><g opacity="1" transform="matrix(1,0,0,1,293.4330139160156,461.3580017089844)"><path class="left_eye_pupil_color" fill="rgb(0,0,0)" fill-opacity="1" d=" M33.28099822998047,0 C33.28099822998047,-18.381000518798828 18.3799991607666,-33.28200149536133 -0.0010000000474974513,-33.28200149536133 C-18.381000518798828,-33.28200149536133 -33.28099822998047,-18.381000518798828 -33.28099822998047,0 C-33.28099822998047,18.381000518798828 -18.381000518798828,33.28200149536133 -0.0010000000474974513,33.28200149536133 C18.3799991607666,33.28200149536133 33.28099822998047,18.381000518798828 33.28099822998047,0z"></path></g></g><g transform="matrix(1,0,0,1,0,0)" opacity="1" style="display: block;"><g opacity="1" transform="matrix(1,0,0,1,519.7620239257812,298.7744445800781)"><path class="right_eyebrow_color" fill="rgb(0,0,0)" fill-opacity="1" d=" M-53.305999755859375,-5.485000133514404 C-53.305999755859375,-5.485000133514404 -49.10900115966797,24.972999572753906 -49.10900115966797,24.972999572753906 C-2.7950000762939453,3.6760001182556152 44.18299865722656,29.908000946044922 44.18299865722656,29.908000946044922 C44.18299865722656,29.908000946044922 53.30500030517578,4.447000026702881 53.30500030517578,4.447000026702881 C0.8460000157356262,-29.908000946044922 -53.305999755859375,-5.485000133514404 -53.305999755859375,-5.485000133514404z"></path></g><g opacity="1" transform="matrix(1,0,0,1,284.4939880371094,298.7744445800781)"><path class="left_eyebrow_color" fill="rgb(0,0,0)" fill-opacity="1" d=" M-53.30500030517578,4.447000026702881 C-53.30500030517578,4.447000026702881 -44.18199920654297,29.908000946044922 -44.18199920654297,29.908000946044922 C-44.18199920654297,29.908000946044922 2.7950000762939453,3.6760001182556152 49.10900115966797,24.972999572753906 C49.10900115966797,24.972999572753906 53.305999755859375,-5.485000133514404 53.305999755859375,-5.485000133514404 C53.305999755859375,-5.485000133514404 -0.8460000157356262,-29.909000396728516 -53.30500030517578,4.447000026702881z"></path></g></g></g></svg>