<svg id="Assets" xmlns="http://www.w3.org/2000/svg" viewBox="0 0 800 800"><defs><style>.cls-1{fill:#b0af00;}.cls-2{opacity:0.62;}.cls-3{fill:#8f8f00;}.cls-4{fill:#c3ce00;}.cls-5{fill:#dde81e;}.cls-6{fill:#919800;}.cls-7{fill:#3e3200;}.cls-8{opacity:0.77;}.cls-9{opacity:0.54;}.cls-10{opacity:0.55;}.cls-11{fill:#d1d882;}.cls-12{opacity:0.38;}.cls-13{fill:#989358;}.cls-14{opacity:0.26;}.cls-15{opacity:0.65;}.cls-16{fill:#eef6c0;}.cls-17{opacity:0.49;}.cls-18{opacity:0.45;}.cls-19{opacity:0.18;}.cls-20{fill:#d8dc9e;}.cls-21{opacity:0.53;}.cls-22{fill:#f3f4da;}.cls-23{fill:#78703a;}.cls-24{fill:#2f3200;}.cls-25{fill:#3e0300;}.cls-26{fill:#df8e62;}.cls-27{fill:#ea996d;}.cls-28{opacity:0.58;}.cls-29{fill:#ffdfce;}</style></defs><g id="Forma_5513_copia_2" data-name="Forma 5513 copia 2"><path class="cls-1" d="M655.53,435.14c-6.28-52-17.06-107.34-56.78-170-28.87-45.5-86.41-19-86.41-19-72.64-58.31-168.88-50-226.22,0,0,0-59.79-27.66-94.13,23.18-41.35,61.22-44.83,117.15-50.61,169.26-5.55,50-26.7,68.41-9.87,131.33,49.26,184.28,489.88,183.58,539.15-.7C687.48,506.36,660.68,477.79,655.53,435.14Z"/></g><g id="Forma_5532" data-name="Forma 5532" class="cls-2"><path class="cls-3" d="M525.61,550.27c-25.91-36.42-89.5-68.2-89.5-68.2-7.35-3.28-10-3.58,3.08,5.86,27.33,19.66,39.2,66.05,39.2,66.05l85.79,49.07,7.72-4S551.51,586.69,525.61,550.27Zm129.5-122.55C648.83,382,641.12,322,601.4,267c-9.59-13.29-25.62-25.11-38.38-27.6,19.72,18.74,64.83,86.49,74.19,168C649.28,512.46,678,533.46,657.69,587a75.64,75.64,0,0,0,7.82,12.52,102.47,102.47,0,0,0,5.15-13.45C690.49,520.64,660.26,465.2,655.11,427.72Z"/></g><g id="Forma_5541_copia_2" data-name="Forma 5541 copia 2"><path class="cls-4" d="M194.56,265.38c-41.35,53.81-44.83,103-50.61,148.75-4.51,35.73-21.88,110.22-18.26,145.11,6.82,5,13.84,9.55,13.84,9.55-2.49-30.53,8-43.95,13.27-83.33s5-108.77,25.41-169.78c16.87-50.36,40.21-66,69.65-77.17C230,239.32,209.8,245.56,194.56,265.38Zm75.2,311.4c43-27.08,60.18-25.61,60.18-25.61,22.3-56.88,67.59-70.64,67.59-70.64-36.61,3.27-55.76,29.09-77.15,43.48S269.76,576.78,269.76,576.78Zm16.36-331.5A89.15,89.15,0,0,0,275.4,242c6.6,4.65,16.49,12.62,19.67,20.6,2.15-1.37,46.85-53.67,161.4-47.4C395.61,197,349,200.33,286.12,245.28Zm234.81-2.78c-3,.85-6.81,2.27-8.29,2.78-15.2,11.37-13.88,29.32-13.88,29.32,15.63-27.44,33.86-32.15,44.08-35.87A110.69,110.69,0,0,0,520.93,242.5Z"/></g><g id="Forma_5561" data-name="Forma 5561"><path class="cls-5" d="M326.24,530.52c1.74-1.95,43.27-37.81,51.23-43.51C377.47,487,344.73,501.33,326.24,530.52Z"/></g><g id="Forma_5519" data-name="Forma 5519"><path class="cls-6" d="M387.77,503.13s-5.36-4.81-8.57-2.64-3.06,5.62,0,10.11,7.28,8.28,10.59,7S395.2,511.85,387.77,503.13Z"/></g><g id="Forma_5519_copia" data-name="Forma 5519 copia"><path class="cls-6" d="M419.54,500.49c-3.21-2.17-8.57,2.64-8.57,2.64-7.42,8.72-5.33,13.26-2,14.5s7.53-2.54,10.59-7S422.75,502.66,419.54,500.49Z"/></g><g id="Forma_5516" data-name="Forma 5516"><path class="cls-7" d="M381.72,500.93c-7.29,2.76,4.81,14.75,7.06,14.95s3.46.37,4-3.08C392.82,512.8,389,498.17,381.72,500.93Z"/></g><g id="Forma_5516_copia" data-name="Forma 5516 copia"><path class="cls-7" d="M421.05,500.93C413.76,498.17,410,512.8,410,512.8c.58,3.45,1.78,3.28,4,3.08S428.35,503.69,421.05,500.93Z"/></g><g id="Forma_5517" data-name="Forma 5517"><path class="cls-4" d="M429.63,501.37c-1.14-3.26-4.54-1.32-4.54-1.32s5.39,4.82-5.55,14.95C419.54,515,432,508.24,429.63,501.37Zm-44.38-2.64s11.53,11.32,8.57,16.27c0,0,5.68-.94,1.52-7.48A23.08,23.08,0,0,0,385.25,498.73Z"/></g><g id="Forma_5541_copia" data-name="Forma 5541 copia" class="cls-8"><path class="cls-3" d="M584.55,382.12c-39.88-56.69-93.09-43.95-135.17-8.65-33.43,28.06-83.12,13.17-120.67-5.24-22-10.77-78.31-50.15-132.09,48.14-33.27,60.81-20.47,201,96.91,130.82,33.93-20.28,55.29-60.85,105.54-67a14.14,14.14,0,0,1,1.86,0c50.25,6.12,71.61,46.69,105.54,67C623.85,617.32,635.45,454.47,584.55,382.12Zm-288-100.18c2.4-14.67-1-26.81-20.11-39.13a11,11,0,0,0-1-.84s-11.19-2.1-27.54-3.46C259.18,244.51,279.74,245,296.52,281.94Z"/></g><g id="Elipse_5546" data-name="Elipse 5546" class="cls-9"><path class="cls-3" d="M163.36,548.45c-5.88-.35-10.88,2.25-11.17,5.82s4.23,6.73,10.11,7.08,10.88-2.25,11.17-5.81S169.23,548.8,163.36,548.45Z"/></g><g id="Elipse_5546_copia" data-name="Elipse 5546 copia" class="cls-9"><path class="cls-3" d="M215.22,572.53c-5.88-.37-10.88,2.22-11.18,5.78s4.22,6.75,10.09,7.11,10.89-2.23,11.19-5.79S221.1,572.89,215.22,572.53Z"/></g><g id="Elipse_5546_copia_2" data-name="Elipse 5546 copia 2" class="cls-9"><path class="cls-3" d="M180.52,577.1c-4.88-1-9.39.53-10.08,3.48s2.71,6.17,7.59,7.19,9.39-.53,10.08-3.48S185.4,578.12,180.52,577.1Z"/></g><g id="Elipse_5546_copia_4" data-name="Elipse 5546 copia 4" class="cls-9"><path class="cls-3" d="M340.84,290.25c-.45-3.55-5.53-5.72-11.36-4.85s-10.18,4.44-9.73,8,5.54,5.72,11.36,4.85S341.29,293.79,340.84,290.25Z"/></g><g id="Elipse_5546_copia_4-2" data-name="Elipse 5546 copia 4" class="cls-9"><path class="cls-3" d="M376.64,278.63c-5.88.38-10.52,3.58-10.37,7.15s5,6.15,10.91,5.78,10.52-3.58,10.37-7.15S382.51,278.25,376.64,278.63Z"/></g><g id="Elipse_5546_copia_4-3" data-name="Elipse 5546 copia 4" class="cls-9"><path class="cls-3" d="M361.72,308.55c-.37-3-4.67-4.86-9.6-4.13s-8.63,3.74-8.26,6.75,4.67,4.85,9.61,4.12S362.1,311.55,361.72,308.55Z"/></g><g id="Elipse_5546_copia_5" data-name="Elipse 5546 copia 5" class="cls-9"><path class="cls-3" d="M477.31,289.41c-5.83-.87-10.91,1.3-11.36,4.85s3.91,7.12,9.73,8S486.59,301,487,297.4,483.13,290.28,477.31,289.41Z"/></g><g id="Elipse_5546_copia_5-2" data-name="Elipse 5546 copia 5" class="cls-9"><path class="cls-3" d="M414.65,277.28c-4.85-.13-8.79,2.15-8.81,5.1s3.91,5.43,8.76,5.57,8.79-2.15,8.8-5.1S419.5,277.42,414.65,277.28Z"/></g><g id="Elipse_5546_copia_5-3" data-name="Elipse 5546 copia 5" class="cls-9"><path class="cls-3" d="M445,280c-4.4-.19-8,1.83-8.06,4.5s3.48,5,7.87,5.17,8-1.84,8.06-4.51S449.4,280.18,445,280Z"/></g><g id="Elipse_5546_copia_6" data-name="Elipse 5546 copia 6" class="cls-9"><path class="cls-3" d="M428.77,296.79c-3.64-.15-6.62,1.52-6.66,3.73s2.87,4.12,6.51,4.27,6.62-1.52,6.67-3.73S432.41,296.93,428.77,296.79Z"/></g><g id="Elipse_5546_copia_7" data-name="Elipse 5546 copia 7" class="cls-9"><path class="cls-3" d="M321.85,312.83c-3.64.15-6.56,2.07-6.51,4.28s3,3.88,6.66,3.73,6.56-2.06,6.51-4.27S325.49,312.68,321.85,312.83Z"/></g><g id="Elipse_5546_copia_3" data-name="Elipse 5546 copia 3" class="cls-10"><path class="cls-3" d="M635.72,548.45c-5.88.35-10.41,3.52-10.12,7.09s5.3,6.16,11.17,5.81,10.41-3.52,10.12-7.08S641.59,548.1,635.72,548.45Z"/></g><g id="Elipse_5546_copia_3-2" data-name="Elipse 5546 copia 3" class="cls-10"><path class="cls-3" d="M596.58,571.53c-.3-3.57-5.31-6.16-11.18-5.79s-10.4,3.54-10.1,7.1,5.31,6.15,11.18,5.79S596.88,575.09,596.58,571.53Z"/></g><g id="Elipse_5546_copia_3-3" data-name="Elipse 5546 copia 3" class="cls-10"><path class="cls-3" d="M632.39,580.52c-.6-3-5.07-4.65-10-3.76s-8.39,4-7.79,7,5.07,4.65,10,3.77S633,583.49,632.39,580.52Z"/></g><g id="Forma_5521_copia" data-name="Forma 5521 copia"><path class="cls-11" d="M669.78,542.91c-11.85,6.19-3.2,33.78-31.79,67.5-11.64,13.72-36.65,14-104-33.16a232.76,232.76,0,0,0-267.92,0c-67.38,47.15-92.39,46.88-104,33.16-28.59-33.72-19.94-61.31-31.79-67.5s-37.65,29-34.57,68.1,21.92,90.44,60.5,115.89S345.74,757.66,400,757.66s205.28-5.32,243.85-30.76,57.43-76.79,60.5-115.89S681.63,536.71,669.78,542.91Z"/></g><g id="Forma_5528" data-name="Forma 5528" class="cls-12"><path class="cls-13" d="M398.77,750.56c-189.42,0-262-51.74-292.43-94.85,9.7,27.41,26,53.9,49.85,70.16,38.57,26.29,189.56,31.79,243.81,31.79s205.24-5.5,243.81-31.79c23.86-16.26,40.17-42.78,49.87-70.2C673.88,693.36,578.78,750.56,398.77,750.56Z"/></g><g id="Forma_5528_copia" data-name="Forma 5528 copia" class="cls-14"><path class="cls-13" d="M397.22,733.59c-189.91-.34-274.48-57.91-299.08-108.73,6.68,36.86,25.22,78.63,58.05,101C188.67,748,300.84,755.4,367.86,757.19l71.53-.21c67.58-2.11,173.09-9.75,204.42-31.11,37.25-25.39,56.1-75.74,60.11-115.56C682.43,658.12,602.88,734,397.22,733.59Z"/></g><g id="Forma_5523" data-name="Forma 5523" class="cls-15"><path class="cls-16" d="M266,577.25C213.49,614,186.71,622,172,617.15c0,0,6.07,16.9,50.56-5.25,41.68-20.74,105-69.89,177.8-69.89,46.19,0,67.42,3.48,79,6.79A232.7,232.7,0,0,0,266,577.25Z"/></g><g id="Forma_5523_copia" data-name="Forma 5523 copia" class="cls-17"><path class="cls-16" d="M124,574.27s1.58-7.34-1.85-7.75c-3.89-.47-4,4-4.63,8.61s-1,54.93,33.33,65.4C150.8,640.53,123.36,626.43,124,574.27Z"/></g><g id="Forma_5523_copia_3" data-name="Forma 5523 copia 3" class="cls-18"><path class="cls-16" d="M683.76,575.13c-.66-4.66-.74-9.08-4.63-8.61-3.42.41-1.85,7.75-1.85,7.75.6,52.16-26.85,66.26-26.85,66.26C684.73,630.06,684.42,579.78,683.76,575.13Z"/></g><g id="Forma_5538" data-name="Forma 5538" class="cls-19"><path class="cls-20" d="M552.91,636.23c-9.11,2.12-65.28,50.13-154,49.63-84.37-.48-151.22-49.63-151.22-49.63s-24.1.92-15.12,23.81c36.7,93.47,297.59,96.09,335.15,2.3C573.85,647,562,634.11,552.91,636.23Z"/></g><g id="Forma_5523_copia_2" data-name="Forma 5523 copia 2" class="cls-21"><path class="cls-16" d="M543.35,636.23c-95.38,60.54-192.79,61.28-287.93,0C241,627,231,643.4,231,643.4s11.84-7.11,18.52-3.15c108.56,64.29,195.32,65.86,299.65,0,6.55-4.14,18.52,3.15,18.52,3.15S557.82,627,543.35,636.23Z"/></g><g id="Forma_5537" data-name="Forma 5537"><path class="cls-22" d="M388.74,687.51c88.39,7.73,144.73-41.88,144.73-41.88C460.84,692.37,388.74,687.51,388.74,687.51ZM254.8,585.13s79.13-48.15,129-49C383.8,536.08,327.7,526.7,254.8,585.13Z"/></g><g id="Forma_5524" data-name="Forma 5524"><path class="cls-23" d="M649.2,632.5c-20.57,16.34-65.58,2.72-109.56-26.1s-87.79-43.61-139.79-43.61-82.23,8.9-161.4,57.09c-100.29,61-109.57-29.55-109.86-32.62,8.25,101.2,118.81,36.35,118.81,36.35l304-1.15s45.89,26.27,74.68,22.38c45.18-6.11,46-56.8,46-56.8C670.43,598,666.71,618.6,649.2,632.5Z"/></g><g id="Forma_5522_copia" data-name="Forma 5522 copia"><path class="cls-24" d="M127.31,565.12c0-.49,0-1,0-1.47C127.35,563.65,127.32,564.17,127.31,565.12Zm545.69,0c.18,10.5-.5,73.92-43.55,77.42-47,3.83-99.72-40.85-129.93-54.22-64.81-28.69-133.92-28.69-198.74,0-30.2,13.37-83,58-129.92,54.22-43.05-3.5-43.74-66.92-43.55-77.42-3.26,134,119.47,60.21,119.47,60.21s30.64,21.69,65.73,36.72c50,21.42,125.3,21.42,175.29,0,35.09-15,65.73-36.72,65.73-36.72S676.26,699.11,673,565.12Zm0,0c0-1,0-1.47,0-1.47C673,564.14,673,564.63,673,565.12Z"/></g><g id="Forma_5531" data-name="Forma 5531"><path class="cls-25" d="M531,609.84c-28.86-23.5-90.68-36.15-131.15-36.15s-95.28,12.69-135.79,47c-4.79,4.07-6.55,8.13-5.92,12.13,12,7.66,32.33,19.73,54.37,29.18,50,21.42,125.3,21.42,175.29,0a381,381,0,0,0,45.83-23.88C541.1,627.74,540.58,617.63,531,609.84Z"/></g><g id="Forma_5530" data-name="Forma 5530"><path class="cls-26" d="M401.08,599.51c-68.55,0-109.47,25.75-128.58,42.12a367.47,367.47,0,0,0,40,20.42c50,21.42,125.3,21.42,175.29,0a380,380,0,0,0,45.71-23.81C518.29,625.67,477.45,599.51,401.08,599.51Z"/></g><g id="Forma_5536" data-name="Forma 5536"><path class="cls-27" d="M478.51,625.74c-3.32-7.81-17.18-18.38-39.82-21.75-22.47-3.29-57-3.85-99.46,7.85-19.61,7.08-32.25,14-40.17,19.48s-10.95,9.71-9.34,12.36c2.85,5,26,5,68.76-4,19.17-3.45,36.95-5.82,52.69-6.46s29.45.22,40.21.94,18.61,1.21,23-.25S480,629.34,478.51,625.74Z"/></g><g id="Forma_5535" data-name="Forma 5535" class="cls-28"><path class="cls-29" d="M380.6,603.79c-53.49,6-80.73,26.5-80.73,26.5-1.44,1.08-2.36,4.49.47,5.43s8.36-3.31,8.36-3.31c29.83-18,74.45-22.67,79.29-23.2s4.69-3.32,4.69-3.32S393.66,602.34,380.6,603.79Z"/></g></svg>