<svg id="Assets" xmlns="http://www.w3.org/2000/svg" viewBox="0 0 800 800"><defs><style>.cls-1{fill:#d46c1e;}.cls-2{fill:#ff8c3c;}.cls-3{fill:#982d00;}.cls-4{fill:#ffe8c8;}.cls-5{fill:#e4c09a;}.cls-6{fill:#ae4a0d;}.cls-7{fill:#6b1f07;}.cls-8{fill:#ffa647;}.cls-9{fill:#590c00;}.cls-10{fill:#ffb018;}.cls-11{fill:#fff37d;}.cls-12{fill:#ff9700;}</style></defs><g id="Forma_1269_copia" data-name="Forma 1269 copia"><path class="cls-1" d="M678.72,404.47c-28-43.85-53.54-102.18-53.54-102.18l-225,51.93L170.93,302.29s-26,58.33-54.54,102.18-19.28,131.87-4.63,157.47c0,0,7.07-18.43,16.75-30.09-.73,2.83,1.54,83,46.34,121.08,0,0,5.35-21.87,19.25-31.15,0,0,37,127.33,203.63,129.79v0l2.42,0,2.47,0v0c163.55-2.5,199.82-129.79,199.82-129.79,13.64,9.28,18.89,31.15,18.89,31.15,44-38,46.21-118.25,45.49-121.08,9.5,11.66,16.45,30.09,16.45,30.09C697.65,536.34,706.74,448.33,678.72,404.47Z"/></g><g id="Forma_1288" data-name="Forma 1288"><path class="cls-2" d="M134.93,524.85s-.31,62.95,29.74,107.08c0,0-19.86-39.23-23.79-108.83Zm18.19-156.77-9.45-.35S126,385.36,109.73,429.67c-.8,4.49-12.11,62.18.35,117.23C110.08,546.9,101.06,424.18,153.12,368.08ZM207,617.58l-5.25,2.8s23.9,70.36,88.54,102.53C290.3,722.91,240.35,695.65,207,617.58Z"/></g><g id="Forma_1272_copia" data-name="Forma 1272 copia"><path class="cls-3" d="M675,415.93c5.79,5.59,6.17,6,6.19,6-9.5-42.41-57.9-73.1-57.9-73.1l-221.75,62-221.75-62s-48.4,30.69-57.9,73.1c0,0,.4-.42,6.19-6-.77,3.56-10,52.8-6.92,77.34.4-2.17,1.69-15.38,6.19-22.95-.14,2.59,6.62,72,115.07,99.94,69.61,17.93,117.79-53.54,159.12-55.74,41.33,2.2,89.51,73.67,159.12,55.74,108.45-27.92,115.21-97.35,115.06-99.94,4.51,7.57,5.8,20.78,6.19,22.95C685,468.73,675.8,419.49,675,415.93Z"/></g><g id="Forma_1272_copia_2" data-name="Forma 1272 copia 2"><path class="cls-4" d="M625.53,352.68,400.35,405,175.17,352.68s-97.56,120,16.8,186.87c111.5,65.2,153.86-34,208.38-36,54.52,2,96.88,101.21,208.38,36C723.09,472.68,625.53,352.68,625.53,352.68Z"/></g><g id="Elipse_1285" data-name="Elipse 1285"><path class="cls-5" d="M625.53,352.68,400.35,405,175.17,352.68S152.88,380.1,142.1,416c64.7,29.22,153.25,47.23,250.9,47.23,104.24,0,198.09-20.52,263.65-53.29C645.35,377.07,625.53,352.68,625.53,352.68Z"/></g><g id="Forma_1274_copia" data-name="Forma 1274 copia"><path class="cls-3" d="M632.18,381s-19.09,3.05-31.49-.08-13.27-12.38-44.8-17.77c-6.52-.47-113.63,19.65-156.24,51.38C357,382.83,249.93,362.71,243.41,363.18c-31.53,5.39-32.39,14.64-44.8,17.77s-31.49.08-31.49.08c11.95,25.8,2.8,54.24,2.8,54.24C161.21,558.37,251.13,567.2,278.75,564c37.95-4.33,102-50.33,120.9-58.94,18.93,8.61,99.69,57.69,121.25,57.89,48,.45,117.19-4.62,108.48-127.72C629.38,435.27,620.23,406.83,632.18,381Z"/></g><g id="Forma_1280_copia" data-name="Forma 1280 copia"><path class="cls-6" d="M616.43,267.65s-29.74-5-69.28-24.14C509,225.06,447.77,208,402.73,206.83v-.07l-2.46,0-2.47,0v.07c-45,1.19-105.41,18.23-143.55,36.68C214.71,262.64,185,267.65,185,267.65,171.14,332.78,357.91,415.74,396.77,435l3.16,1.73,3.84-1.71C442.71,415.78,630.26,332.79,616.43,267.65Z"/></g><g id="Forma_1287_copia_4" data-name="Forma 1287 copia 4"><path class="cls-7" d="M340.06,267.2c1.51,1.09,4.57-3.44,3.32-10.68-.85-7.36-6-17.44-11.5-30.29-1.85-3.77-6.53-3.93-9.74-2.15-3.37,1.83-5.26,5.59-5.25,10.79-.34,10.51,6.26,13.67,14.17,22C336.25,262.32,337.52,265.69,340.06,267.2Zm-58.51-23.41c-3.55-1.08-5.9,2.44-7.5,4.86-1.52,2.79-2.27,4.48-.81,8.3,3.29,7.36,10,7.92,18.81,10.65,5.95,2,9.16,3.95,12.86,3.57,3.21.46.19-4.59-3.59-9.46C297.11,256.49,292.14,251.46,281.55,243.79Zm82-20.74c-.7,8.88,4.47,11.77,8.95,19.93,2.79,5.21,3.14,8.23,5.4,9.59,1.07.87,3.89-2.25,4.66-7.68.89-5.2,1-14-3.86-25.75C376.51,212.5,363.94,214.43,363.54,223.05ZM361.83,269c0,6.15,3.5,8.14,7.78,15.53,2.94,5.15,3.63,8.13,5.93,10,1.18,1.17,3.51-1.4,3.37-6.76,0-5.3-1.58-13.33-6.84-22C369.85,261.52,361.64,263.18,361.83,269Zm-30.06,14.72c0,6.15,3.49,8.14,7.78,15.53,2.93,5.15,3.63,8.13,5.93,10,1.18,1.17,3.51-1.4,3.37-6.76,0-5.3-1.58-13.33-6.85-22C339.79,276.24,331.58,277.9,331.77,283.72Zm32.25,27c-.3,4.66-.53,7.08,3.57,12.5,2.9,3.75,4.22,5.78,6.34,7.17,1,.88,3.17-1.05,3.66-5.21.93-4.21-1.76-9.83-4.67-16.75C372.39,304.85,363.83,306.43,364,310.76Zm38.74-34c.06,0-11.48-5.78-13.31,1.75-1.66,7.55,1.71,27.66,4.09,30.78,2.84,3.15,4.46.64,6.57-6.45,1-3.55,4.46-9.4,5.83-14.73S406.85,278,402.76,276.77Z"/></g><g id="Forma_1287_copia_5" data-name="Forma 1287 copia 5"><path class="cls-7" d="M414.86,262.49c2.37-1.37,3.29-6.06,6.26-11.23,4.69-8.18,9.52-9.42,8.77-18.25-.41-8.6-13.58-10.53-15.87-3.9-5.07,11.69-5,20.51-4,25.71C410.79,260.24,413.74,263.35,414.86,262.49Zm11.86,3.1c-5.52,8.61-7.21,16.63-7.17,21.92-.15,5.36,2.29,7.92,3.53,6.75,2.41-1.89,3.14-4.87,6.21-10,4.49-7.37,8.13-9.37,8.15-15.5C437.64,262.94,429,261.28,426.72,265.59Zm102.65-17.16c-1.67-2.42-4.14-5.93-7.86-4.85-11.08,7.65-16.29,12.68-20.7,17.89-4,4.86-7.12,9.9-3.76,9.44,3.88.38,7.24-1.56,13.47-3.56,9.21-2.73,16.25-3.28,19.7-10.63C531.76,252.89,531,251.21,529.37,248.43Zm-68.24.2c7.5-7,13.76-9.68,13.43-18.54,0-4.38-1.78-7.56-5-9.1-3-1.51-7.47-1.37-9.23,1.81-5.19,10.84-10.09,19.34-10.89,25.55-1.19,6.11,1.71,9.93,3.14,9C455,256.09,456.22,253.25,461.13,248.63Zm4.53,13c-6.76,7.61-9.65,15.26-10.42,20.49-1,5.26,1.06,8.19,2.46,7.24,2.67-1.48,3.84-4.3,7.66-8.88,5.55-6.55,9.46-7.93,10.41-14C476.85,260.77,468.61,257.73,465.66,261.61ZM413,314.8c-3,6.91-5.87,12.53-4.89,16.72.51,4.16,2.77,6.09,3.83,5.21,2.22-1.39,3.6-3.41,6.65-7.16,4.28-5.41,4-7.83,3.73-12.49C422.48,312.76,413.52,311.18,413,314.8Z"/></g><g id="Forma_1284_copia_2" data-name="Forma 1284 copia 2"><path class="cls-6" d="M433.77,469.91c-6.88-28.65,10.5-55.29,10.5-55.29-7.68-5.8-35.72,18.27-43.92,25.59-8.2-7.32-36.24-31.39-43.92-25.59,0,0,17.38,26.64,10.5,55.29-6.66,27.75-19.46,54.72-55.22,76.93a551.83,551.83,0,0,0,52.42-31.44c12.66-8.62,29.51-16.74,35-16.28l.88.09.88-.09c5.48-.46,23,7.66,35.69,16.28A551.83,551.83,0,0,0,489,546.84C453.23,524.63,440.43,497.66,433.77,469.91ZM311.71,546.84a26.54,26.54,0,0,0-3.57,2.16Q310,547.92,311.71,546.84Zm177.28,0q1.74,1.08,3.57,2.16A26.54,26.54,0,0,0,489,546.84Z"/></g><g id="Forma_1277" data-name="Forma 1277"><path class="cls-1" d="M377.08,329.59c-15.33-21-21.51-32.76-21.35-39.89.13,1.82-5.22,11.18-2.8,19.24,0,0-15.42-27.68-61.93-49,0,0,4,12.1,10.14,18.9,0,0-49.79-17.73-97.28-15.4s-77.88-5.08-95.53-21c0,0-6.84,13.71,6.65,22,0,0-45.12-14-58.44-28,0,0-16.16,91.07,183.37,142.77,137.78,35.7,159.92,68.24,159.92,68.24V387.68S392.41,350.63,377.08,329.59Z"/></g><g id="Forma_1277_copia_2" data-name="Forma 1277 copia 2"><path class="cls-8" d="M301.84,331.69C223.59,291,203.09,305.61,179,267.3c0,0-9.4,17.9-1.05,28.7,0,0-97.23-24.34-121.59-58.13-1.05,11.51-1.68,93.42,183.53,141.41C361,410.65,392.75,439.57,398.68,446.13l1.15-3.16S380.1,372.34,301.84,331.69Z"/></g><g id="Forma_1277_copia" data-name="Forma 1277 copia"><path class="cls-9" d="M308.84,382.43c-51.43-23.13-147.16-37-169.71-63.69,0,0-1.88,4,3.14,11.55-2.58-1.15-62.61-32.81-85.49-81,0,.33.09.65.15,1,.56,6.55-.22,8.71,9.47,27.12C83.2,308.2,127.05,350,239.91,379.28c137.78,35.7,159.92,68.24,159.92,68.24v-6S360.27,405.56,308.84,382.43Z"/></g><g id="Forma_1277_copia_3" data-name="Forma 1277 copia 3"><path class="cls-1" d="M743.46,236.51c-13.32,14-58.44,28-58.44,28,13.49-8.33,6.65-22,6.65-22-17.65,15.91-48,23.32-95.53,21s-97.28,15.4-97.28,15.4C505,272.05,509,260,509,260c-46.51,21.31-61.93,49-61.93,49,2.42-8.06-2.93-17.42-2.8-19.24.16,7.13-6,18.85-21.35,39.89s-22.75,58.09-22.75,58.09v59.84S422.31,415,560.09,379.28C759.62,327.58,743.46,236.51,743.46,236.51Z"/></g><g id="Forma_1277_copia_3-2" data-name="Forma 1277 copia 3"><path class="cls-8" d="M742.92,237.87C718.56,271.66,621.33,296,621.33,296c8.35-10.8-1.05-28.7-1.05-28.7-24.07,38.31-44.57,23.74-122.82,64.39s-97.63,110.93-97.63,110.93l.79,3.51c5.93-6.56,37.71-35.48,158.77-66.85C744.6,331.29,744,249.38,742.92,237.87Z"/></g><g id="Forma_1277_copia_3-3" data-name="Forma 1277 copia 3"><path class="cls-9" d="M657.73,330.29c5-7.52,3.14-11.55,3.14-11.55-22.55,26.71-118.28,40.56-169.71,63.69s-91.33,59.06-91.33,59.06v6S422.31,415,560.09,379.28C673,350,716.8,308.2,733.6,277.37c9.69-18.41,8.91-20.57,9.47-27.12.06-.34.1-.66.15-1C720.34,297.48,660.31,329.14,657.73,330.29Z"/></g><g id="Forma_1267_copia" data-name="Forma 1267 copia"><path class="cls-10" d="M400.17,523.8l-.52,0-.52,0C368.55,523.8,282,595,283.3,624.58s31.34,117.33,116.17,117.58h.36c84.83-.25,114.83-88,116.17-117.58S430.75,523.8,400.17,523.8Z"/></g><g id="Forma_1267_copia_3" data-name="Forma 1267 copia 3"><path class="cls-11" d="M400.17,523.8l-.52,0-.52,0C368.55,523.8,282,595,283.3,624.58c.06,1.32.18,2.76.35,4.3,11.73-34.41,93.63-100.75,123.84-101.71a5.56,5.56,0,0,1,.58,0l.58,0a32.29,32.29,0,0,1,8.29,1C410.44,525.36,404.7,523.8,400.17,523.8Z"/></g><g id="Elipse_1267" data-name="Elipse 1267"><path class="cls-1" d="M366.65,570.06c-4.95.4-2.48,11.8,2.75,18.16,2.48,3,4.5,3.76,5.67,3.73s2.65-1,2.8-4C378.22,581.33,371.8,569.64,366.65,570.06Z"/></g><g id="Elipse_1267_copia" data-name="Elipse 1267 copia"><path class="cls-1" d="M435.8,570.06c-5.15-.42-11.57,11.27-11.22,17.91.15,3,1.55,4,2.8,4s3.19-.71,5.67-3.73C438.28,581.86,440.75,570.46,435.8,570.06Z"/></g><g id="Forma_1267_copia_2" data-name="Forma 1267 copia 2"><path class="cls-12" d="M515.25,618.55C510,653.07,478.53,728.63,399.83,728.86h-.36c-78.7-.23-110.21-75.79-115.42-110.31a20,20,0,0,0-.75,6c1.34,29.55,31.34,117.33,116.17,117.58h.36c84.83-.25,114.83-88,116.17-117.58A20,20,0,0,0,515.25,618.55Z"/></g></svg>