<svg id="Assets" xmlns="http://www.w3.org/2000/svg" viewBox="0 0 800 800"><defs><style>.cls-1{fill:#ded7ce;}.cls-2{fill:#e5e4e0;}.cls-3{fill:#cbc0b3;}.cls-4{fill:#a39a98;}.cls-5{fill:#6f6977;}.cls-6{fill:#505052;}.cls-7{fill:#f3f3f1;}.cls-8{fill:#9c96a4;}.cls-9{opacity:0.68;}.cls-10{fill:#685d7a;}.cls-11{fill:#5a5453;}.cls-12{fill:#393939;}.cls-13{fill:#2e2c2c;}.cls-14{opacity:0.13;}.cls-15{fill:#fcd9de;}.cls-16{opacity:0.36;}.cls-17{fill:#fffdec;}</style></defs><g id="Forma_6494" data-name="Forma 6494"><path class="cls-1" d="M114.66,280c-32.23,4.59-34.24,6.26-40.61,5.6s-19,6.54-9.1,14c0,0-29.4-.58-7.7,14,0,0-7.29,6-13.31,10.5s5.57,9.4,11.21,9.8c0,0,3.61,70.17,49,105.74s82.63-149.15,82.63-149.15S146.89,275.35,114.66,280Z"/></g><g id="Forma_6495" data-name="Forma 6495"><path class="cls-2" d="M63.55,315.66a34.71,34.71,0,0,0-8.25-.52c-2.57,2.09-7.26,5.85-11.36,8.92-2.74,2.06-1.82,4.19.52,5.94,3.23-3.95,12.09-7.34,12.09-7.34S76.32,318,63.55,315.66ZM114.66,280c-32.23,4.59-34.24,6.26-40.61,5.6-4-.42-10.64,2.35-12.35,6.34,2-1.15,7.5-3.1,18.65,0,14.8,4.07,52.69-6.31,100.13,11.21l5.72-9.8c.39-1.82.59-2.81.59-2.81S146.89,275.35,114.66,280ZM65,299.55s-20.54-.4-14.6,8c6-2.47,8-2.37,12.5-1.68C80.57,308.58,73.49,300.54,65,299.55Z"/></g><g id="Forma_6496" data-name="Forma 6496"><path class="cls-3" d="M163.64,283.67c-8.31,10.2-18.78,24.84-25.17,40.39,0,0-34.55-15.08-55.32-7.7s0,11.2,0,11.2-17.16,16-3.5,17.51c0,0-6.89,28.81,5.6,22.4,0,0,1.13,11.2,9.11,26.61A90,90,0,0,0,77.88,409a108.78,108.78,0,0,0,26.28,30.63c45.4,35.56,82.63-149.15,82.63-149.15A202.78,202.78,0,0,0,163.64,283.67Z"/></g><g id="Forma_6497" data-name="Forma 6497"><path class="cls-4" d="M100.66,324.76c-28.49-4.32-9.8,10.51-9.8,10.51s-9.62,29.21,2.1,25.9c0,0,9.13,26.78,30.81,48.32l31.51-58.82S129.15,329.08,100.66,324.76Z"/></g><g id="Forma_6498" data-name="Forma 6498"><path class="cls-5" d="M102.76,326.16c-27.1-3.2-1.4,15.41-1.4,15.41s4.19,22.19,30.81,54.61c.59-1.33,24.51-44.11,24.51-44.11S129.86,329.36,102.76,326.16Z"/></g><g id="Forma_6499" data-name="Forma 6499"><path class="cls-6" d="M114,334.56S125,342,129.37,346.47c0,0-2.69,31.77,16.1,29.41.9-1.37,6.3-17.51,6.3-17.51S145.39,347,114,334.56Z"/></g><g id="Forma_6494-2" data-name="Forma 6494"><path class="cls-1" d="M756.06,324.06c-6-4.51-13.31-10.5-13.31-10.5,21.7-14.59-7.7-14-7.7-14,9.92-7.46-2.73-14.66-9.1-14s-8.38-1-40.61-5.6-72.13,10.5-72.13,10.5,37.23,184.71,82.63,149.15,49-105.74,49-105.74C750.49,333.46,762.07,328.57,756.06,324.06Z"/></g><g id="Forma_6495-2" data-name="Forma 6495"><path class="cls-2" d="M738.3,291.89c-1.71-4-8.3-6.76-12.35-6.34-6.37.66-8.38-1-40.61-5.6s-72.13,10.5-72.13,10.5.2,1,.59,2.81l5.72,9.8c47.44-17.52,85.33-7.14,100.13-11.21C730.8,288.79,736.28,290.74,738.3,291.89Zm17.76,32.17c-4.1-3.07-8.79-6.83-11.36-8.92a34.71,34.71,0,0,0-8.25.52c-12.77,2.35,7,7,7,7s8.86,3.39,12.09,7.34C757.88,328.25,758.8,326.12,756.06,324.06Zm-6.41-16.52c5.94-8.39-14.6-8-14.6-8-8.54,1-15.62,9,2.1,6.31C741.61,305.17,743.63,305.07,749.65,307.54Z"/></g><g id="Forma_6496-2" data-name="Forma 6496"><path class="cls-3" d="M716.85,327.56s20.77-3.82,0-11.2-55.32,7.7-55.32,7.7c-6.39-15.55-16.86-30.19-25.17-40.39a202.78,202.78,0,0,0-23.15,6.78s37.23,184.71,82.63,149.15A108.78,108.78,0,0,0,722.12,409a90,90,0,0,0-16.48-14.89c8-15.41,9.11-26.61,9.11-26.61,12.49,6.41,5.6-22.4,5.6-22.4C734,343.59,716.85,327.56,716.85,327.56Z"/></g><g id="Forma_6497-2" data-name="Forma 6497"><path class="cls-4" d="M699.34,324.76c-28.49,4.32-54.62,25.91-54.62,25.91l31.51,58.82C697.91,388,707,361.17,707,361.17c11.72,3.31,2.1-25.9,2.1-25.9S727.83,320.44,699.34,324.76Z"/></g><g id="Forma_6498-2" data-name="Forma 6498"><path class="cls-5" d="M697.24,326.16c-27.1,3.2-53.92,25.91-53.92,25.91s23.92,42.78,24.51,44.11c26.62-32.42,30.81-54.61,30.81-54.61S724.34,323,697.24,326.16Z"/></g><g id="Forma_6499-2" data-name="Forma 6499"><path class="cls-6" d="M686,334.56c-31.43,12.43-37.81,23.81-37.81,23.81s5.4,16.14,6.3,17.51c18.79,2.36,16.1-29.41,16.1-29.41C675,342,686,334.56,686,334.56Z"/></g><g id="Forma_6470" data-name="Forma 6470"><path class="cls-2" d="M746.26,552.33c.26-16.86-5.61-36.41-5.61-36.41C753.68,529,747,504,747,504s-18.59-37.76-42-68.62S648.22,334.56,639.12,322C554,204.11,514.51,194.44,497.68,174.22s-47.58-44.16-60.22-49.72-21.93-6.71-9.8,4.2,22.27,32,21,31.51c-53.63-20.72-92.79-5.06-102.93,0s-24.62,11.41-7.7,9.1c14.36-1.95,30.11,1.41,30.11,1.41C323,181,240.67,222.15,207.79,252.64c-22.1,20.5-34,55.46-74.22,119-29.2,46.11-41.51,46.08-50.42,58.11-12.85,17.38,9.11,11.91,9.11,11.91S73.41,452,72,463.4s11.2,7,11.2,7a38.79,38.79,0,0,0-13.3,16.8C53.41,527.71,50,525.57,49.54,529.92c-1.54,13.53,11.21,7,11.21,7-10.5,12.13-9.12,44-9.11,56.71,0,16,14.71,4.2,14.71,4.2.74,17.38,12.1,34.93,21,51.12,12,21.84,14.7-1.4,14.7-1.4S199.15,793.2,403.85,793.2,726,609.75,726,609.75c2.16,8.9,8.4.7,8.4.7s.37,4.87,4.9-11.2c2.71-9.62,0-20.31,0-20.31,7.8,10.2,10.24-2.56,9.11-6.3S746.07,563.9,746.26,552.33Z"/></g><g id="Forma_6472" data-name="Forma 6472"><path class="cls-7" d="M83.15,470.41a38.79,38.79,0,0,0-13.3,16.8C53.41,527.71,50,525.57,49.54,529.92c-.58,5.08.86,7.34,2.88,8.17-2.17-11,18.88-26.35,23-37.57,8-21.76,39.91-37.12,39.91-37.12-13.75,1.7-28.2,5.61-35.35,7.71A17.55,17.55,0,0,0,83.15,470.41ZM228.8,529.92c-18.3-10.2-50.92-31.82-81.23-18.2-35.78,16.08-6.83,45,14,39.21s53.65-7.34,65.12-8.4S247.1,540.13,228.8,529.92ZM92.26,441.7S73.41,452,72,463.4c-.51,4,.72,6.06,2.53,7-2-11.42,42.28-33.64,42.28-33.64-9.23.52-20.52,3.47-27,5.37C91.24,442,92.26,441.7,92.26,441.7ZM86,528.52c-8.1.94-18.53,5.18-25.29,8.52-10.4,12.22-9,43.9-9,56.6,0,8.92,4.59,9.19,8.63,7.69-2.51-4.69,2.3-20.43,4.68-37.1C67.82,544.13,86,528.52,86,528.52Zm4.91,42.72c-11.39,6-21.25,20.33-25.61,27.41.68-.47,1.1-.81,1.1-.81.74,17.38,12.1,34.93,21,51.12,5.86,10.67,9.5,10.58,11.7,7.69-3.39-4.92-7.38-15.52-12.41-30.8C78.88,602.19,90.86,571.24,90.86,571.24ZM361.77,172.3c-46.18,12.39-122.59,51.24-154,80.34-22.1,20.5-34,55.46-74.22,119-29.2,46.11-41.51,46.08-50.42,58.11-6.8,9.2-3.85,12,.43,12.59-4.5-6.82.31-5.49,40.19-32.89C189.94,364,179.42,321.71,228.1,282.75c69.17-55.36,199.27-90.28,205-89.74C408.62,179.33,388.11,171.66,361.77,172.3Zm-21.64,380v0C339.73,552.32,339.69,552.32,340.13,552.33ZM448.77,160.08c0,.11,0,.16-.11.13-53.63-20.72-92.79-5.06-102.93,0-8.47,4.24-20,9.36-13.62,9.58,15.55-4.69,74.74-15.68,118,.22C459.49,173.49,455.25,167.17,448.77,160.08ZM433.05,193l.21.11C433.29,193.06,433.21,193,433.05,193Zm-48.8,279.5c-36,18.71-44,78.7-44.11,79.8,4.06-.1,45.76-.38,46.21-2.08-1.05-32.55,18.52-73.46,24.5-79.12S420.6,453.62,384.25,472.51Z"/></g><g id="Forma_6473" data-name="Forma 6473"><path class="cls-1" d="M403.85,175.62a156.92,156.92,0,0,0-36.15-5l.44.09a255.3,255.3,0,0,0-31.87,9.9C377.61,183.18,389.8,178.78,403.85,175.62ZM746.26,552.33c.26-16.86-5.61-36.41-5.61-36.41C753.68,529,747,504,747,504s-18.59-37.76-42-68.62S648.22,334.56,639.12,322C554,204.11,514.51,194.44,497.68,174.22s-47.58-44.16-60.22-49.72c-9.93-4.37-17.8-6-14.81-1.21,11.51,5,45,23.38,70.13,75.43,1.66,3.18,3.35,13.09,17.5,25.21s32.42,37.32,44.82,56.72,22.8,40.19,7.7,35c0,0,18.36,10.84,26.61,51.81,5.7,28.32,16.1,35.72,16.1,35.72s1.85,21.72-14,11.2c0,0,33.06,29.37,38.51,74.92s20.31,59.52,20.31,59.52,8.5,24.42-11.91,18.91c0,0,9.83,28.41-17.5,35,0,0,2.64,32.55-30.11,10.5S538,554.62,470.37,537.63c0,0-294.3,75.59-133,222,0,0-26.77,7.43-58.12-23.1,0,0,24.15,33.56-116.21-26.2,43.42,34.74,110.44,72.58,202.2,81.13,45.54-3.35,93.48-8.14,138.26-13.21C646.16,734.42,726,609.75,726,609.75c2.16,8.9,8.4.7,8.4.7s.37,4.87,4.9-11.2c2.71-9.62,0-20.31,0-20.31,7.8,10.2,10.24-2.56,9.11-6.3S746.07,563.9,746.26,552.33Z"/></g><g id="Forma_6490" data-name="Forma 6490"><path class="cls-8" d="M312.82,357.67c-19.34-7.42-68.1.38-100.83,64.42s-7.49,106,79.13,118.34c13.83,2,57.58.56,68.62-63S332.17,365.1,312.82,357.67Z"/></g><g id="Forma_6490_copia" data-name="Forma 6490 copia"><path class="cls-8" d="M598.51,422.09c-32.72-64-81.49-71.84-100.83-64.42s-58,56.16-46.91,119.74,54.78,65,68.62,63C606,528.05,631.24,486.13,598.51,422.09Z"/></g><g id="Forma_6476_copia" data-name="Forma 6476 copia"><path class="cls-8" d="M491.39,559.08c-50-70.64-128.06-54.57-166.68,0-26.16,25.35-49.79,63-53.9,117.89-3.33,44.49,60.11,81.78,128.84,81.92,69.9.15,145.14-37.59,145.64-81.92C545.92,621.94,517.56,584.43,491.39,559.08Z"/></g><g id="Forma_6477" data-name="Forma 6477" class="cls-9"><path class="cls-10" d="M491.39,559.08c-33.94-48-80.83-55.94-119.53-39-8.87,40.08-18.07,62.49-16.32,61,0,0,22.64,67.05,93.82,46.21,0,0,32.72,79.68-13.94,128.58C493,746,544.88,713.76,545.29,677,545.92,621.94,517.56,584.43,491.39,559.08Z"/></g><g id="Forma_3362_copia_2" data-name="Forma 3362 copia 2"><path class="cls-11" d="M469,555.82H336.08S320.83,588.31,349.93,609a90.33,90.33,0,0,0,105.21,0C484.24,588.31,469,555.82,469,555.82Z"/></g><g id="Forma_3370" data-name="Forma 3370"><path class="cls-12" d="M448.19,598c-16.11,5.82-33.11-2.16-33.11-2.16s-14.92-8.18-23.59-1.44-21.54,7.22-33.32,4.68c39.43,22,44.81,23.75,90.13-1Z"/></g><g id="Forma_3365_copia" data-name="Forma 3365 copia"><path class="cls-13" d="M378.76,560.17s-30.62,6.16-28.45,24,42.6,13.42,44.18.36S393.82,554,378.76,560.17Zm48.3,0c-15.06-6.15-17.3,11.31-15.73,24.37s42,17.49,44.18-.36S427.06,560.17,427.06,560.17Z"/></g><g id="Forma_3359_copia_3" data-name="Forma 3359 copia 3"><path class="cls-11" d="M469,541.69c-9.6-34.37-38.12-39.12-46.8-37.36-4.83,1-34.48,1-39.31,0-8.68-1.76-37.2,3-46.8,37.36s-.83,47.66,7.86,47.76,6.27-16.21,24.71-23.34c14.91-5.77,25.38,3.64,24.34,16.16s-10.85,7.86-7.12,14.72a19,19,0,0,0,33.33,0c3.73-6.86-6.07-2.21-7.12-14.72s9.43-21.93,24.34-16.16c18.43,7.13,16,23.43,24.71,23.34S478.59,576.06,469,541.69Z"/></g><g id="Forma_3367" data-name="Forma 3367" class="cls-14"><path class="cls-15" d="M358.86,521.62c-13.15,8-21.24,21.52-25.92,44.5h-.2c-.67,12,2.36,20.59,8.32,22.79,5.1-11.93-1.17-47.41,35.4-54l20.44-.63C369.34,526.76,384.72,512.26,358.86,521.62Z"/></g><g id="Forma_3369" data-name="Forma 3369" class="cls-16"><path class="cls-15" d="M340.2,579.63c12.86-2.32-9.87-37.93,51.66-44.68,6.45,0,4.31.28,15.73-.72C355.81,516.31,329.06,528.24,340.2,579.63Z"/></g><g id="Elipse_3368" data-name="Elipse 3368"><path class="cls-17" d="M368.17,520.55c-1.82-2.83-6.68-2.93-13.28-.15a15.43,15.43,0,0,0-6.57,6.21c-1.28,2.28-1.29,4-.8,5.33.06,1,1.58.91,4.31-.59s6.52-4.12,9.4-4.9C366.74,525,369.41,523.72,368.17,520.55Z"/></g><g id="Forma_3364_copia" data-name="Forma 3364 copia"><path class="cls-12" d="M466.74,561.83c-2.66-22-15.9-33.5-28.82-31.56-7.06,1.06-56.84,1.09-70,0-10.29-.85-26.16,9.52-28.83,31.56-1.33,11-.62,21,3.51,27.49a9.06,9.06,0,0,0,1.36.13c8.69.09,6.27-16.21,24.71-23.34,14.91-5.77,25.38,3.64,24.34,16.16s-10.85,7.86-7.12,14.72a19,19,0,0,0,33.33,0c3.73-6.86-6.07-2.21-7.12-14.72s9.43-21.93,24.34-16.16c18.43,7.13,16,23.43,24.71,23.34a8.6,8.6,0,0,0,2.23-.33C467.38,582.61,468.07,572.77,466.74,561.83Z"/></g><g id="Forma_3371_copia" data-name="Forma 3371 copia"><path class="cls-13" d="M442.41,564.5c-1.23-3.28-15.35-9.73-15.35-9.73-8.29-3.47-17-8.65-24.71-8.65-10.68,0-19.68,6.37-24.71,9,0,0-14.5,6.09-15.73,9.37s6.94-3.69,17.6-2.89c10.36.78,16.51,7.88,16.85,15.13s2.7,8.32-4.5,14.78,5.13,12.24,10.49,12.24c6,0,17.26-5.48,10.11-12.24s-4.83-7.52-4.5-14.78,6.49-14.35,16.85-15.13C435.48,560.81,443.64,567.77,442.41,564.5Z"/></g><g id="Forma_3366" data-name="Forma 3366"><path class="cls-11" d="M459.17,585.89c-7.45-9.07-14.55-25.42-36.56-22.92-4.24.48-8.76,4.56-10.33,8.64-8.22,21.44,10.84,19.57,4.29,26.75-11.24,10.62-17.85,7.12-25.45,2.16-12.49-10.31,12.31-5.81,2.24-27.74-1.31-2.87-3.85-6.28-9.73-9-5.05-2.09-15.78-.46-23.71,4.45-6.48,4-13.39,23.24-18.88,18.12a21.32,21.32,0,0,0,1.54,3,9.06,9.06,0,0,0,1.36.13c8.69.09,6.27-16.21,24.71-23.34,14.91-5.77,25.38,3.64,24.34,16.16s-10.85,7.86-7.12,14.72a19,19,0,0,0,33.33,0c3.73-6.86-6.07-2.21-7.12-14.72s9.43-21.93,24.34-16.16c18.43,7.13,16,23.43,24.71,23.34a8.6,8.6,0,0,0,2.23-.33c.35-.57.67-1.19,1-1.82C462.49,587.49,460.65,587.69,459.17,585.89Z"/></g></svg>