<svg id="Assets" xmlns="http://www.w3.org/2000/svg" viewBox="0 0 800 800"><defs><style>.cls-1{fill:#f5c073;}.cls-2{fill:#ffdfa2;}.cls-3{fill:#ffc5c7;}.cls-4{opacity:0.29;}.cls-5{fill:#955422;}.cls-6{fill:#ac7a3b;}.cls-7{opacity:0.23;}.cls-8{fill:#ffe9c8;}.cls-9{fill:#ffcf81;}.cls-10{opacity:0.7;}.cls-11{fill:#c99252;}.cls-12{fill:#fff4e9;}.cls-13{opacity:0.53;}.cls-14{opacity:0.27;}.cls-15{fill:#e9b069;}.cls-16{fill:#e0a865;}.cls-17{fill:#ffeacc;}.cls-18{fill:#f7bc78;}.cls-19{fill:#ffeccf;}.cls-20{opacity:0.5;}.cls-21{opacity:0.59;}.cls-22{fill:#7b4105;}.cls-23{fill:#f6bd7b;}.cls-24{opacity:0.51;}</style></defs><g id="Forma_4590" data-name="Forma 4590"><path class="cls-1" d="M207.84,278.68c-1.75,2-26.94,24.37-94,14.78S23.86,381.58,92.3,387.55s120.38-54.87,120.38-54.87S209.59,276.7,207.84,278.68Z"/></g><g id="Forma_4610" data-name="Forma 4610"><path class="cls-2" d="M207.84,278.68c-1.75,2-26.94,24.37-94,14.78-51.22-7.33-76.62,47.74-55.47,77-10-20.83-3.69-59.36,31-62.21,49-4,68.19,4.6,120.48-17.57C209.09,283.26,208.4,278.05,207.84,278.68Z"/></g><g id="Forma_4592" data-name="Forma 4592"><path class="cls-3" d="M197.12,319.21s-11,11.42-53,16.88c-29.14,3.8-42.58-7.64-69.53-4.41-25,3-19.33,45.09,20.68,52.85,49.8,2.49,88.12-31.18,104.13-48.13,3.33-4.91,5.31-8.31,5.31-8.31Z"/></g><g id="Forma_4595" data-name="Forma 4595" class="cls-4"><path class="cls-5" d="M197.12,319.21s-11,11.42-53,16.88c-29.14,3.8-42.58-7.64-69.53-4.41-12.56,1.51-17.38,12.88-14,24.81,2.71-4.81,10.57-16,23.19-11.41,15.65,5.68,76,16.87,118.82-19.43Z"/></g><g id="Forma_4590-2" data-name="Forma 4590"><path class="cls-1" d="M697.21,293.46c-67.09,9.59-92.28-12.8-94-14.78s-4.84,54-4.84,54,51.93,60.85,120.37,54.87S764.39,283.84,697.21,293.46Z"/></g><g id="Forma_4610-2" data-name="Forma 4610"><path class="cls-2" d="M697.21,293.46c-67.09,9.59-92.28-12.8-94-14.78-.56-.63-1.25,4.58-1.93,12,52.28,22.17,71.48,13.54,120.47,17.57,34.65,2.85,41,41.38,30.95,62.21C773.82,341.2,748.43,286.13,697.21,293.46Z"/></g><g id="Forma_4592-2" data-name="Forma 4592"><path class="cls-3" d="M736.38,331.68c-27-3.23-40.39,8.21-69.53,4.41-42-5.46-53-16.88-53-16.88l-7.65,8.88s2,3.4,5.31,8.31c16,17,54.34,50.62,104.14,48.13C755.71,376.77,761.38,334.68,736.38,331.68Z"/></g><g id="Forma_4595-2" data-name="Forma 4595" class="cls-4"><path class="cls-5" d="M736.38,331.68c-27-3.23-40.39,8.21-69.53,4.41-42-5.46-53-16.88-53-16.88l-5.55,6.44c42.83,36.3,103.18,25.11,118.83,19.43,12.61-4.57,20.48,6.6,23.19,11.41C753.76,344.56,748.94,333.19,736.38,331.68Z"/></g><g id="Forma_4618" data-name="Forma 4618"><path class="cls-6" d="M445.5,85.07c-69.72-2.6-83.73,74.2-83.73,74.2,41.56,50.75,98.17,23.28,50-18.72C395.34,126.18,445.5,85.07,445.5,85.07Z"/></g><g id="Forma_4620" data-name="Forma 4620" class="cls-7"><path class="cls-8" d="M361.77,159.27c5.79,7.07,9.53,3.74,9.53,3.74s12.63-72.3,73.55-77.4l.65-.54C375.78,82.47,361.77,159.27,361.77,159.27Z"/></g><g id="Forma_4580_copia" data-name="Forma 4580 copia"><path class="cls-9" d="M671.49,494.17c-22.75-43.13-48.42-83.15-47-157.24s-64-88.15-64-88.15c-50-117.46-245.2-142.1-312.44,0,0,0-65.44,14.06-64,88.15S159.9,451,137.14,494.17s-2.65,83.52,5.79,93.94c0,0-.25-7.47,7.15-14.64,0,0,24.68,46,51,54.12a21.17,21.17,0,0,1,3.74-17.36s5.47,14.95,26.89,22.12c0,0,3.69,48.12,171.54,68.41h2c167.84-20.29,171.53-68.41,171.53-68.41,21.42-7.17,26.89-22.12,26.89-22.12a21.19,21.19,0,0,1,3.75,17.36c26.37-8.09,51-54.12,51-54.12,7.39,7.17,7.14,14.64,7.14,14.64C674.14,577.69,694.25,537.29,671.49,494.17Z"/></g><g id="Forma_4619_copia" data-name="Forma 4619 copia" class="cls-10"><path class="cls-11" d="M430.71,153.49a37,37,0,0,1,7.84,7c9.13,9.68,14.5,27.2,16.07,40.85,9.58-14,11.42-21.94,11.16-27.7a16.63,16.63,0,0,0-2.67-8.68c3.94,0,11.77,6.29,17,11.43a101.13,101.13,0,0,1,8.29,9.21,18.71,18.71,0,0,0,3.26-11.33A185,185,0,0,0,430.71,153.49Z"/></g><g id="Forma_4594" data-name="Forma 4594"><path class="cls-12" d="M157.56,555.09c-2.31,3.9-7,15-7.4,18.53,1.55,2.85,25,45.28,50.21,53.72C157.93,596.11,158.59,557.23,157.56,555.09Zm187.2-394.46c-48.14,15.71-78.33,51.34-94.62,84.06l10.55-1.36S289.43,186.1,344.76,160.63Zm-95.87,87c-.27.39-.53.79-.79,1.19,0,0-65.44,14.06-64,88.15S159.9,451,137.14,494.17s-2.65,83.52,5.79,93.94c0,0,0-.2,0-.57-4-10.37-11.22-34.41-9.54-49.81,3.45-31.54,19.93-55,38.46-95.29S192.08,362.1,193,322.63s55.14-99.19,151.46-44.92C344.42,277.71,308.68,236.14,248.89,247.59ZM210.66,584a43.05,43.05,0,0,0-5.87,26.32l.08-.11s1.95,5.33,8.09,11.16C208.29,603.37,210.66,584,210.66,584Zm21,48.3.09,0s.45,5.89,8.22,14.41C236.09,616.64,255.24,568,255.24,568,236.81,601.77,232.17,621.48,231.67,632.32Z"/></g><g id="Forma_4590-3" data-name="Forma 4590"><path class="cls-11" d="M226.9,630.48q2.28,1,4.86,1.87s-2.2-6.21,12.25-41.86C244,590.49,229.73,606.8,226.9,630.48Zm24.6-388.17a28.6,28.6,0,0,0-3.4,6.47s36.09-3.79,77.6,13.61C325.7,262.39,289.87,239.85,251.5,242.31Z"/></g><g id="Forma_4594_copia" data-name="Forma 4594 copia" class="cls-13"><path class="cls-11" d="M595.67,621.39c6.14-5.83,8.09-11.16,8.09-11.16l.08.11A43.11,43.11,0,0,0,598,584S600.35,603.37,595.67,621.39Zm-27,25.37c7.77-8.52,8.22-14.41,8.22-14.41l.1,0c-.51-10.84-5.15-30.55-23.58-64.29C553.39,568,572.55,616.64,568.65,646.76ZM671.49,494.17c-22.75-43.13-48.42-83.15-47-157.24s-64-88.15-64-88.15c-.26-.4-.53-.8-.8-1.19-59.78-11.45-95.52,30.12-95.52,30.12,87.3-48.86,143.08-6.14,149.07,39.82,3.46,26.54,5,84.6,23.49,124.91S671.5,518,675.23,537.73c2.88,15.22-5.51,39.44-9.54,49.81,0,.37,0,.57,0,.57C674.14,577.69,694.25,537.29,671.49,494.17ZM608.26,627.34c25.21-8.44,48.67-50.87,50.21-53.72-.37-3.5-5.09-14.63-7.4-18.53C650,557.23,650.7,596.11,608.26,627.34Z"/></g><g id="Forma_4590_copia" data-name="Forma 4590 copia"><path class="cls-12" d="M466.94,282.81c58.59-21.08,77.6-13.61,77.6-13.61C520.63,242.65,466.94,282.81,466.94,282.81Z"/></g><g id="Forma_4590_copia_2" data-name="Forma 4590 copia 2"><path class="cls-11" d="M581.74,630.48c-2.84-23.68-17.12-40-17.12-40,14.45,35.65,12.25,41.86,12.25,41.86C578.6,631.77,580.21,631.15,581.74,630.48Z"/></g><g id="Forma_4619_copia_2" data-name="Forma 4619 copia 2"><path class="cls-6" d="M404.49,123.12a42.18,42.18,0,0,0-14.73,19.52c-1.9,5.35-1.41,7.89-2.18,8,8.93,1.18,21.8.89,32.8,9.1,11.12,7.32,20.38,23.13,25.06,36,6.08-15.87,6.05-24,4.47-29.52-1.47-5-4.29-7.68-4.6-7.83,3.84-.91,12.91,3.41,19.17,7.2a102.82,102.82,0,0,1,10.19,7.05c3.77-9.61-1.59-19.49-8.1-25.95a50.09,50.09,0,0,0-14-9.83c15.39-11,31.25-11.86,32-11.76-11-7.77-28.34-13-43.33-13.05C425.91,111.82,413,116.69,404.49,123.12Z"/></g><g id="Forma_4621" data-name="Forma 4621" class="cls-14"><path class="cls-8" d="M441.19,112.13c-15.28-.31-28.21,4.56-36.7,11a42.18,42.18,0,0,0-14.73,19.52c-1.9,5.35-1.41,7.89-2.18,8,.16,0,.32,0,.49.06,6.86-10.77,27.64-34.84,76.29-35A83.4,83.4,0,0,0,441.19,112.13Zm6.2,48.76a27.75,27.75,0,0,0-2.1-2.42h0c-6-6.15-15.9-10.75-32.12-10.44,0,0,27.4,7.4,37.48,28.19a26.52,26.52,0,0,0-.74-9.92A19.87,19.87,0,0,0,447.39,160.89Zm-39.67-17.62s33.82-4.84,54.79-.14a50.46,50.46,0,0,0-9-5.71C442.29,134.51,426.69,134.19,407.72,143.27Z"/></g><g id="Forma_4589_copia" data-name="Forma 4589 copia"><path class="cls-15" d="M547,363.76c-71.24-10-96.13,60.26-95.33,103.68,1,55.33,51.29,75.09,114.82,54.49C645.58,496.28,612.2,372.91,547,363.76Zm-298.6,0c-65.22,9.15-98.6,132.52-19.49,158.17,63.53,20.6,113.81.84,114.82-54.49C344.51,424,319.62,353.77,248.38,363.76Z"/></g><g id="Forma_4583_copia" data-name="Forma 4583 copia"><path class="cls-16" d="M446.21,486.45c-10.33-97.46-44-102.64-48.91-102.88h-.6c-4.92.24-38.58,5.42-48.91,102.88C340.88,551.65,453.12,551.65,446.21,486.45Z"/></g><g id="Forma_4583_copia_3" data-name="Forma 4583 copia 3"><path class="cls-17" d="M355.28,485.43c8.42-79.45,32.34-97.58,43.56-101.69a13.85,13.85,0,0,0-1.54-.17h-.6c-4.92.24-38.58,5.42-48.91,102.88-4,37.71,31.86,53.61,61.48,47.7C381.46,536.24,351.61,520,355.28,485.43Z"/></g><g id="Forma_4582" data-name="Forma 4582"><path class="cls-18" d="M486.69,542.17c-1.23-19.91-18.87-26.55-18.87-26.55-28.93-47.61-68.64-47.06-71.16-47-2.58-.09-43.26-.64-72.18,47,0,0-17.65,6.64-18.88,26.55,0,0-44.17,42.09-35.19,106.52s54.55,121,126.12,121.16h.26c71.57-.14,116.13-56.8,125.1-121.16S486.69,542.17,486.69,542.17Z"/></g><g id="Forma_4593" data-name="Forma 4593"><path class="cls-19" d="M270.41,648.69a158.79,158.79,0,0,0,23.74,64.72C247.08,606.33,307.2,553.74,307.2,553.74l-4-9.06C294.09,554.62,262.71,593.44,270.41,648.69Zm113.5-178.63c-14.88,3.17-39.85,13.33-59.43,45.56a32.41,32.41,0,0,0-13.68,11.16c5.81-5.55,15.76-12.91,39.6-2,0,0-10.74-10.35-17.6-10.55A102,102,0,0,1,383.91,470.06Z"/></g><g id="Forma_4586" data-name="Forma 4586" class="cls-20"><path class="cls-11" d="M305.69,541.08c0,.36-.07.72-.09,1.09,0,0-1.61,1.53-4.15,4.46,7.51,25.19,39,29.57,39,29.57C314.68,564.41,307.62,548.62,305.69,541.08Zm76.84,25.58c-30.41-17.86-56.26-52.74-66-37.77-13.22,20.22,20.58,35.79,56.86,46.62C392.72,581.3,393.25,573,382.53,566.66Zm16.68,28.25c-.43-11.08-2-18.22-3.22-.33-.86,12.4.17,51.59,1,76.57.7,22.25,1.72,9.56,2.6.34Z"/></g><g id="Elipse_4587" data-name="Elipse 4587" class="cls-21"><path class="cls-11" d="M333.37,596.71a5.68,5.68,0,0,0-3.62-2.76c-3.78-1.1-7.31.87-5.37,3.77s6.32,3,8.08,1.84A2.24,2.24,0,0,0,333.37,596.71Z"/></g><g id="Elipse_4587_copia" data-name="Elipse 4587 copia" class="cls-21"><path class="cls-11" d="M311.64,614.27a5.31,5.31,0,0,0-3.41-3.48c-4-1.59-8.59.39-7.14,3.91s6.44,4,8.76,2.79A3,3,0,0,0,311.64,614.27Z"/></g><g id="Elipse_4587_copia_2" data-name="Elipse 4587 copia 2" class="cls-21"><path class="cls-11" d="M307.16,590.58a7.36,7.36,0,0,0-3.57-5.19c-4.38-2.62-9.55-.33-8.15,4.7s6.91,6.18,9.55,4.77A4.27,4.27,0,0,0,307.16,590.58Z"/></g><g id="Forma_4585" data-name="Forma 4585"><path class="cls-22" d="M339.29,542.85c-9.45-8.09-19.63-10.28-17.91-3.07s16.12,18.29,29.43,19.74c0,0,26.47,13.17,31,13.28C381.85,572.8,348.74,550.93,339.29,542.85Z"/></g><g id="Forma_4593-2" data-name="Forma 4593"><path class="cls-23" d="M489.1,544.68l-4,9.06s60.13,52.59,13.05,159.67c12.41-19,20.49-41.35,23.75-64.72C529.59,593.44,498.2,554.62,489.1,544.68Zm-21.28-29.06c-19.58-32.23-44.55-42.39-59.44-45.56a102,102,0,0,1,51.12,44.2c-6.86.2-17.6,10.55-17.6,10.55,23.84-10.94,33.78-3.58,39.59,2A32.36,32.36,0,0,0,467.82,515.62Z"/></g><g id="Forma_4586-2" data-name="Forma 4586" class="cls-24"><path class="cls-11" d="M486.69,542.17c0-.37-.05-.73-.08-1.09-1.93,7.54-9,23.33-34.79,35.12,0,0,31.52-4.38,39-29.57C488.31,543.7,486.69,542.17,486.69,542.17Zm-10.87-13.28c-9.54-15-41.7,21.79-64,37.09-10.25,7-10.86,16.34,8.51,10.55C456.6,565.7,488.75,549.3,475.82,528.89Z"/></g><g id="Elipse_4587-2" data-name="Elipse 4587" class="cls-21"><path class="cls-11" d="M462.54,594a5.71,5.71,0,0,0-3.62,2.76,2.26,2.26,0,0,0,.91,2.85c1.77,1.15,6.17,1,8.08-1.84S466.32,592.85,462.54,594Z"/></g><g id="Elipse_4587_copia-2" data-name="Elipse 4587 copia" class="cls-21"><path class="cls-11" d="M484.07,610.79a5.27,5.27,0,0,0-3.41,3.48,3,3,0,0,0,1.79,3.22c2.32,1.18,7.32.67,8.76-2.79S488.1,609.2,484.07,610.79Z"/></g><g id="Elipse_4587_copia_2-2" data-name="Elipse 4587 copia 2" class="cls-21"><path class="cls-11" d="M488.71,585.39a7.37,7.37,0,0,0-3.58,5.19,4.28,4.28,0,0,0,2.18,4.28c2.64,1.41,8.16.19,9.54-4.77S493.09,582.77,488.71,585.39Z"/></g><g id="Forma_4585-2" data-name="Forma 4585"><path class="cls-22" d="M455.39,543.87c-9.46,8.08-42.56,30-42.56,30,4.57-.11,31-13.27,31-13.27,13.31-1.46,27.72-12.53,29.43-19.74S464.84,535.78,455.39,543.87Z"/></g></svg>