<svg id="Assets" xmlns="http://www.w3.org/2000/svg" viewBox="0 0 800 800"><defs><style>.cls-1{fill:#db7438;}.cls-2{fill:#a9521e;}.cls-3{fill:#c96225;}.cls-4{opacity:0.71;}.cls-5{fill:#ff9c67;}.cls-6{fill:#d36a2d;}.cls-7{fill:#dbb299;}.cls-8{opacity:0.9;}.cls-9{fill:#9e6e50;}.cls-10{fill:#bd9075;}.cls-11{fill:#a47657;}.cls-12{fill:#e4bca3;}.cls-13{fill:#d3a98d;}.cls-14{fill:#fad6bf;}.cls-15{fill:#cb9d81;}.cls-16{opacity:0.65;}.cls-17{fill:#290a0c;}.cls-18{fill:#592c30;}.cls-19{fill:#deb4b9;}.cls-20{fill:#996569;}.cls-21{fill:#41181a;}.cls-22{opacity:0.62;}</style></defs><g id="Forma_5311" data-name="Forma 5311"><path class="cls-1" d="M236.38,272c-7.45-12.45-88.49-75.43-134.67-156.43S55.27,34.79,45.08,16.48,24.38,7.6,26.77,38.58,36.1,77.25,36.1,77.25,26.19,71,22.63,65.17,10.45,57.21,17.1,90s25.21,60.08,25.21,60.08-23.72-4.4-25.9-7.25,11.86,25.47,24.87,34.88a79.38,79.38,0,0,0-14.51-.69,270.81,270.81,0,0,1,21.07,20.72s23.07,59.31,64.92,87.71,84.6,30.84,107.74,23.82S243.84,284.46,236.38,272Z"/></g><g id="Forma_5312" data-name="Forma 5312"><path class="cls-2" d="M235,294.8c-61.14,5.44-93.68-22.44-135-71.82S58.22,95.7,44,48.24c-6.49-21.7-11.31-25.13-17.6-16.77q0,3.33.33,7.11c2.39,31,9.33,38.67,9.33,38.67S26.19,71,22.63,65.17,10.45,57.21,17.1,90s25.21,60.08,25.21,60.08-23.72-4.4-25.9-7.25,11.86,25.47,24.87,34.88a79.38,79.38,0,0,0-14.51-.69,270.81,270.81,0,0,1,21.07,20.72s23.07,59.31,64.92,87.71,84.6,30.84,107.74,23.82c10.58-3.2,16.36-8.68,18.81-14.86Z"/></g><g id="Forma_5311_copia" data-name="Forma 5311 copia"><path class="cls-1" d="M757.12,142.86c-2.17,2.85-25.9,7.25-25.9,7.25S749.77,122.84,756.43,90s-2-30.7-5.53-24.86-13.46,12.08-13.46,12.08,6.93-7.7,9.32-38.67-8.11-40.42-18.3-22.1-10.45,18.1-56.63,99.1S544.61,259.56,537.15,272,529.9,302.29,553,309.3s65.89,4.58,107.74-23.82,64.92-87.71,64.92-87.71a269.66,269.66,0,0,1,21.06-20.72,79.31,79.31,0,0,0-14.5.69C745.26,168.33,759.29,140,757.12,142.86Z"/></g><g id="Forma_5312_copia" data-name="Forma 5312 copia"><path class="cls-2" d="M757.12,142.86c-2.17,2.85-25.9,7.25-25.9,7.25S749.77,122.84,756.43,90s-2-30.7-5.53-24.86-13.46,12.08-13.46,12.08,6.93-7.7,9.32-38.67q.29-3.78.33-7.11c-6.28-8.36-11.11-4.93-17.6,16.77C715.31,95.7,714.89,173.59,673.55,223s-73.87,77.26-135,71.82l-4.31-.36c2.45,6.18,8.23,11.66,18.82,14.86,23.14,7,65.89,4.58,107.74-23.82s64.92-87.71,64.92-87.71a269.66,269.66,0,0,1,21.06-20.72,79.31,79.31,0,0,0-14.5.69C745.26,168.33,759.29,140,757.12,142.86Z"/></g><g id="Forma_5305" data-name="Forma 5305"><path class="cls-1" d="M677,551.37s34-3.15,40.74,2.07c0,0-18.26-24.83-33.84-27.62,0,0,28-15.26,26.94-26.94,0,0-25.13,3.21-30.74-8.28,0,0,23.78-11.25,26.25-26.94,0,0-24.22,4.25-37-7.6S629,434.51,627.63,435c0,0,5.14-112.27-24.18-154.36s-127.9-68.71-201-68.71S242,233.54,213.59,270.28s-39.51,79.8-35.91,165.07c0,0-17.09,4.55-28.32,13.46s-40,13.11-47.31,8.64c0,0,4.18,28.95,23.83,33.15,0,0-19.28,11.27-31.42,10.36,0,0,7.22,16,27.28,24.17,0,0-27.24,9-33.5,28.31,0,0,28.2-7.94,40.4-.69,0,0-17.58,3.51-28.31,16.58,0,0,20.25.53,33.49,12.08s17.36,43.64,54.22,65.27,147.28,61.62,214.09,59.39c69.84-2.32,171.52-38.4,208.23-58.7S655,571.13,703.94,570C703.94,570,692.82,553.88,677,551.37Z"/></g><g id="Forma_5324" data-name="Forma 5324"><path class="cls-3" d="M683.91,525.82s26.66-14.55,27-26.11c-6.33,5.66-26.06,22.62-41.46,28.53,0,0,7.51-1.33,14.86-2.35Zm-3.7,26.26a28.49,28.49,0,0,0-3.2-.71s29.58-2.74,39,1.13c-6-4-20.52-11.64-42.13-9.42-18.95,1.85-26.59,7.6-26.59,7.6A149.75,149.75,0,0,1,680.21,552.08Zm-.1-61.48s23.78-11.25,26.25-26.94l-.1,0a75.66,75.66,0,0,1-34.09,25.53c2,.07,4.36,1.34,8.17,1.82ZM593.44,299.29c14.48,37.06,20.14,94.65,19.68,128.11,0,0,1.57,4.57,14.51,7.47.18-4.2,4.57-112.95-24.18-154.23-16.45-23.62-54.71-42.36-98-54.27C537.87,245.32,584.22,275.69,593.44,299.29Zm69.75,271.42C643.82,578.22,647,602.32,618.3,626S544.75,657,544.75,657l-23.48,5.18-3.39,21.48c39-11.89,74-26.11,92.48-36.33C647,627.11,655,571.39,703.6,570,692.47,566.53,678.17,564.9,663.19,570.71Z"/></g><g id="Forma_5315" data-name="Forma 5315" class="cls-4"><path class="cls-5" d="M124.61,553.85c-5.83,1.84-16.75,6.3-24.28,15.48h.37c14.24-6.91,48.66-17.62,48.66-17.62A88.68,88.68,0,0,0,124.61,553.85ZM121,525.38C116.69,527,93.9,536,88.24,553.44l.55-.15c11.32-12.33,55.05-28.51,55.05-28.51A95.84,95.84,0,0,0,121,525.38Zm4.86-34.78S106.6,501.87,94.46,501c0,0,.18.4.57,1.12,5.9,1.94,15.71,4,24.63.26,13.94-5.81,23.4-14,36.61-16.92,0,0-18.11,1.55-30.83,5.07Zm87.71-220.32c-28.38,36.75-39.51,79.8-35.91,165.07,0,0-17.09,4.55-28.32,13.46-11.07,8.79-39.16,13-47,8.82,5.83,5.79,16.91,11,37,4.3,35.35-11.86,35.05-18.47,51.45-20,0,0-11.42-94.56,20-151.25,16.66-30.05,32.38-42.76,51.21-53.16C240.75,246.39,223.54,257.4,213.59,270.28Z"/></g><g id="Forma_5303" data-name="Forma 5303"><path class="cls-2" d="M253,576.58c-2.27,6.14-20.81,22.86-5.78,95.86,8.31,2.82,17.27,5.6,26.94,8.32C263.83,658.55,242.38,606.27,253,576.58Z"/></g><g id="Forma_5303_copia" data-name="Forma 5303 copia"><path class="cls-2" d="M545.09,576.58c10.58,29.69-11.46,83.11-21.75,105.32,9.67-2.72,19.23-6.64,27.53-9.46C565.9,599.44,547.36,582.72,545.09,576.58Z"/></g><g id="Forma_5292_copia" data-name="Forma 5292 copia"><path class="cls-5" d="M509.87,361.45c-47.42,3.4-70.55,37.39-76.66,73.55-4.68,27.72,9,82.19,9,82.19,19.49,3.93,34.64,20.3,50.87,17.91,70.75-10.4,109.7-68.68,109.7-68.68S611.56,354.15,509.87,361.45Z"/></g><g id="Forma_5292_copia_2" data-name="Forma 5292 copia 2"><path class="cls-5" d="M358.62,435c-6.1-36.16-29.23-70.15-76.66-73.55-101.68-7.3-92.89,105-92.89,105s39,58.28,109.7,68.68c16.24,2.39,31.38-14,50.88-17.91C349.65,517.19,363.31,462.72,358.62,435Z"/></g><g id="Forma_5298_copia_2" data-name="Forma 5298 copia 2"><path class="cls-5" d="M266.08,629.07c-29.15-91,91.22-110.3,136.06-114.31v-1s-187.92,4.06-152.28,115.34c37.89,118.31,95.87,134.65,134,131.57C346.84,757.54,298.92,731.59,266.08,629.07Z"/></g><g id="Forma_5298_copia_3" data-name="Forma 5298 copia 3"><path class="cls-6" d="M393.16,513.73v1c44.84,4,165.21,23.3,136.06,114.31-32.84,102.52-80.76,128.47-117.79,131.57,38.14,3.08,96.13-13.26,134-131.57C581.08,517.79,393.16,513.73,393.16,513.73Z"/></g><g id="Forma_5306" data-name="Forma 5306"><path class="cls-3" d="M402.13,424.3c-62,0-82.18,173.34-82.18,173.34l153.75-.72C459.07,466.67,432.23,424.3,402.13,424.3Z"/></g><g id="Forma_5293_copia_2" data-name="Forma 5293 copia 2"><path class="cls-5" d="M318.57,597.64l9-4.83c11.89-113.95,40.36-151.39,59.4-164.18v-.19S333.9,450.62,318.57,597.64Z"/></g><g id="Forma_5302_copia" data-name="Forma 5302 copia"><path class="cls-7" d="M362.42,778.94s8.69,21,39.48,21.06H402c30.78-.06,39.47-22.1,39.47-22.1C417.08,764.27,385.47,765.42,362.42,778.94Z"/></g><g id="Elipse_5319" data-name="Elipse 5319" class="cls-8"><path class="cls-9" d="M362.42,778.94a27.61,27.61,0,0,0,4.05,6.25,126.53,126.53,0,0,0,32.9,4.11c14.79,0,28.36-2.25,39-6a27.55,27.55,0,0,0,3.17-5.41C417.08,764.27,385.47,765.42,362.42,778.94Z"/></g><g id="Forma_5301_copia" data-name="Forma 5301 copia"><path class="cls-10" d="M349.3,763.74s-4,12.51,18.65,18.3c24.76,6.32,40.62,5.53,63.54-.34,22.67-5.82,22.79-20.38,22.79-20.38C447,750.39,356.08,753.5,349.3,763.74Z"/></g><g id="Forma_5323" data-name="Forma 5323"><path class="cls-7" d="M399.72,760.63l-39.72,8-5.52.34s.62,7.45,12.43,8.63,64.66,3.9,78-7.94Z"/></g><g id="Forma_5322" data-name="Forma 5322"><path class="cls-11" d="M349.3,763.74a9.74,9.74,0,0,0,.25,5.54c8.39,1,25.86,1.63,50.51-5.88,0,0,24.88,9.68,49.63,8.18,4.55-5.29,4.59-10.26,4.59-10.26C447,750.39,356.08,753.5,349.3,763.74Z"/></g><g id="Forma_5299_copia" data-name="Forma 5299 copia"><path class="cls-12" d="M526.24,637.92c-12-49.81-61.81-41.06-61.81-41.06H335.69s-49.84-8.75-61.8,41.06,20.78,90.63,49.51,111.32c1.89,9.43,12.26,20.54,28,18.3,13.06-.2,34.05-7.24,51.11-10.36-3.64.67,25.23,9.56,49,11.05,14.32.9,31.95-11.93,26.94-20.37C505.8,725.37,538.2,687.72,526.24,637.92Z"/></g><g id="Forma_5325" data-name="Forma 5325"><path class="cls-13" d="M526.24,637.92c-12-49.81-61.81-41.06-61.81-41.06H375.79c-12.85,2.95-21.31,4.93-21.31,4.93a50.27,50.27,0,0,0-6-4.93H335.69s-.37-.07-1.05-.16c-2.43,5.73-1.39,19.44,7.75,48.25,5.71,18,50.88,32.69,73.9,29s76.2-33.13,75.63-63.54c3.88,5.48,42,50.05,5.1,120.09C518.08,707.9,535.52,676.57,526.24,637.92Zm-123.42,112s-36,12.53-64.83,16.13a25.76,25.76,0,0,0,13.38,1.48c13.06-.2,34.05-7.24,51.11-10.36-3.64.67,25.23,9.56,49,11.05,8.68.54,18.58-4,23.91-9.47C463.22,760.4,439,761,402.82,749.93Z"/></g><g id="Forma_5321" data-name="Forma 5321"><path class="cls-14" d="M326.64,596.27c-14.94.1-44,5.19-52.75,41.65-10.28,42.76,12.41,78.9,37.22,101.36C250,653,305,609.17,326.64,596.27Zm-3.23,153A22.79,22.79,0,0,0,329,759.85c2.22-10,22.7-17.17,22.7-17.17C337.28,743.93,328.11,747.16,323.41,749.29Z"/></g><g id="Forma_5317" data-name="Forma 5317"><path class="cls-15" d="M402.13,679.14c-4.37,13.29-3,64-2.55,78.6,1-.2,1.94-.38,2.9-.56-.89.16.17.82,2.64,1.75C407.43,724.19,402.27,680.71,402.13,679.14Z"/></g><g id="Elipse_5317_copia_2" data-name="Elipse 5317 copia 2" class="cls-16"><path class="cls-15" d="M329.54,690.34c-2.5.25-4.37,2-4.18,4s2.38,3.34,4.88,3.1,4.38-2,4.19-4S332.05,690.09,329.54,690.34Zm18.95,11.95c-2.19.22-3.83,1.78-3.66,3.49s2.08,2.91,4.27,2.7,3.82-1.78,3.65-3.48S350.67,702.08,348.49,702.29Zm19.24-11.19c-1.66.17-2.91,1.35-2.78,2.65s1.58,2.22,3.24,2,2.91-1.34,2.78-2.64S369.39,690.94,367.73,691.1ZM350.9,679.16c-2.18.21-3.82,1.77-3.65,3.48s2.08,2.92,4.26,2.7,3.83-1.77,3.66-3.48S353.09,678.94,350.9,679.16Zm30.35,29c-1.86.18-3.25,1.51-3.11,3s1.77,2.48,3.62,2.29,3.25-1.5,3.11-3S383.1,708,381.25,708.16Z"/></g><g id="Elipse_5317_copia_3" data-name="Elipse 5317 copia 3" class="cls-16"><path class="cls-15" d="M424.4,708.16c-1.86-.18-3.48.84-3.62,2.29s1.25,2.78,3.1,3,3.48-.84,3.62-2.29S426.26,708.34,424.4,708.16Zm13.52-17.06c-1.66-.16-3.11.76-3.24,2.06s1.12,2.48,2.78,2.64,3.11-.75,3.24-2S439.58,691.27,437.92,691.1Zm19.24,11.19c-2.19-.21-4.09,1-4.26,2.71s1.46,3.26,3.65,3.48,4.1-1,4.27-2.7S459.35,702.51,457.16,702.29Zm18.94-11.95c-2.5-.25-4.69,1.14-4.88,3.1s1.68,3.74,4.19,4,4.68-1.14,4.88-3.1S478.61,690.59,476.1,690.34Zm-17.7-7.7c.17-1.71-1.47-3.27-3.66-3.48s-4.09,1-4.26,2.7,1.47,3.27,3.65,3.48S458.23,684.35,458.4,682.64Z"/></g><g id="Elipse_5299" data-name="Elipse 5299"><ellipse class="cls-17" cx="364.55" cy="629.08" rx="26.51" ry="17.26"/></g><g id="Elipse_5299_copia" data-name="Elipse 5299 copia"><ellipse class="cls-17" cx="440.1" cy="629.08" rx="26.51" ry="17.26"/></g><g id="Forma_5294_copia" data-name="Forma 5294 copia"><path class="cls-18" d="M471.91,581.79c-18.8-9.48-31.18,8.24-73.4,8.28s-54.59-17.76-73.39-8.28c-16.67,8.4-8.15,53,9.61,62.14,15.63,8,26.82,5.49,26.17,0,0,0-12.83-1.69-14.91-12.09-3.22-16.13,29-3,29.49,2.07s-10.6,6.56-10.6,6.56a56.68,56.68,0,0,0,11.6,12.08c7.2,11.2,19.7,13.74,21.87,14.11v.05l.16,0,.17,0v-.05c2.17-.37,14.66-2.91,21.87-14.11a56.68,56.68,0,0,0,11.6-12.08s-11.08-1.45-10.61-6.56,32.72-18.2,29.5-2.07c-2.08,10.4-14.92,12.09-14.92,12.09-.64,5.49,10.55,8,26.18,0C480.06,634.8,488.58,590.19,471.91,581.79Z"/></g><g id="Forma_5297" data-name="Forma 5297"><path class="cls-19" d="M378.14,602.85s-34.65-16.55-43.74-10.36-12.45,5-12.93,15.54c0,0,9.27-9.82,19.55-10.71S369.77,603.52,378.14,602.85Zm7.29,30c.2,9.52-10.61,11.74-10.61,11.74C390.35,644.47,385.46,633.51,385.43,632.88Z"/></g><g id="Forma_5297_copia" data-name="Forma 5297 copia"><path class="cls-19" d="M411.93,632.88c0,.63-4.92,11.59,10.61,11.74C422.54,644.62,411.73,642.4,411.93,632.88Z"/></g><g id="Forma_5296_copia" data-name="Forma 5296 copia"><path class="cls-20" d="M472.24,581.79c-18.83-9.49-31.21,8.29-73.56,8.29S344,572.3,325.12,581.79c-11.79,5.94-11,30-3.21,46.8-1.33-10-1-24.77,8.18-30.58,17.89-11.34,35.39,4.29,46.72,4.84,10,.48,17.31,1.1,21.87,1.12s11.84-.64,21.87-1.12c11.33-.55,28.83-16.18,46.72-4.84,9.15,5.81,9.51,20.61,8.18,30.58C483.22,611.78,484,587.73,472.24,581.79Z"/></g><g id="Forma_5295" data-name="Forma 5295"><path class="cls-21" d="M383.11,631.84c-2.76-10.26-36.1-28.93-44.41-10.7-7.26,16,16.17,22.48,22.17,23.87a3.53,3.53,0,0,0,0-1.08s-12.83-1.69-14.91-12.09c-3.22-16.13,29-3,29.49,2.07s-10.6,6.56-10.6,6.56a62,62,0,0,0,4,4.93C376.22,644.21,385.15,639.45,383.11,631.84Z"/></g><g id="Forma_5295_copia" data-name="Forma 5295 copia"><path class="cls-21" d="M458.33,621.14c-8.31-18.23-41.65.44-44.41,10.7-2,7.61,6.89,12.37,14.26,13.56a62,62,0,0,0,4-4.93s-11.08-1.45-10.61-6.56,32.72-18.2,29.5-2.07c-2.08,10.4-14.92,12.09-14.92,12.09a3.87,3.87,0,0,0,0,1.08C442.16,643.62,465.59,637.09,458.33,621.14Z"/></g><g id="Forma_5291" data-name="Forma 5291"><path class="cls-1" d="M448.14,171.25s-18.56,14.92-16.82,30.23c.05-3.82-12.64-33-8.46-48.42,0,0-19.78,8.27-18.25,21.83,0,0-16.33-27.27-19.43-46.48,0,0-25.11,25.15-13.63,67.18,0,0-19.18-26.65-35-49.39,0,0-15.68,32.33,3.21,67.07,0,0-16.56-6.23-33-30.2,0,0-6.14,45,22.73,55.39s110.83-25.18,126.25-15.75C455.75,216.26,442,186.23,448.14,171.25Z"/></g><g id="Forma_5316" data-name="Forma 5316" class="cls-22"><path class="cls-5" d="M307.51,184.25l-.82-1.18s-4.24,31.14,10.93,47.58c8.92,3.61,15.8,2,15.8,2C316.22,223.35,309.73,197.25,307.51,184.25Zm29-38.05s-15.68,32.33,3.21,67.07l-.21-.09.11.13c15.16,16.2,26.94,18.3,26.94,18.3s-23.18-30.94-29.75-85Zm94.7,53.94a27.86,27.86,0,0,0,4.06,8.33s3.19-25.88,12.51-36.3c.11-.31.22-.62.35-.92C448.14,171.25,430.65,185.31,431.22,200.14Zm-26.61-25.25-.16-.29c0,.12.06.25.1.38,5.54,18.24,10.36,22.79,10.36,22.79s-4.9-28.92,7.84-44.66C421.27,153.75,403.14,161.88,404.61,174.89Zm-19.56-46.35c-1.87,2-23.54,25.73-14.15,64.49.27.66.55,1.32.85,2,9.95,21.8,23.48,19,23.48,19S375.63,182.6,385.05,128.54Z"/></g></svg>