<svg id="Assets" xmlns="http://www.w3.org/2000/svg" viewBox="0 0 800 800"><defs><style>.cls-1{fill:#992602;}.cls-2{fill:#ac320b;}.cls-3{opacity:0.39;}.cls-4{fill:#ffe3d3;}.cls-5{fill:#ce632c;}.cls-6{fill:#6f1800;}.cls-7{fill:#541300;}.cls-8{opacity:0.75;}.cls-9{fill:#a3431d;}.cls-10{fill:#dd9781;}.cls-11{fill:#fcece0;}.cls-12{fill:#fff;}.cls-13{opacity:0.59;}</style></defs><g id="Forma_4018" data-name="Forma 4018"><path class="cls-1" d="M659.85,445.09c12.42,36.46,35.88,37.26,35.88,37.26-20.23-12.14-27.14-62.93-26.57-121.79s-20-91.43-20-91.43l-47.61-10C623.79,314.05,618.44,512,618.44,512c25,56,81.43,34.84,81.43,34.84C658.39,521.23,659.85,445.09,659.85,445.09Z"/></g><g id="Forma_4018_copia" data-name="Forma 4018 copia"><path class="cls-1" d="M201,259.12l-47.61,10s-20.59,32.57-20,91.43S127,470.21,106.77,482.35c0,0,23.46-.8,35.88-37.26,0,0,1.46,76.14-40,101.78,0,0,56.41,21.13,81.42-34.84C184.05,512,178.71,314.05,201,259.12Z"/></g><g id="Forma_4018_copia_3" data-name="Forma 4018 copia 3"><path class="cls-2" d="M156.11,445.09c-4.27,12.52-9.83,20.83-15.3,26.36-3.33,24.52-12.57,59.6-38.18,75.42a76.86,76.86,0,0,0,31,3.6,73.45,73.45,0,0,1-17.5-3.6C157.57,521.23,156.11,445.09,156.11,445.09Zm-2.76-176s-20.59,32.57-20,91.43S127,470.21,106.77,482.35c0,0,15.86-.54,28.41-21,8.79-22.84,12-59.86,11.61-100.78-.57-58.86,20-91.43,20-91.43l33-6.94c.38-1.06.76-2.09,1.16-3.07Z"/></g><g id="Forma_4015_copia" data-name="Forma 4015 copia"><path class="cls-1" d="M594.64,185.29s-5.38-26.46-74.53-71.43-109.84-24.54-138-39.33c0,0,5.24,8.22,7.94,13.8,0,0-11.42-1.81-40.72,1s-62.46-2-70-5.87c0,0,.86,17,10,24.15A157.45,157.45,0,0,0,262,110.76c-14.08,2.9-44.85-4.49-44.85-4.49s6,18.27,23.8,23.12l331.58,99.37,29.32-30.71Z"/></g><g id="Forma_4016" data-name="Forma 4016" class="cls-3"><path class="cls-4" d="M217.2,106.33c.37,1.08,6.56,18.36,23.78,23.06l9.33,2.8a82.87,82.87,0,0,1,19-4.52C244.58,130.17,224,112.9,217.2,106.33ZM279.71,83.7l-.43-.2s.85,16.77,9.8,24c14.81,1.19,30.92-.87,30.92-.87C291.15,102.73,282.36,90.2,279.71,83.7Zm102.42-9.13c.38.61,5.21,8.24,7.82,13.59a170.52,170.52,0,0,1,22.51,4S391.12,83.12,382.13,74.57Z"/></g><g id="Forma_1309" data-name="Forma 1309"><path class="cls-5" d="M703.13,102.12c-8.84-3.28-12.17-1.94-20.76,6.39-9,8.48-23.17,23.94-62.24,52.49-32.46,24-45.18,40-51,50.52-5.63,10.42-4.37,15.35-4.4,15.36,1.82,13.2,17.78,68.29,71,58.18,28.81-5.56,48.17-34.2,60-64.63,12.13-30.56,12.4-61.06,12.5-74.39C709.73,126.19,717.34,108.37,703.13,102.12Z"/></g><g id="Forma_1309_copia" data-name="Forma 1309 copia"><path class="cls-6" d="M707,120.79c-3.12,1.48-7,4.56-12.15,10.48-10.35,11.35-26.07,36.58-51.76,81.41-22.12,38-32.77,40.92-38.17,44.1-5.35,1.65-5.47,3.57-5.49,4.2a57,57,0,0,0-.45,13.71c.14,1.93.35,4,.66,6,9.51,4.93,21.38,7.13,36.12,4.33,28.81-5.56,48.17-34.2,60-64.63a178.76,178.76,0,0,0,11.16-47.21c.2-2.95.31-5.57.36-7.81a44.55,44.55,0,0,1,.71-6.87c.21-5,.24-9.27.27-12.5.71-9.37,2.79-18.28,3.28-25.74A5.91,5.91,0,0,0,707,120.79Z"/></g><g id="Forma_4014" data-name="Forma 4014"><path class="cls-7" d="M707,120.79c-3.12,1.48-7,4.56-12.15,10.48-10.35,11.35-26.07,36.58-51.76,81.41-22.12,38-32.77,40.92-38.17,44.1-5.35,1.65-5.47,3.57-5.49,4.2s-.2,1.12-.29,1.83l10.36,14.25c55.76-15.67,56.62-45.53,67.63-88.32s27.91-64.27,32.78-67.63c.4-.28.81-.59,1.23-.92A6.24,6.24,0,0,0,707,120.79Z"/></g><g id="Forma_1309_copia_2" data-name="Forma 1309 copia 2"><path class="cls-5" d="M242.34,211.52C236.52,201,223.8,185,191.34,161c-39.07-28.55-53.28-44-62.24-52.49-8.59-8.33-11.92-9.67-20.76-6.39-14.21,6.25-6.6,24.07-5.08,43.92.1,13.33.37,43.83,12.5,74.39,11.81,30.43,31.17,59.07,60,64.63,53.22,10.11,69.18-45,71-58.18C246.71,226.87,248,221.94,242.34,211.52Z"/></g><g id="Forma_1309_copia_2-2" data-name="Forma 1309 copia 2"><path class="cls-6" d="M212.06,261c0-.63-.13-2.55-5.48-4.2-5.4-3.18-16.05-6.08-38.17-44.1-25.69-44.83-41.41-70.06-51.76-81.41-5.17-5.92-9-9-12.15-10.48a5.91,5.91,0,0,0-4.52-.49c.5,7.46,2.57,16.37,3.28,25.74,0,3.23.06,7.48.27,12.5a44.55,44.55,0,0,1,.71,6.87c.05,2.24.16,4.86.36,7.81a178.76,178.76,0,0,0,11.16,47.21c11.81,30.43,31.17,59.07,60,64.63,14.74,2.8,26.61.6,36.12-4.33.31-2.06.52-4.11.66-6A56.33,56.33,0,0,0,212.06,261Z"/></g><g id="Forma_4014_copia" data-name="Forma 4014 copia"><path class="cls-7" d="M212.06,261c0-.63-.13-2.55-5.48-4.2-5.4-3.18-16.05-6.08-38.17-44.1-25.69-44.83-41.41-70.06-51.76-81.41-5.17-5.92-9-9-12.15-10.48a6.24,6.24,0,0,0-4.14-.6c.42.33.83.64,1.23.92,4.87,3.36,21.77,24.83,32.78,67.63s11.87,72.65,67.63,88.32l10.36-14.25C212.27,262.1,212.17,261.48,212.06,261Z"/></g><g id="Forma_21" data-name="Forma 21"><path class="cls-5" d="M644.64,545c-15.09-40.3-2.78-81.93-1.14-117.31.9-19.43,20.27-262.48-238.85-262.48,0,0-154.06-.23-211,104.69-38.4,70.69-33.89,146.92-28.15,170.85,8.53,35.54,19.84,58.16-.35,109.35-54,137,106.21,212.62,239.37,212.62C495.56,762.75,706.38,709.83,644.64,545Z"/></g><g id="Forma_21_copia_13" data-name="Forma 21 copia 13" class="cls-8"><path class="cls-9" d="M644.64,545c-15.09-40.3-2.78-81.93-1.14-117.31.77-16.64,15.07-197.23-143.52-248.8,142.49,57.8,129.08,227.19,128.34,243.28-1.64,35.38-14,77,1.14,117.31,61.74,164.8-149.08,217.72-240.18,217.72a377.39,377.39,0,0,1-118-19.14c41.45,16.26,88.83,24.66,133.2,24.66C495.56,762.75,706.38,709.83,644.64,545Z"/></g><g id="Forma_21_copia_12" data-name="Forma 21 copia 12"><path class="cls-10" d="M404.65,165.24s-154.06-.23-211,104.69c-38.4,70.69-33.89,146.92-28.15,170.85,8.53,35.54,19.84,58.16-.35,109.35-29.17,74,4.13,130.06,61.91,166-47.25-36-71.6-88-45.35-154.62,20.19-51.19,8.88-73.8.35-109.35-5.74-23.92-10.25-100.15,28.15-170.84,57-104.92,211.05-104.69,211.05-104.69,60.94,0,106.47,13.44,140.46,34.25C526.35,183.72,476.08,165.24,404.65,165.24Z"/></g><g id="Rectángulo_1306" data-name="Rectángulo 1306"><path class="cls-11" d="M555.55,583c-13.06-25.89-35.45-41-66.52-44-59.13-6.3-111.37-7.64-170.06,0-30.9,3.46-53.49,18.54-66.44,44.15-12.6,26.12-15.75,58.74-.55,96.83,12,30.84,37.06,56.55,59.76,72.35,23.1,16.21,44.17,20.93,56.57,24.07,26.5,5.87,39.1,5.69,66.45.71,13.07-2.33,35.44-9.08,59.7-26.08,23.88-16.73,49.83-42.29,61.95-71.6C571.73,642.73,568.23,609.11,555.55,583Z"/></g><g id="Forma_4012_copia" data-name="Forma 4012 copia"><path class="cls-11" d="M451.58,558.77c-30.41-57.85,2.61-126.47-17.79-158.09-18.78-29.11-22.15-53.92-35.3-53.92a1.49,1.49,0,0,1-1.38,0c-13.15,0-15.52,24.82-33.11,53.92-19.1,31.62,10.74,87.19-11.34,158.09C336.16,566,465.9,564.92,451.58,558.77Z"/></g><g id="NOSE1_copia_2" data-name="NOSE1 copia 2"><ellipse class="cls-11" cx="311.54" cy="557.91" rx="26.29" ry="23.54" transform="translate(-155.79 122.1) rotate(-17.82)"/></g><g id="NOSE1_copia_6" data-name="NOSE1 copia 6"><path class="cls-12" d="M314.37,534.12c-14.31-.58-27.16,9.6-28.73,22.74a21.34,21.34,0,0,0,8,19.37,21.14,21.14,0,0,1-4.56-15.92c1.57-13.14,14.43-23.32,28.73-22.74A25.51,25.51,0,0,1,332.88,543,24.76,24.76,0,0,0,314.37,534.12Z"/></g><g id="NOSE1_copia_4" data-name="NOSE1 copia 4"><path class="cls-6" d="M317.72,550.17c-8.85-.36-16.81,5.93-17.77,14a13,13,0,0,0,1.25,7.38,92.34,92.34,0,0,1,24.59-5.43c2.1-.19,4.16-.3,6.15-.35,0-.1,0-.2,0-.3C333,557.39,326.56,550.53,317.72,550.17Z"/></g><g id="NOSE1_copia_5" data-name="NOSE1 copia 5"><ellipse class="cls-11" cx="473.02" cy="559.98" rx="23.54" ry="26.29" transform="translate(-204.86 838.92) rotate(-72.18)"/></g><g id="NOSE1_copia_7" data-name="NOSE1 copia 7"><path class="cls-12" d="M501,556.86c-1.56-13.14-14.42-23.32-28.72-22.74A24.76,24.76,0,0,0,453.75,543a25.51,25.51,0,0,1,15.06-5.47c14.3-.58,27.16,9.6,28.72,22.74A21.14,21.14,0,0,1,493,576.23,21.33,21.33,0,0,0,501,556.86Z"/></g><g id="NOSE1_copia_5-2" data-name="NOSE1 copia 5"><path class="cls-6" d="M486.68,564.2c-1-8.1-8.92-14.39-17.77-14s-15.23,7.22-14.27,15.33c0,.1,0,.2.05.3,2,.05,4,.16,6.15.35a92.34,92.34,0,0,1,24.59,5.43A13,13,0,0,0,486.68,564.2Z"/></g><g id="Forma_4015" data-name="Forma 4015"><path class="cls-1" d="M563.42,195.21c-50.09-69.67-311.24-66.67-308.62-65.93,0,0-63.72,32.28-51.16,85.61s83.59,63.39,110.62,93.19c0,0-3.45-32.23-13.51-43.92l-1.17-1.25c.4.39.79.81,1.17,1.25,6.89,7.28,18.86,18.63,37.1,31.84,31.76,23,64.82,53.89,71.42,71.45-.73-1.88,4.39-43.09-28.9-89.74,0,0,77.41,40,110.63,86.64,0,0-13.09-57.3-36.21-88.71,0,0,80.91,16.88,147.17,109.42C602,385.06,629.8,287.54,563.42,195.21Z"/></g><g id="Forma_4015-2" data-name="Forma 4015" class="cls-13"><path class="cls-4" d="M233.05,238.07c-31.38-31.1-13.16-73.62-3.8-90.57-16.08,14.71-32.58,37.81-25.61,67.39,12.56,53.33,83.59,63.39,110.62,93.19,0,0,0-.15-.05-.43C301.58,286,269.68,274.39,233.05,238.07Zm64.52-36.22s-25.91,20.91,5.17,64.17l.58.8A274.89,274.89,0,0,0,337.85,296c31.23,22.61,63.71,52.86,71.07,70.56-.67-5.6-2.47-13.11-6.46-22.91C391.26,316.19,297.56,250.9,297.57,201.85ZM475.26,325C453.55,281.74,390,279.14,363.47,201.5c0,0-13.39,42.87,17.94,76.6l.29.31c10.34,5.5,78.63,42.85,109.3,85.94,0,0-.71-3.1-2.08-8.23A281.61,281.61,0,0,0,475.26,325Zm115.58,28.64C553,263.31,443.55,280.1,425.92,201.5c0,0,2.09,47.34,30.54,74.53,11.88,3,84.83,24.3,145.5,109,0,0,.15-.56.42-1.61C601.16,377.71,593.94,361.05,590.84,353.66Z"/></g></svg>