<svg id="Assets" xmlns="http://www.w3.org/2000/svg" viewBox="0 0 800 800"><defs><style>.cls-1{fill:#ffaf00;}.cls-2{fill:#c77e00;}.cls-3{fill:#ffd36f;}.cls-4{fill:#3e7e00;}.cls-5{fill:#a9e564;}.cls-6{fill:#83ca28;}.cls-7{fill:#90d837;}.cls-8{fill:#69b200;}.cls-9{fill:#bdf57c;}.cls-10{fill:#aeee61;}.cls-11{fill:#ff9751;}.cls-12{fill:#e1fac3;}.cls-13{fill:#e99100;}.cls-14{fill:#ffebc4;}.cls-15{fill:#382c2f;}</style></defs><g id="Forma_1441" data-name="Forma 1441"><path class="cls-1" d="M234.93,316.63s-49.51-65.49-130.34-82.16S76.8,244.89,89,255.76s31,55.88,5,88.3-33.2,37.42-23.56,47,58,7.15,56.76,47.16c-.81,27.33-10.34,40.09-15.22,47.73s-1.8,18.87,21.8,8.77S310.9,445.92,234.93,316.63Z"/></g><g id="Forma_1443" data-name="Forma 1443"><path class="cls-2" d="M208,347.88l13-19.6s-51.06-76.47-129.78-89C91.29,239.31,156.36,269.71,208,347.88ZM93.62,375.15c-53.14,20.84-1,6.75,15.15,3.35,20-4.22,80.28-3.42,91.31.65l14.13-17.82S146.76,354.31,93.62,375.15Zm50.14,99.58c-18.81,8.84-34.46,15.62-27.22,15.58s56.66-17.08,65.17-24.15l-1-16.24S162.57,465.89,143.76,474.73Z"/></g><g id="Forma_1441_copia_2" data-name="Forma 1441 copia 2"><path class="cls-3" d="M234.93,316.63s-49.51-65.49-130.34-82.16c-40.85-8.43-47.5-5.68-42.52.51,6.43.51,17.79,3.19,36.29,9.07C176.64,268.94,218,339.19,218,339.19c32.34,73.52,1.63,114-37.42,137C229,453.13,288,407,234.93,316.63Z"/></g><g id="Forma_1441-2" data-name="Forma 1441"><path class="cls-1" d="M711,255.76c12.22-10.87,65.27-38-15.57-21.29s-130.34,82.16-130.34,82.16c-76,129.29,77.58,168,101.18,178.12s26.67-1.13,21.8-8.77-14.41-20.4-15.22-47.73c-1.19-40,47.13-37.54,56.76-47.16s2.47-14.62-23.56-47S698.77,266.63,711,255.76Z"/></g><g id="Forma_1443-2" data-name="Forma 1443"><path class="cls-2" d="M708.71,239.31c-78.72,12.5-129.78,89-129.78,89l13,19.6C643.64,269.71,708.71,239.31,708.71,239.31Zm-2.33,135.84c-53.14-20.84-120.59-13.82-120.59-13.82l14.13,17.82c11-4.07,71.33-4.87,91.31-.65C707.35,381.9,759.52,396,706.38,375.15Zm-50.14,99.58c-18.81-8.84-36.92-24.81-36.92-24.81l-1,16.24c8.51,7.07,57.92,24.1,65.17,24.15S675.05,483.57,656.24,474.73Z"/></g><g id="Forma_1441_copia_2-2" data-name="Forma 1441 copia 2"><path class="cls-3" d="M582,339.19s41.35-70.25,119.63-95.14c18.5-5.88,29.86-8.56,36.29-9.07,5-6.19-1.67-8.94-42.52-.51-80.83,16.67-130.34,82.16-130.34,82.16C512,407,571,453.13,619.43,476.16,580.38,453.23,549.67,412.71,582,339.19Z"/></g><g id="Forma_1446" data-name="Forma 1446"><path class="cls-4" d="M525.3,184.69c-23.22-3.64-33.15,13-33.15,13,5.18-46.68,39.53-36.76,4.84-87.42C463,60.69,438.28,172,438.28,172c14.31,78.52,99,44,99,44C559.51,204.11,549.56,188.49,525.3,184.69Z"/></g><g id="Forma_1446_copia_2" data-name="Forma 1446 copia 2"><path class="cls-5" d="M525.3,184.69c-14.26-2.23-23.5,3.18-28.51,7.69a82.52,82.52,0,0,0-1.33,8.3s9.93-16.65,33.15-13c7.65,1.2,13.88,3.57,18.12,6.63C542.84,189.82,535.28,186.25,525.3,184.69Zm-87-12.72c3.49,19.11,11.13,31.52,20.71,39.37-8-7.9-14.33-19.54-17.4-36.39,0,0,20.79-93.46,50.4-70.9C460.63,71.49,438.28,172,438.28,172Z"/></g><g id="Forma_21" data-name="Forma 21"><path class="cls-6" d="M634.18,543.35c-14.48-38.66-2.67-78.6-1.1-112.55C633.94,412.16,652.53,179,403.92,179c0,0-147.8-.22-202.48,100.44-36.84,67.82-32.52,141-27,163.91,8.18,34.1,19,55.8-.33,104.91-51.84,131.46,101.9,204,229.65,204C491.15,752.24,693.41,701.47,634.18,543.35Z"/></g><g id="Elipse_1447_copia_10" data-name="Elipse 1447 copia 10"><path class="cls-7" d="M382,493.12c-4.09.72-7.26,3.06-7.07,5.21s3.66,3.28,7.73,2.53,7.15-3.05,7-5.18S386,492.4,382,493.12Zm19.59,7.59c-3.23.15-6,1.69-6.09,3.44s2.38,3,5.6,2.87,5.9-1.7,6-3.43S404.78,500.56,401.57,500.71ZM366,457.93c-3.5.49-6.22,2.41-6.05,4.28s3.14,3,6.63,2.43,6.14-2.41,6-4.26S369.46,457.43,366,457.93ZM387.17,472c-5.14.61-9.24,3.36-9.13,6.13s4.38,4.45,9.49,3.8,9.07-3.37,9-6.09S392.27,471.4,387.17,472ZM355.9,488.87c-2.76.73-4.8,2.63-4.55,4.24s2.7,2.3,5.45,1.56,4.76-2.63,4.52-4.23S358.65,488.14,355.9,488.87ZM397,452.2c2.67-.11,4.95-1.53,5.1-3.18s-1.88-2.92-4.56-2.83-5,1.51-5.14,3.18S394.28,452.3,397,452.2Zm42,24.75c.87-2.59-2-5.53-6.47-6.59s-8.89.19-9.77,2.82,2.1,5.58,6.6,6.6S438.06,479.52,438.93,477Zm-28.28,7.89c-2.52-.23-4.77.88-5,2.46s1.62,3,4.14,3.25,4.73-.89,5-2.46S413.16,485.06,410.65,484.84Zm23.88,6.2c.49-1.51-1-3-3.44-3.35s-4.74.62-5.22,2.15,1.08,3,3.48,3.35S434.05,492.55,434.53,491Zm3,8.39c-3.55-.58-6.94.62-7.55,2.68s1.81,4.15,5.36,4.7,6.86-.65,7.47-2.68S441.06,500,437.53,499.43Zm-11-41.43c2.48.29,4.69-.77,4.94-2.37s-1.54-3.14-4-3.44-4.72.76-5,2.38S424,457.72,426.51,458Zm-14.72.69c-3.18-.41-6.09.72-6.48,2.52s1.88,3.58,5.06,4,6-.73,6.41-2.51S415,459.11,411.79,458.69Z"/></g><g id="Elipse_1447_copia_11" data-name="Elipse 1447 copia 11"><path class="cls-7" d="M275.79,258.21c-1.09-2.89-5.62-2.74-10.31.44-4.88,3.3-8.08,8.63-7,11.78s6.12,2.74,11-.83C274.13,266.17,276.88,261.12,275.79,258.21ZM268.18,286c-4,3.44-6.43,8.42-5.38,11s5.17,1.7,9.09-1.93,5.93-8.23,4.92-10.66S272,282.64,268.18,286Zm20.42-50.05c-.32-1.86-2.8-2.71-5.58-1.88s-5,3.11-4.66,5.06,2.92,2.79,5.79,1.85S288.92,237.79,288.6,235.92Zm-50,17.6c-3.74,2.37-6.21,6-5.41,8.16s4.55,1.77,8.27-.72,5.84-5.95,5.05-7.95S242.27,251.23,238.64,253.52Zm-1.07,44.22c-3.11,3-5,7.07-4.09,9.1s4.19,1.14,7.28-1.93,4.69-6.94,3.82-8.87S240.61,294.85,237.57,297.74Zm30.18-64.24c2.39-1.16,3.93-3.43,3.5-5.1s-2.67-2.12-5-1-4.09,3.42-3.66,5.15S265.33,234.69,267.75,233.5Zm43.35,7.31c-.35-2.73-3.58-4.37-7.31-3.66s-6.81,3.67-6.53,6.57,3.79,4.6,7.7,3.69S311.45,243.58,311.1,240.81Zm-1.67,13.59c-2,.73-3.42,2.75-3.19,4.52s2.05,2.58,4.05,1.79,3.33-2.79,3.08-4.51S311.38,253.69,309.43,254.4Zm15.37,11.06c-.41-2.3-3-3.32-5.79-2.26s-5,3.94-4.59,6.37,3.12,3.45,6,2.23S325.21,267.78,324.8,265.46ZM297.62,224c-.38-1.52-2.3-2.29-4.31-1.72s-3.43,2.31-3.05,3.88,2.37,2.35,4.42,1.72S298,225.56,297.62,224Zm-7.54,59.22c-2.9,2.06-4.83,5.52-4.24,7.69s3.49,2.15,6.39,0,4.58-5.48,4-7.54S292.91,281.25,290.08,283.25Zm1.7-22.32c-2.26,1-3.8,3.29-3.39,5.13s2.61,2.46,4.88,1.4,3.67-3.32,3.25-5.09S294,260,291.78,260.93Z"/></g><g id="Elipse_1447_copia_12" data-name="Elipse 1447 copia 12"><path class="cls-7" d="M484.17,225.66c-3.79-.32-6.82,1.65-6.89,4.4s2.94,5.45,6.8,5.93,7.28-1.52,7.26-4.48S488.07,226,484.17,225.66ZM502.5,252.8c.22-1.87-1.55-4-3.91-4.74s-4.34.12-4.56,1.92,1.43,3.92,3.76,4.73S502.29,254.67,502.5,252.8Zm-6-39.45c.2-1.6-1.35-3.19-3.45-3.55s-3.88.62-4.1,2.17,1.25,3.14,3.33,3.54S496.28,215,496.49,213.35ZM480.36,243.4c-2-.5-3.67.48-3.73,2.2s1.5,3.6,3.53,4.17,3.8-.42,3.85-2.21S482.4,243.92,480.36,243.4Zm39.27-25.13c2.54.92,4.83.25,5.07-1.52s-1.65-3.88-4.17-4.74-4.66-.14-4.91,1.55S517.14,217.37,519.63,218.27Zm-47.88,34.88c-2.91-.76-5.35.52-5.52,2.85s2,5,5,5.86,5.64-.37,5.77-2.85S474.74,253.93,471.75,253.15ZM504.5,220.4c-2.85-.53-5.23.56-5.35,2.45s2.06,3.93,5,4.54,5.47-.47,5.57-2.45S507.42,220.94,504.5,220.4Zm-1.89,49.68c-3-1.7-5.72-1.35-6.09.75s1.72,5.27,4.75,7.09,6,1.59,6.36-.64S505.71,271.83,502.61,270.08Zm54.29-27.39c.58-2.18-2.26-5.58-6.23-7.54s-7.35-1.75-7.92.31,2,5.35,5.85,7.38S556.33,244.88,556.9,242.69ZM556.34,279c-3.32-2.56-6.49-3-7.15-1s1.43,5.76,4.73,8.42,6.76,3.28,7.44,1.16S559.75,281.63,556.34,279Zm-31.83-36c-5-2.67-9.51-2.34-10.29.65s2.47,7.74,7.45,10.66c5.19,3,10.21,3,11-.32S529.71,245.82,524.51,243Zm.17,27.45c-4.15-2.91-8-3.16-8.75-.65s1.88,7,6,10.1,8.47,3.67,9.24,1S529,273.5,524.68,270.49Z"/></g><g id="Forma_21_copia_13" data-name="Forma 21 copia 13"><path class="cls-8" d="M634.18,543.35c-14.48-38.66-2.67-78.6-1.1-112.55.74-16,14.46-189.22-137.69-238.69,136.7,55.45,123.84,218,123.12,233.4-1.57,33.94-13.38,73.88,1.1,112.55C678.84,696.17,476.58,747,389.18,747A362.06,362.06,0,0,1,276,728.58c39.78,15.61,85.23,23.66,127.8,23.66C491.15,752.24,693.41,701.47,634.18,543.35Z"/></g><g id="Forma_21_copia_12" data-name="Forma 21 copia 12"><path class="cls-9" d="M403.92,179s-147.8-.22-202.48,100.44c-36.84,67.82-32.52,141-27,163.91,8.18,34.1,19,55.8-.33,104.91-28,71,4,124.79,59.39,159.28-45.33-34.5-68.7-84.47-43.5-148.35,19.36-49.11,8.51-70.81.33-104.91-5.51-23-9.84-96.1,27-163.92C272,189.68,419.81,189.9,419.81,189.9c58.47,0,102.15,12.9,134.76,32.87C520.68,196.71,472.46,179,403.92,179Z"/></g><g id="Rect치ngulo_1306" data-name="Rect치ngulo 1306"><path class="cls-10" d="M624,583.15c-18.85-21.84-41.48-31-87.07-29.42-26.75.7-48.09,1-71.5-14.89-24.78-16.15-40.77-23.67-61.9-23.67-15.93,0-32.71,6-64.89,23-35.06,18.52-49.92,16.93-65,16.8-46.61-1.05-80.77,7.42-100.22,28.62-19,21.39-23.56,53.55-.93,91.28,17.91,30.45,55.1,54.39,88.81,69,34.3,15,65.59,19.52,84,22.48,39.37,5.56,58.09,5.4,98.75.67,19.42-2.21,52.68-8.59,88.8-24.41,35.58-15.51,74.25-39.55,92.13-68.45C647.54,638,642.17,605,624,583.15Z"/></g><g id="Elipse_1441" data-name="Elipse 1441"><path class="cls-11" d="M286.77,579.87c-1.55-7.41-19.38-10.8-39.82-7.59s-35.76,11.82-34.21,19.23,19.38,10.8,39.82,7.59S288.32,587.27,286.77,579.87Z"/></g><g id="Elipse_1441_copia" data-name="Elipse 1441 copia"><path class="cls-11" d="M552.72,572.28c-20.44-3.21-38.27.18-39.82,7.59s13.77,16,34.21,19.23,38.27-.18,39.82-7.59S573.16,575.49,552.72,572.28Z"/></g><g id="Rect치ngulo_1306_copia_2" data-name="Rect치ngulo 1306 copia 2"><path class="cls-12" d="M624,583.15c-18.85-21.84-41.48-31-87.07-29.42-26.75.7-48.09,1-71.5-14.89-24.78-16.15-40.77-23.67-61.9-23.67-15.93,0-32.71,6-64.89,23-35.06,18.52-49.92,16.93-65,16.8-46.61-1.05-80.77,7.42-100.22,28.62-19,21.39-23.56,53.55-.93,91.28a107.74,107.74,0,0,0,9.74,13.81c-1.58-2.25-3.07-4.53-4.44-6.85-22.64-37.74-18-69.9.93-91.29,19.45-21.19,53.6-29.67,100.22-28.62,15.12.13,30,1.72,65-16.79,32.18-17,49-23,64.88-23,21.14,0,37.13,7.52,61.9,23.67,23.42,15.91,44.76,15.6,71.51,14.89,45-1.6,67.59,7.33,86.3,28.53A68.69,68.69,0,0,0,624,583.15Z"/></g><g id="Forma_1444" data-name="Forma 1444"><path class="cls-4" d="M389.2,51.52c-55,50.62-28.81,144-28.81,144s-28.36-75.42-41-26c-12.53,49.14,27.39,99.8,27.39,99.8,38.17-81.52,97.78-88,97.78-88s1.32-14.1,9.13-47.42C474.08,47.15,446.92-1.61,389.2,51.52Z"/></g><g id="Forma_1444_copia_2" data-name="Forma 1444 copia 2"><path class="cls-5" d="M324.39,171.55c3.2-12.53,7.4-17,11.9-16.78-6.29-4.46-12.51-2.27-16.86,14.79-12.53,49.14,27.39,99.8,27.39,99.8.47-1,.94-2,1.41-2.95C338.74,252.53,314.2,211.54,324.39,171.55Zm64.81-120c-40.48,37.26-37,97.72-32.3,127,.7,4,2.25,13.95,3.54,16.68.23.48,4.92,2.31,4.92,2.31s-26.18-93.42,28.8-144c19.78-18.21,36-24.45,47.9-21.3C429.84,25.5,411.88,30.64,389.2,51.52Z"/></g><g id="Forma_1451_copia" data-name="Forma 1451 copia"><path class="cls-8" d="M304.05,244.8c-11.64-5.47-42.09-22.41-45.76-5.93-2.27,10.15-2,16.23,4.12,20.32s33.73,1.18,46.46-1.87S316.36,250.59,304.05,244.8Z"/></g><g id="Forma_1451" data-name="Forma 1451"><path class="cls-1" d="M253.19,182.32c-12.79-13.8-13.69-4.64-12.25,14.9,1.37,18.46,1.63,68.61,24.83,61.57,14.29-4.34,21.67-9,22.51-19.53S266,196.12,253.19,182.32Z"/></g><g id="Forma_1451_copia_3" data-name="Forma 1451 copia 3"><path class="cls-13" d="M260,190.22c-4.4,4.59-11.12,7.88-18.9,8.94.06,1,.13,2.11.19,3.26,8.76-.57,16.42-3.93,21.35-8.88C261.73,192.4,260.84,191.29,260,190.22Zm14.24,19.34c-.85-1.26-1.7-2.52-2.57-3.77-4.12,8.51-15.13,14.6-28.06,14.6l-1,0c.09.94.19,1.88.3,2.83,1.21.11,2.45.17,3.71.17C259.1,223.37,269.81,217.65,274.22,209.56Zm9.87,16.57c-1.73,10.93-14.31,19.42-29.58,19.42a39.77,39.77,0,0,1-7.32-.68c.3.88.62,1.73.95,2.55a39.39,39.39,0,0,0,9.35,1.11c14.15,0,26-7.29,29-17.06C285.86,229.81,285,228,284.09,226.13Z"/></g><g id="Forma_1451_copia_2" data-name="Forma 1451 copia 2"><path class="cls-14" d="M248.56,197.22c-.66-8.87-.83-15.61.38-19-8.73-7.23-9.26,1.92-8,19,1.36,18.39,1.63,68.25,24.59,61.63C250.1,253.46,249.74,213.31,248.56,197.22Z"/></g><g id="Forma_1451_copia-2" data-name="Forma 1451 copia"><path class="cls-8" d="M576.05,273.29c-5.52-11.62-18.29-44-31.59-33.63-8.2,6.4-11.82,11.3-9.72,18.31s25.32,22.33,37.09,28S581.89,285.58,576.05,273.29Z"/></g><g id="Forma_1451-2" data-name="Forma 1451"><path class="cls-1" d="M576.41,192.73c-1.12-18.78-7.63-12.28-18.92,3.73-10.66,15.13-42.29,54-19.9,63.34,13.8,5.72,22.48,6.78,29.8-.81S577.54,211.51,576.41,192.73Z"/></g><g id="Forma_1451_copia_3-2" data-name="Forma 1451 copia 3"><path class="cls-13" d="M537.3,242.42a39.89,39.89,0,0,1-5.22-5.17c-.33.87-.62,1.72-.89,2.57a39.65,39.65,0,0,0,6.52,6.79c10.93,9,24.71,10.86,33.26,5.25.54-1.7,1-3.6,1.52-5.67C564.2,253.54,549.1,252.11,537.3,242.42Zm7.53-26.37c-.27-.22-.52-.45-.78-.67-.53.78-1,1.57-1.57,2.37q1.31,1.29,2.76,2.49c9.68,7.95,21.59,10.34,30.13,6.88.15-1.51.29-3,.41-4.55C567.19,226.54,554.83,224.26,544.83,216.05Zm11.53-18c-.59.83-1.24,1.71-1.91,2.64,7.12,5.12,15.18,7.39,22.13,6.69,0-1.45.06-2.87.07-4.25C570.33,203.89,563.05,202.17,556.36,198.05Z"/></g><g id="Forma_1451_copia_2-2" data-name="Forma 1451 copia 2"><path class="cls-14" d="M557.49,196.46c-10.62,15.08-42.06,53.77-20.12,63.23-8.5-14,16.71-45.21,26-58.4,5.12-7.27,9.26-12.58,12.36-14.45C573.59,175.72,567.37,182.45,557.49,196.46Z"/></g><g id="Forma_1430_copia" data-name="Forma 1430 copia"><path class="cls-10" d="M344.84,518.81C319.42,547.21,394,552.69,394,552.69S370.25,490.41,344.84,518.81Z"/></g><g id="Forma_1430_copia_4" data-name="Forma 1430 copia 4"><path class="cls-12" d="M366.57,513.56c-6.7-3.62-14.14-3.23-21.73,5.25-12.83,14.34-.2,22.83,15.47,27.73-12.77-5.1-21.09-13.18-9.85-25.74C356,514.62,361.43,512.74,366.57,513.56Z"/></g><g id="Forma_1430" data-name="Forma 1430"><path class="cls-6" d="M357.55,526.55c-11.94,13.35,23.09,15.93,23.09,15.93S369.5,513.2,357.55,526.55Z"/></g><g id="Forma_1430_copia_2" data-name="Forma 1430 copia 2"><path class="cls-15" d="M357.13,528.57c-9.93,11.1,19.2,13.25,19.2,13.25S367.06,517.47,357.13,528.57Z"/></g><g id="Forma_1430_copia-2" data-name="Forma 1430 copia"><path class="cls-10" d="M456.16,518.81C430.74,490.41,407,552.69,407,552.69S481.57,547.21,456.16,518.81Z"/></g><g id="Forma_1430_copia_4-2" data-name="Forma 1430 copia 4"><path class="cls-12" d="M456.16,518.81c-7.6-8.48-15-8.87-21.74-5.25,5.14-.82,10.58,1.06,16.11,7.24,11.24,12.56,2.93,20.64-9.84,25.74C456.35,541.64,469,533.15,456.16,518.81Z"/></g><g id="Forma_1430-2" data-name="Forma 1430"><path class="cls-6" d="M443.44,526.55c-11.94-13.35-23.09,15.93-23.09,15.93S455.39,539.9,443.44,526.55Z"/></g><g id="Forma_1430_copia_2-2" data-name="Forma 1430 copia 2"><path class="cls-15" d="M443.86,528.57c-9.93-11.1-19.2,13.25-19.2,13.25S453.79,539.67,443.86,528.57Z"/></g></svg>