<svg id="Assets" xmlns="http://www.w3.org/2000/svg" viewBox="0 0 800 800"><defs><style>.cls-1{fill:#76d7d3;}.cls-2{fill:#91e8e4;}.cls-3{fill:#00a9bd;}.cls-4{fill:#44c2bd;}.cls-5{fill:#ff7880;}.cls-6{fill:#ee5f69;}.cls-7{fill:#ff99a2;}.cls-8{fill:#ffdbd8;}.cls-9{fill:#f9afa9;}.cls-10{fill:#d7565f;}.cls-11{fill:#f7a7ac;}.cls-12{fill:snow;}</style></defs><g id="Forma_1581" data-name="Forma 1581"><path class="cls-1" d="M17.34,217.36c-6.15-11.1-18.82-5.31-10.57,29.22S53.34,414.65,112.39,443.37L157.1,333.18S73.38,318,17.34,217.36Z"/></g><g id="Forma_1584" data-name="Forma 1584"><path class="cls-2" d="M8.89,224.05s20,134.14,97.51,203.83l9.16-18.3C45.4,351.15,8.07,190.73,8.89,224.05Z"/></g><g id="Forma_1581_copia" data-name="Forma 1581 copia"><path class="cls-3" d="M61.58,276.67q-4.92-4.94-9.82-10.45A74.91,74.91,0,0,1,19,289.4c1.78,5.56,3.73,11.39,5.84,17.4C40.39,300.07,53,287.49,61.58,276.67Zm27.28,23.55c-4.29-3.16-8.67-6.61-13.08-10.38-6.52,12.63-19.16,30.72-41.55,42.2,2.3,5.76,4.73,11.57,7.29,17.35A93.09,93.09,0,0,0,88.86,300.22Zm13.58,9.26c-2.44,17-11.87,48-47.48,67.65,3.29,6.17,6.74,12.16,10.32,17.89,11.82-7.71,49.1-35,54.81-75.56C114.58,316.69,108.65,313.39,102.44,309.48Z"/></g><g id="Forma_1581-2" data-name="Forma 1581"><path class="cls-1" d="M774.6,217.36C718.55,318,634.83,333.18,634.83,333.18l44.71,110.19c59.05-28.72,97.36-162.27,105.62-196.79S780.74,206.26,774.6,217.36Z"/></g><g id="Forma_1584-2" data-name="Forma 1584"><path class="cls-4" d="M676.37,409.58l9.16,18.3c77.55-69.69,97.52-203.83,97.52-203.83C783.87,190.73,746.53,351.15,676.37,409.58Z"/></g><g id="Forma_1581_copia-2" data-name="Forma 1581 copia"><path class="cls-3" d="M716.15,289.84q-6.61,5.66-13.08,10.38a93.09,93.09,0,0,0,47.34,49.17c2.56-5.78,5-11.59,7.29-17.35C735.31,320.56,722.67,302.47,716.15,289.84Zm-26.66,19.64c-6.21,3.91-12.14,7.21-17.65,10,5.72,40.58,43,67.85,54.81,75.56,3.58-5.73,7-11.72,10.32-17.89C701.36,357.51,691.93,326.51,689.49,309.48Zm50.68-43.26q-4.89,5.52-9.82,10.45c8.62,10.82,21.19,23.4,36.79,30.13,2.11-6,4.06-11.84,5.84-17.4A74.91,74.91,0,0,1,740.17,266.22Z"/></g><g id="Forma_1574" data-name="Forma 1574"><path class="cls-5" d="M747.49,520.82S731.92,508.18,725,489.14,712.17,438.2,700.31,418c0,0,12.75,8.9,23.59,9.85,0,0-40.29-59-48.58-72.17-32.68-51.87-32.43-206.81-282.35-183,0,0-52-42.07-94-37,0,0,31.63,19.43,40.48,40.49,0,0-28.66-29.86-119,11.61,0,0,19.83.13,42.6,2.82,0,0-69.22,18.13-133.78,178.46-41.89,104-64.78,116.53-64.78,116.53s17.74,4.48,38.73-12a449.18,449.18,0,0,1-29.58,46.12c-16.11,21.92-21.87,59.67-19,75,0,0,13.88-18.94,29.58-33.44,0,0-24,62.28-14.44,119.7,0,0,20.09-21.94,39.78-31.34,0,0,8.62,55,73.93,107.38,0,0,1.17-16.37,24.3-35.21,0,0-2.24,16.35,15.49,38s32,20.29,42.24,31.33c0,0,1.45-25.7,3.87-32.39,0,0,36.79,15.14,70.06,24.29s53.23,9.06,58.79,16.9c0,0,19.11-7.57,35.21-10.56s105.08-.62,137-29.93c0,0,5.27,18.24,4.57,20.78,0,0,31.75-23.57,45.07-28.87s29.83-20.14,32.74-30.63l8.8,28.16s41.87-43.27,48.93-98.57c0,0,13.11,14.37,27.11,20.77a503.31,503.31,0,0,1,0-55.62c1.69-31.54-12.37-72.88-21.83-96.47A158.64,158.64,0,0,0,747.49,520.82Z"/></g><g id="Forma_1591" data-name="Forma 1591"><path class="cls-6" d="M179.63,653.55c1,21.18,9.51,50.37,7.75,64.77l38.37-51-37.67-58.8S178.68,632.36,179.63,653.55Zm504.49-44.36c12.49,21.73,37,35.2,37,35.2-6.82-11-.45-55.12-9.5-78.86-6.88-18-32.38-43.81-40.14-50-1.64-38.35-10-64.71-22.53-104.2,0,0-19.88-2.29-44.71-12.68L328.9,735.57S366.81,812.83,492.44,761a213.49,213.49,0,0,0,93.46-42.36c25.82-20.43,44.88-42.66,58.43-66.24C658.12,680.73,670,723.25,670,723.25c3.83-24.53,19.53-54.54,14.08-78.5-4.37-19.2-15.52-35.2-19.78-40.81q1.93-7.22,3.38-14.55C672.42,593.05,678.35,599.14,684.12,609.19ZM178.57,488.08S157.19,502,142,529.63s-22.56,74.8-32.39,93.29c0,0,23.82-15.54,39.43-25.7C257.68,526.48,190.22,482.69,178.57,488.08Zm62.32,254.18c9.45,19.74,19,31,19,31l6.69-57.38L234.9,699S231.44,722.53,240.89,742.26Z"/></g><g id="Forma_1581-3" data-name="Forma 1581"><path class="cls-7" d="M156.4,336.7C114,426.17,101.25,449,82.46,470.83c0,0,51.48-40,90.48-128.14,42.86-96.8,94.7-116.88,94.7-116.88S198.77,247.23,156.4,336.7ZM120.13,646.51c21,52.76,55.28,85.9,55.28,85.9-14-25-37.67-101-37.67-101Zm-44,6.68S102,561.94,113.8,544.41L93.38,561S74,617.34,76.13,653.19Zm63.72-194s-25,17.28-30.63,21.12c0,0-21,31.57-28.87,42.95s-16,29.66-16.9,39.08c0,0,14.86-21.79,29.22-36.27S135.86,472,139.85,459.22ZM333.12,247.63S373.42,361.9,522.53,412C522.53,412,405.15,338.19,333.12,247.63Zm-84.49,61.61c-3.88,41.15,1.57,48.43-4.93,67.24,0,0,16.61-25.25,21.83-68.65,4.64-38.54,26.76-74.63,26.76-74.63S252.52,268.1,248.63,309.24Zm290.09-19c18.1,10.86,42.89,13.33,53.16,15.84,0,0-28.48-19.32-40.48-40.13s6.81-10.6,14.78-6.34,17.1,12.49,29.93,19.37c0,0-28.17-48.7-98.58-66.89,0,0,16.12,8.79,28.87,19.36s1.35,12.66-12.32,7-35.6-21.82-54.92-26.76c0,0,87.21,59.14,53.16,50.7s-58.85-28.93-90.48-33.09c0,0,48.6,84,154.9,128.85,0,0-54.87-42.28-71.11-63.37S520.62,279.37,538.72,290.23Z"/></g><g id="Forma_1572" data-name="Forma 1572"><path class="cls-8" d="M630.25,407.11S547.46,385.87,502.11,354c0,0,15.11,47,76.75,78.51,0,0-149.85-9.57-256.3-157,0,0,5.09,44.65-96.46,133.43,0,0,18-45.56,13.38-74.28,0,0-76.66,75.74-68.65,212.29C179.3,691.24,253.2,758.81,397.2,758.81s250-83,250-228.13C647.15,450.58,630.25,407.11,630.25,407.11Z"/></g><g id="Forma_1572_copia" data-name="Forma 1572 copia"><path class="cls-9" d="M587.31,419.79a441.9,441.9,0,0,1-31.41-37.7c-19.12-7.91-38.57-17.42-53.79-28.14,0,0,8.29,25.75,37.59,51.91C557,412.28,579.6,420.05,587.31,419.79ZM249.45,387.48c-1.4,7.75-3.31,16.59-5.39,21.39,0,0,74.76-43.25,94.79-112.32q-8.28-10.05-16.29-21.11S326.83,312.92,249.45,387.48Zm380.8,19.63s-6.58-1.69-17-4.83c11,50.61,40,224-55.56,311.32,55.57-38.56,89.51-100.79,89.51-182.92C647.15,450.58,630.25,407.11,630.25,407.11Z"/></g><g id="Elipse_1578" data-name="Elipse 1578"><path class="cls-10" d="M399.12,535c-27.8.44-50.9,5.75-50.86,21.13.07,14.31,22.65,48,50.29,48.78,27.62,1.37,50.78-34.49,50.75-48.78C449.21,541.11,426.88,534,399.12,535Z"/></g><g id="Elipse_1578_copia_2" data-name="Elipse 1578 copia 2"><path class="cls-11" d="M399.12,535c-27.8.44-50.9,5.75-50.86,21.13.06,11.63,15,36.08,35.4,45.23-16.15-11.06-27.25-30.62-27.3-40.65-.05-15.38,23.06-20.69,50.85-21.13,14.13-.52,26.84,1.07,35.94,4.74C434.64,537.45,418.16,534.32,399.12,535Z"/></g><g id="Elipse_1579" data-name="Elipse 1579"><path class="cls-12" d="M393,549.4c-.42-3.9-4.81-6.76-11.18-5.83-6.69,1-13,6.21-12.23,11.56s7.91,7,14.26,4.83C389.85,557.89,393.35,553.26,393,549.4Z"/></g><g id="Elipse_1576" data-name="Elipse 1576"><path class="cls-9" d="M262.36,542.64c-19-3.36-36.05,3.69-38.19,15.75s11.49,24.57,30.45,27.93,36.05-3.7,38.19-15.76S281.32,546,262.36,542.64Z"/></g><g id="Elipse_1576_copia" data-name="Elipse 1576 copia"><path class="cls-9" d="M597.33,558.39c-2.14-12.06-19.24-19.11-38.19-15.75s-32.58,15.86-30.44,27.92,19.23,19.12,38.19,15.76S599.47,570.45,597.33,558.39Z"/></g></svg>