<svg id="Assets" xmlns="http://www.w3.org/2000/svg" viewBox="0 0 800 800"><defs><style>.cls-1{fill:#54bcce;}.cls-2{fill:#aedfeb;}.cls-3{fill:#00a1ac;}.cls-4{fill:#007e83;}.cls-5{fill:#4c4642;}.cls-6{fill:#e37e94;}.cls-7{fill:#f599ae;}.cls-8{fill:#cf6b82;}.cls-9{fill:#cc5e77;}</style></defs><g id="Elipse_1665" data-name="Elipse 1665"><ellipse class="cls-1" cx="112.84" cy="499.16" rx="89.62" ry="103.66" transform="translate(-83.53 26.58) rotate(-9.83)"/></g><g id="Elipse_1665_copia" data-name="Elipse 1665 copia"><path class="cls-2" d="M201.15,483.87c-9.77-56.41-57.23-95.3-106-86.85-45,7.8-75.44,53.23-72.15,104.56,2.91-44.88,31.59-82.42,72.15-89.44,48.77-8.45,96.23,30.43,106,86.84a119.46,119.46,0,0,1,1.52,12.88A119.17,119.17,0,0,0,201.15,483.87Z"/></g><g id="Forma_1709" data-name="Forma 1709"><path class="cls-3" d="M118.77,476.31s-25.52-45.5-59.86-18.07c-27,21.57-21.24,50.35-15.83,69.1,4.58,15.88,22,49.22,70.47,51.63C113.55,579,51.18,542.42,118.77,476.31Z"/></g><g id="Forma_1708" data-name="Forma 1708"><path class="cls-4" d="M126.46,481.33c-33-68.5-72.11-18.47-72.11-18.47,27.87-18.28,51.34,19.41,51.34,19.41-34.17,29.05-17,63.18-17,63.18C80.61,500.45,126.46,481.33,126.46,481.33Z"/></g><g id="Elipse_1665-2" data-name="Elipse 1665"><ellipse class="cls-1" cx="687.16" cy="499.16" rx="103.66" ry="89.62" transform="translate(78.06 1091.06) rotate(-80.17)"/></g><g id="Elipse_1665_copia-2" data-name="Elipse 1665 copia"><path class="cls-3" d="M775.67,475a119,119,0,0,1-1.28,31.22c-9.77,56.41-57.23,95.29-106,86.84-37-6.41-64.17-38.27-70.81-77.94,4,43.45,32.31,79.37,71.89,86.22,48.77,8.45,96.23-30.44,106-86.85A117.74,117.74,0,0,0,775.67,475Z"/></g><g id="Forma_1709-2" data-name="Forma 1709"><path class="cls-3" d="M741.09,458.24c-34.34-27.43-59.86,18.07-59.86,18.07C748.82,542.42,686.45,579,686.45,579c48.45-2.41,65.89-35.75,70.47-51.63C762.33,508.59,768.12,479.81,741.09,458.24Z"/></g><g id="Forma_1708-2" data-name="Forma 1708"><path class="cls-4" d="M745.65,462.86s-39.1-50-72.12,18.47c0,0,45.86,19.12,37.78,64.12,0,0,17.17-34.13-17-63.18C694.31,482.27,717.78,444.58,745.65,462.86Z"/></g><g id="Forma_11" data-name="Forma 11"><path class="cls-1" d="M663.49,273c-9.71-51-21.92-60.51-56.2-77.41-34.12-17.55-132.92-37-200.6-39.35.19,0-95.35-4.54-213.92,40.37-51.63,19.79-53,62.06-56.87,72.84-1.94,5.31-12.8,69.05-18,142.47-5.46,74.34-5.27,158.36,9.36,225.38,17.31,79.79,80.31,105.65,80.39,105.35,0-.07,12.17,8.29,41.63,17.42s76.28,18.79,146.63,18.64c70.38-.37,119.37-10.81,150.76-20.41s45.18-18.59,45.14-18.55S665,713.31,673.88,611.65c3.06-36.69,8.56-80,9.29-133.87C683.9,423.66,679.86,359.05,663.49,273Z"/></g><g id="Forma_1688" data-name="Forma 1688"><path class="cls-5" d="M372.1,526.42c-8,7.73-14.1,31.16-4.31,35.27s15.17-8.39,15.83-19.43S388,511.05,372.1,526.42Z"/></g><g id="Forma_1688_copia" data-name="Forma 1688 copia"><path class="cls-3" d="M372.1,526.42c-6.78,6.58-12.23,24.51-7.67,32.26-1.37-8.78,3.4-22.39,9.11-27.94,5.93-5.74,9.13-6.53,10.77-4.68C383.7,520.31,380.92,517.87,372.1,526.42Z"/></g><g id="Forma_1689" data-name="Forma 1689"><path class="cls-3" d="M357.71,564.93s1.11,8.74,9.36,10.08c11.15,1.82,13.67-8.28,13.67-8.28C368,577.6,357.71,564.93,357.71,564.93Z"/></g><g id="Forma_1688_copia_2" data-name="Forma 1688 copia 2"><path class="cls-5" d="M437.38,522c-22.06-21.47-16.95,6.7-16,22.12s8.43,32.9,22,27.15S448.47,532.76,437.38,522Z"/></g><g id="Forma_1688_copia_2-2" data-name="Forma 1688 copia 2"><path class="cls-3" d="M437.38,522c-12.27-11.94-16.13-8.53-17-.5,2.3-2.58,6.74-1.49,15,6.53,7.95,7.75,14.59,26.76,12.68,39C454.39,556.2,446.82,531.15,437.38,522Z"/></g><g id="Forma_1689_copia" data-name="Forma 1689 copia"><path class="cls-3" d="M425.36,578.27s3.51,14.09,19,11.56c11.48-1.87,13-14.08,13-14.08S443.16,593.44,425.36,578.27Z"/></g><g id="Forma_11_copia_4" data-name="Forma 11 copia 4"><path class="cls-3" d="M663.49,273c-7-36.7-15.25-51.91-32.1-63.84,4.42,18.86,9.81,44.51,14.67,74.78,10.65,66.22,18.75,154.33,10.41,247.77-7.52,85.76-20,140.49-57.41,177.88-37.36,36.79-99.63,56.24-205.85,57.73-94.66.66-157.87-17.59-198.1-34.56q-7.17-3.07-13.36-6.07c14.44,11.48,25.86,16.08,25.89,16s12.17,8.29,41.63,17.42,76.28,18.79,146.63,18.64c70.38-.37,119.37-10.81,150.76-20.41s45.18-18.59,45.14-18.55S665,713.31,673.88,611.65c3.06-36.69,8.56-80,9.29-133.87C683.9,423.66,679.86,359.05,663.49,273Z"/></g><g id="Forma_11_copia_7" data-name="Forma 11 copia 7"><path class="cls-2" d="M192.77,196.59c-51.63,19.79-53,62.06-56.87,72.84-1.94,5.31-12.8,69.05-18,142.47-5.46,74.34-5.27,158.36,9.36,225.38,1.25,5.76,2.74,11.24,4.43,16.45-11.17-66-10.33-139.11-4.56-204.44a1332.76,1332.76,0,0,1,21.27-148,146.05,146.05,0,0,1,11.5-37.12c9.17-19.85,24.47-44.26,50.24-56.68,57.1-27.66,99.36-37.26,185.36-51.39C367,156.45,287.18,160.83,192.77,196.59Z"/></g><g id="Forma_11_copia_5" data-name="Forma 11 copia 5"><path class="cls-6" d="M663.49,273c-9.71-51-21.92-60.51-56.2-77.41-27.47-14.13-96.84-29.46-158.16-36.15,16.63,176.11,200,164.23,222.67,162.08C669.47,306.1,666.72,290,663.49,273Z"/></g><g id="Forma_11_copia_6" data-name="Forma 11 copia 6"><path class="cls-7" d="M604.85,194.37c-28-13.35-91.88-27.51-150-34.3a39.51,39.51,0,0,1,3.27,21.19S542.45,184.45,604.85,194.37Z"/></g><g id="Forma_11_copia_8" data-name="Forma 11 copia 8"><path class="cls-8" d="M668.73,302.28c-.35-2.13-.72-4.28-1.09-6.45-.11-.64-.23-1.29-.34-1.94-.22-1.27-.44-2.55-.67-3.82-.2-1.1-.39-2.2-.59-3.31l-.36-2-.9-4.94-.24-1.27q-.51-2.78-1-5.58c-.13-.71-.27-1.41-.4-2.11l-.12-.58c-.11-.55-.22-1.09-.32-1.63,0-.16-.07-.32-.1-.48-.14-.67-.28-1.34-.42-2l-.09-.42-.33-1.57c-.05-.19-.09-.38-.13-.56-.13-.58-.25-1.16-.38-1.73a1.16,1.16,0,0,1,0-.18c-.15-.62-.29-1.24-.43-1.85l-.12-.5c-.12-.47-.23-.94-.34-1.4,0-.16-.08-.31-.11-.47-.15-.58-.3-1.17-.44-1.74l-.09-.32c-.12-.47-.24-.95-.37-1.41,0-.17-.09-.33-.13-.5l-.39-1.42c0-.08,0-.17-.07-.26-.15-.54-.31-1.07-.46-1.6,0-.15-.08-.29-.13-.44l-.36-1.21-.13-.43c-.16-.51-.31-1-.47-1.52,0-.08,0-.15-.08-.22-.13-.44-.27-.86-.41-1.28l-.15-.45-.4-1.17c0-.1-.07-.2-.1-.3-.17-.47-.33-.93-.5-1.39-.05-.12-.09-.24-.14-.37l-.39-1-.15-.4-.52-1.32,0-.12c-.16-.4-.32-.79-.49-1.18l-.16-.39-.42-1c0-.1-.09-.21-.14-.31l-.54-1.21-.15-.3c-.14-.31-.29-.62-.43-.92l-.18-.36-.54-1.09,0-.08-.58-1.12-.19-.33c-.15-.28-.3-.56-.46-.84l-.16-.29q-.3-.54-.6-1.05l-.15-.25-.5-.82-.2-.32c-.18-.29-.36-.58-.55-.87l-.09-.15-.65-1-.2-.3-.51-.72-.19-.27c-.23-.31-.45-.62-.68-.92l-.15-.2-.56-.73-.23-.29-.58-.72-.15-.18-.72-.86-.22-.25-.56-.63-.23-.26c-.25-.27-.5-.55-.76-.82a1.59,1.59,0,0,0-.13-.13l-.66-.69-.26-.26-.62-.61-.2-.19-.8-.77-.24-.22-.62-.56-.28-.25-.83-.72-.11-.1-.78-.65-.29-.24-.67-.54-.25-.2-.9-.69-.26-.2-.7-.52-.31-.23-.84-.6-.13-.1c3.77,16.12,8.26,37.2,12.52,61.89a13.46,13.46,0,0,0-6.59-3.4c-13.07-2-20.32,4.74-36.66,4.68s-47.24-20.37-55.43-36.72-39.45-28.74-49-32S471.9,181.9,471.45,173a85.64,85.64,0,0,0-1-10.91c-7.16-1-14.29-1.86-21.31-2.63,16.63,176.11,200,164.23,222.67,162.08Q670.38,312.08,668.73,302.28Z"/></g><g id="Forma_1341" data-name="Forma 1341"><path class="cls-9" d="M466.48,161.52c2.27,5.47,4.28,11.21,6,16.84,7.22,23,11.18,49.33,12.66,77.85q4.26,5.34,8.85,10.13c-1.42-38.95-6.52-74.56-18.06-103.52C472.81,162.37,469.64,161.93,466.48,161.52Zm39.52,6-10.08-1.44v.36c16,32.34,25.56,83.15,24.84,131l8.64-.36c-.11-35.79-4.29-70.91-13-99.7Zm69.83,16.56-11.16-3.6-.36.36c16.62,30.75,29.45,86.5,28.8,133.54l8.63-.36c-.38-35.82-5.83-70.84-14.75-99.7ZM637,331c-.1-36.31-3.95-70.46-11.88-99.35-1.95-7.11-7-28.9-10.8-32.75l-12.24-5.76c3.38,9.87,8.91,19.58,12.24,30.23,9.59,30.63,14.59,68.17,14,107.63ZM536.24,174l-11.16-2.52c16.72,31,30.61,86.53,29.87,133.9l8.64-.36c-.55-36.42-6.57-71.9-15.84-101.14Q542,189,536.24,174Z"/></g><g id="Forma_1682" data-name="Forma 1682"><path class="cls-1" d="M664.73,310.1C649.64,304,640,273.24,626.89,271.23s-20.33,4.74-36.66,4.68S543,255.54,534.8,239.19s-39.46-28.74-49-32S461.46,185.5,461,176.56s-.87-21.31-10.8-24.83-18.36,7.92-18.36,7.92C405.07,325.55,615.06,345,615.06,345s50.15-4.45,57.59-8.64S679.82,316.21,664.73,310.1Z"/></g><g id="Forma_1682_copia" data-name="Forma 1682 copia"><path class="cls-2" d="M620.1,275.55c-23.82,5.3-37.43,4.67-37.43,4.67s12.52,6.44,25.91,2.52C627,277.36,637,290.3,637,290.3S629.75,273.4,620.1,275.55Zm-181-122.32a26.29,26.29,0,0,0-5.85,4.83c10.8,11.91,24.9,47.46,23.85,43.7C452.07,184,452,170.61,439.05,153.23Zm74.87,73s-26.62-9.85-41-15.47c0,0,17.79,12.16,35.63,20.15,11.76,5.27,19.65,14.18,25.92,24.63C534.44,255.54,536.65,235.73,513.92,226.23Z"/></g><g id="Forma_1686" data-name="Forma 1686"><path class="cls-3" d="M480.81,234.15c5.67,2.43,31.31,28.44,31.31,28.44,24.24,24.06,39.59,25.19,39.59,25.19-12.13-5.82-14.89-9.5-34.55-28.43S480.81,234.15,480.81,234.15Zm188.72,78.54c1.72,12-5.63,13.47-5.88,14.69-7.57,0-16.3-.72-32-3.24s-56.15-23.76-56.15-23.76c6.21,6.52,30.76,23.83,51.49,28.8,24.73,5.92,27.1,10.35,27.32,11.31,8.59-1.28,15.88-2.71,18.37-4.12C679.2,332.69,679.77,319.87,669.53,312.69Z"/></g><g id="Elipse_1235" data-name="Elipse 1235"><path class="cls-3" d="M558,573.29a6,6,0,0,0-5.53,6.1,5.46,5.46,0,0,0,5.55,5.67,6,6,0,0,0,5.62-6.14A5.47,5.47,0,0,0,558,573.29Zm23.71-8.55a9.74,9.74,0,0,0,6.94-10.35c-.63-4.43-4.72-6.92-9.1-5.62A9.78,9.78,0,0,0,572.74,559,6.84,6.84,0,0,0,581.71,564.74Zm-41.08-4.66a4.11,4.11,0,0,0-3.49,4.16,3.34,3.34,0,0,0,4,3,4.12,4.12,0,0,0,3.53-4.19A3.34,3.34,0,0,0,540.63,560.08Zm85.93-36.86c-.85-1.81-3.35-2-5.58-.51s-3.34,4.22-2.52,6,3.31,2.08,5.56.55S627.41,525.05,626.56,523.22Zm-41.67,52a15.4,15.4,0,0,0-11.27,16.4,12,12,0,0,0,14.74,10.58A15.36,15.36,0,0,0,600,585.39,12,12,0,0,0,584.89,575.2Zm27.23-32.86c-5.16,1.55-8.67,6.8-7.88,11.78s5.66,8,10.92,6.49,8.94-6.88,8.05-12S617.33,540.77,612.12,542.34Z"/></g><g id="Elipse_1235-2" data-name="Elipse 1235"><path class="cls-3" d="M174.57,538.38c-5.22-1.57-10.21,1.22-11.09,6.29s2.73,10.49,8.05,12,10.12-1.46,10.91-6.48S179.73,539.93,174.57,538.38Zm27.22,32.86a12,12,0,0,0-15.1,10.19,15.36,15.36,0,0,0,11.63,16.79,12,12,0,0,0,14.75-10.58A15.41,15.41,0,0,0,201.79,571.24Zm-33.57-46.45c.83-1.82-.3-4.51-2.52-6s-4.73-1.3-5.57.51.28,4.56,2.54,6.08S167.4,526.61,168.22,524.79Zm60.46,44.54a5.46,5.46,0,0,0-5.63,5.63,6,6,0,0,0,5.62,6.14,5.47,5.47,0,0,0,5.55-5.67A6,6,0,0,0,228.68,569.33Zm17.37-13.21a3.35,3.35,0,0,0-4,3,4.13,4.13,0,0,0,3.54,4.19,3.33,3.33,0,0,0,4-3A4.12,4.12,0,0,0,246.05,556.12Zm-38.92-11.31c-4.38-1.3-8.47,1.19-9.1,5.62A9.75,9.75,0,0,0,205,560.79a6.85,6.85,0,0,0,9-5.77A9.78,9.78,0,0,0,207.13,544.81Z"/></g></svg>