<svg id="Assets" xmlns="http://www.w3.org/2000/svg" viewBox="0 0 800 800"><defs><style>.cls-1{fill:#ffa4a2;}.cls-2{fill:#ffbcbb;}.cls-3{fill:#cb716f;}.cls-4{fill:#ef8c8b;}.cls-5{fill:#7e9097;}.cls-6{fill:#dcdcdc;}.cls-7{fill:#adb5b9;}.cls-8{opacity:0.36;}.cls-9{fill:#556a72;}.cls-10{fill:#70828a;}.cls-11{opacity:0.51;}.cls-12{fill:#fff;}.cls-13{fill:#f08577;}.cls-14{fill:#dd7161;}.cls-15{fill:#331212;}.cls-16{fill:#1d0502;}.cls-17{fill:#693737;}.cls-18{fill:#ffa785;}.cls-19{opacity:0.86;}</style></defs><g id="Forma_6734_copia" data-name="Forma 6734 copia"><path class="cls-1" d="M757.6,228.16c-11.05,16.44-29.8,28-34.17,31.2,8.67-14.14,13.37-35.78,15.9-51.84-42.59-38.68-72.81-32.15-111.21-1.06a369.36,369.36,0,0,1-75.8,47.09l21.9,121.55c56.1,58.4,165.42,7.49,185.9-28.23C779.08,313.81,784.23,266.92,757.6,228.16Z"/></g><g id="Forma_6344" data-name="Forma 6344"><path class="cls-2" d="M757.55,229.13s-1-3.78-7.87.69-12.44,14.08-24.94,22c-.59,3.06-8.7,14.75-6.56,13.74s29.63-16.08,39.37-30.91C759.23,232.08,757.55,229.13,757.55,229.13Z"/></g><g id="Forma_6734_copia_4" data-name="Forma 6734 copia 4"><path class="cls-3" d="M757.68,231l-1.09-1.35c-11.14,15.66-28.93,26.64-33.16,29.73,8.12-13.24,12.76-33.06,15.39-48.72-43-38.7-81.2-21.39-100.45,9.84-17.24,27.94-66.56,44.43-66.56,44.43l65.72,136.72c50,1.63,107.63-28.66,122.59-54.76,1.25-2.17,2.44-4.41,3.56-6.7C779.25,303.5,780,259.17,757.68,231Z"/></g><g id="Forma_6734_copia_3" data-name="Forma 6734 copia 3"><path class="cls-4" d="M753.51,233.66c-11.09,13.5-26.22,22.88-30.08,25.7,7.27-11.86,11.75-29,14.5-43.69-24.87-22.06-57.77-27.13-69.86-15.26-20.84,20.45-15.48,36.26-29.38,59.54-13.54,22.69-36,23.08-36,23.08l21.5,94.48c10.2,18.71,121.9,26.82,141.4-65.85C772.56,278.72,766,252.73,753.51,233.66Z"/></g><g id="Forma_6730" data-name="Forma 6730"><path class="cls-3" d="M616.33,296.2c56.51-13.21,66.16-48.06,66.16-48.06-38.36,43.63-80,38.9-80,38.9l-16,11.69c60.27,23.43,121.82-1.09,121.82-1.09C653,308.07,616.33,296.2,616.33,296.2Z"/></g><g id="Forma_6734_copia_2" data-name="Forma 6734 copia 2"><path class="cls-1" d="M746,241.76c-9.51,9.12-19.49,15.39-22.52,17.6,5.63-9.17,9.58-21.51,12.35-33.43-1-1.18-2.07-2.32-3.16-3.4-24.84-24.62-52.62-20.76-62.8.67-10,21-31.54,49.11-31.54,49.11C678.57,255.68,700,220.94,700,220.94c11.15.8,23.09,11.61,23.09,11.61-7.14,27.32-70,60.62-70,60.62,63.77-5.67,91-35.37,91-35.37,13.22,35.15-8.2,80.81-8.2,80.81C758.65,310,759.29,269.78,746,241.76Z"/></g><g id="Forma_6734" data-name="Forma 6734"><path class="cls-2" d="M643.46,219.5c-12.58,58.41-46.28,58.25-46.28,58.25l2.33,5.36c43.55,3.59,50.73-53.71,55.78-68.31,8-23,31-29,31-29S651.2,183.56,643.46,219.5Z"/></g><g id="Forma_6726" data-name="Forma 6726"><path class="cls-1" d="M165.55,206.46c-37.26-31.52-66.47-37.8-108.14,2.67C14.82,250.51,18,308.16,39.2,346.87c19.6,35.72,124.24,86.63,177.94,28.23l21-121.55A350.74,350.74,0,0,1,165.55,206.46Z"/></g><g id="Forma_6728" data-name="Forma 6728"><path class="cls-3" d="M155.74,220.48c-21.09-35.72-65.87-53.25-114.2,10.5C20.17,259.17,20.89,303.5,35.8,340.17c1.07,2.29,2.21,4.53,3.4,6.7,14.32,26.1,69.51,56.39,117.34,54.76l62.91-136.72S172.23,248.42,155.74,220.48Z"/></g><g id="Forma_6729" data-name="Forma 6729"><path class="cls-4" d="M155.43,260c-13.3-23.28-8.17-39.09-28.12-59.54C105.68,178.23,14.5,215.18,33.93,311.66c18.66,92.67,125.58,84.56,135.35,65.85L189.85,283S168.39,282.64,155.43,260Z"/></g><g id="Forma_6730-2" data-name="Forma 6730"><path class="cls-3" d="M190,287s-39.82,4.73-76.53-38.9c0,0,9.23,34.85,63.33,48.06,0,0-35.08,11.87-88.09,1.44,0,0,58.91,24.52,116.6,1.09Z"/></g><g id="Forma_6731" data-name="Forma 6731"><path class="cls-1" d="M141.68,293.17s-60.2-33.3-67-60.62c0,0,11.42-10.81,22.09-11.61,0,0,20.52,34.74,59.09,51.37,0,0-20.65-28.11-30.19-49.11-9.75-21.43-36.33-25.29-60.11-.67-24.38,25.23-30.68,79.85-3.13,116.08,0,0-20.5-45.66-7.84-80.81C54.56,257.8,80.65,287.5,141.68,293.17Z"/></g><g id="Forma_6734-2" data-name="Forma 6734"><path class="cls-2" d="M150.87,219.5c-7.41-35.94-41-33.72-41-33.72s22.09,6,29.71,29c4.84,14.6,11.71,71.9,53.39,68.31l2.23-5.36S162.91,277.91,150.87,219.5Z"/></g><g id="Forma_6720_copia" data-name="Forma 6720 copia"><path class="cls-5" d="M703.93,506.07c-22.92-17.29-30.17-35.47-52.62-93.35-17-43.9-27.88-147.58-84.34-196.83-78.15-68.18-265.3-63.79-338.43,0-56.45,49.25-67.31,152.93-84.33,196.83-22.45,57.88-29.7,76.06-52.62,93.35,0,0,11.15,12.09,23.06,10.12,0,0-25.72,47.54-16.21,60,3.94,5.17,18.38-2.62,18.38-2.62S110.16,623.39,180.61,683C344,821.39,450,822.61,614.91,683c70.45-59.64,63.79-109.47,63.79-109.47s14.44,7.79,18.38,2.62c9.51-12.45-16.21-60-16.21-60C692.78,518.16,703.93,506.07,703.93,506.07Z"/></g><g id="Forma_6722_copia" data-name="Forma 6722 copia"><path class="cls-6" d="M540,556.74s90.72-51.76,59.08-165S433.53,286.13,426.67,377.85,495.79,572.11,435,588.3l-78.21,2.06c-52-31.3,24.6-120.79,17.74-212.51s-159.76-99.38-191.4,13.87,60.46,165,60.46,165-61.17,52.33-48.2,85.43c25.51,65.11,74.22,104.21,117.27,127.17,44.31,18.23,86.27,22.57,129.6,12.9C490,762.32,555.67,721.59,586.8,642.17,599.77,609.07,540,556.74,540,556.74Z"/></g><g id="Forma_6723" data-name="Forma 6723"><path class="cls-7" d="M115,516.19c-7.09,11.92-24.41,49.73-16.57,60a3.39,3.39,0,0,0,.4.45c5.8-18.33,20.49-53.45,32.39-66.81C124.92,510.18,120.14,511.67,115,516.19Zm1.81,57c-.74,23,8.81,63.31,63.79,109.85q9.85,8.36,19.45,16c-65.22-71.29-70.27-139.75-70.27-139.75C122.32,564,119.64,567.23,116.82,573.18ZM228.54,215.89c-56.45,49.25-67.31,152.93-84.33,196.83-22.45,57.88-29.7,76.06-52.62,93.35,0,0-.87-.72.36.38,80.64-51.7,62-141.73,123.26-255.32,26.22-48.59,105.82-74.82,191.58-84.66C337.47,165.11,267.13,182.23,228.54,215.89Z"/></g><g id="Forma_6724" data-name="Forma 6724" class="cls-8"><path class="cls-9" d="M665,514.7c16.25,22.24,25.1,34.45,31.9,61.68.06-.07.12-.13.17-.2,8.85-11.58-12.79-53.51-15.85-59.31C673.28,512.91,666.2,513.9,665,514.7Zm1.44,42.36S654.19,713,424.84,776.28C400.7,782.94,373.3,782.07,344,780c86.35,23.1,166.93-8.91,271-97,60.43-51.16,64.13-95.1,64-106.56C677.52,571.58,672.79,561.72,666.45,557.06ZM651.31,412.72c-17-43.9-27.88-147.58-84.34-196.83q-5-4.33-10.5-8.27c19.13,21.34,39.86,49.77,48,79.5C624.93,362,644.6,490.79,703.32,506.7c.39-.39.61-.63.61-.63C681,488.78,673.76,470.6,651.31,412.72Z"/></g><g id="Forma_6342_copia" data-name="Forma 6342 copia"><path class="cls-10" d="M305.85,195.35a99.87,99.87,0,0,0,56.56,15.81c-23,8.93-46.28,15.65-47.47,16.28,61.8,14.91,104.28-33.62,104.28-33.62S376.65,184.46,305.85,195.35Z"/></g><g id="Forma_6340" data-name="Forma 6340"><path class="cls-5" d="M384.23,123.16C352.32,105.5,328.31,104.36,321.8,95c0,0,4.73,35.32,28.82,59.69,0,0-45.28-12.49-63.12-24,5,5,4,37.45,49.39,58.32,0,0-7.26,13.91-32.24,24.7,0,0,103.08,25.87,126.23-37.74C436.35,161,416.15,140.81,384.23,123.16Z"/></g><g id="Forma_6341" data-name="Forma 6341"><path class="cls-7" d="M364.34,159.52c-28.17-30.54-38.59-53.68-42.18-64-.12-.16-.25-.31-.36-.47,0,0,4.73,35.32,28.82,59.69ZM289,131.65c-.53-.31-1-.63-1.53-1,5,5,4,37.45,49.39,58.32,0,0-7.26,13.91-32.24,24.7l.18,0c24.56-3,51.27-22,51.27-22C316.43,175.3,296.06,144.42,289,131.65Z"/></g><g id="Forma_4735" data-name="Forma 4735" class="cls-11"><path class="cls-5" d="M457.2,543.51c-19.8,6.83-96.65,38.68-96.65,38.68s23.63,58.24,75.63,21.26C487,567.35,466.31,552.06,457.2,543.51Z"/></g><g id="Forma_31_copia_2" data-name="Forma 31 copia 2"><path class="cls-12" d="M307.85,590.24S181,523.56,82.91,578.05C82.91,578.05,185.93,537.54,307.85,590.24Zm1.81,12S173.35,579.52,93.58,655.36C93.58,655.36,180.15,590.63,309.66,602.2ZM138.49,708.7s56.4-72.46,166.33-100.12C304.82,608.58,188.13,629.12,138.49,708.7Z"/></g><g id="Forma_31_copia_2-2" data-name="Forma 31 copia 2"><path class="cls-12" d="M711.43,581.83c-81.94-58.57-224.87,7.54-224.87,7.54C626.66,536.9,711.43,581.83,711.43,581.83ZM483,603.57C629.22,592,699.09,655.13,699.09,655.13,632.82,579.78,483,603.57,483,603.57Zm5.48,7.58c122.78,29.27,169.24,100.27,169.24,100.27C615.67,630.88,488.49,611.15,488.49,611.15Z"/></g><g id="Forma_4720_copia" data-name="Forma 4720 copia"><path class="cls-13" d="M459.12,540.82c-19.93-38.66-58.36-37.07-61.85-36.85-3.49-.22-41.91-1.81-61.85,36.85-13.35,25.89,26.5,71.49,61.6,71.49h.51C432.63,612.31,472.47,566.71,459.12,540.82Z"/></g><g id="Forma_4722_copia" data-name="Forma 4722 copia"><path class="cls-14" d="M426.27,551.84c-24.45,2.66-37.2,2.38-59,0-8.48-.93-23.76,14-19.24,34.38,12.68,14.66,31.44,26.09,49,26.09h.51c16.93,0,35-10.61,47.6-24.5C450.83,566.58,435,550.89,426.27,551.84Z"/></g><g id="Forma_4724" data-name="Forma 4724"><path class="cls-15" d="M358.27,573.07c-10.16,1.1-3.34,15.59-3.34,15.59-2-6.62,1.28-9.14,1.28-9.14-5.25,5.9,10.07,22.11,16.17,17.47,1.87,1.84,1.8,6.19,1.8,6.19C378.14,593.42,368.43,572,358.27,573.07Z"/></g><g id="Forma_4725" data-name="Forma 4725"><path class="cls-16" d="M361.93,573.61c-2.32.91-5.54,3.28-3.15,9.14,3,7.39,10.69,15.34,16,11.55C373.54,585.82,368.15,576.06,361.93,573.61Z"/></g><g id="Forma_4724_copia" data-name="Forma 4724 copia"><path class="cls-15" d="M433.2,573.07c-10.16-1.1-19.87,20.35-15.91,30.11,0,0-.08-4.35,1.8-6.19,6.1,4.64,21.42-11.57,16.17-17.47,0,0,3.28,2.52,1.28,9.14C436.54,588.66,443.36,574.17,433.2,573.07Z"/></g><g id="Forma_4725_copia" data-name="Forma 4725 copia"><path class="cls-16" d="M429.54,573.61c-6.22,2.45-11.62,12.21-12.88,20.69,5.34,3.79,13-4.16,16-11.55C435.08,576.89,431.85,574.52,429.54,573.61Z"/></g><g id="Forma_4728" data-name="Forma 4728"><path class="cls-17" d="M355.46,585.75c6.56,19.08,16.92,11.78,16.92,11.78C361.1,600.52,355.79,586.65,355.46,585.75Zm64.91,12.59c13.85,3.35,15.66-12.1,15.66-12.1C429.37,599.68,420.37,598.34,420.37,598.34Zm-62.62-26.61c9.7-.8,18.22,19.08,18.22,19.08C367.2,565.85,357.75,571.73,357.75,571.73ZM398,606.67s4.11-16.93,0-43.54Zm36.45-35.21s-13.3-3.48-18.74,20.7C415.75,592.16,421.92,573.29,434.49,571.46Z"/></g><g id="Forma_4723" data-name="Forma 4723"><path class="cls-18" d="M413.12,512.64c-33.56-6.43-53.84,7.51-58.57,12.53s-3,8,3.11,5.09c19.78-9.51,39-12.08,55.79-12.61C420.4,517.42,426.48,515.94,413.12,512.64Z"/></g><g id="Elipse_4754" data-name="Elipse 4754" class="cls-19"><path class="cls-12" d="M384.18,516.67c-.85-1.59-4.63-2-9.32-.64-5.11,1-8.65,5.42-7.6,6.7s6.53-2,11-3.11C382.43,518.6,385,518.08,384.18,516.67Z"/></g></svg>