<svg id="Assets" xmlns="http://www.w3.org/2000/svg" viewBox="0 0 800 800"><defs><style>.cls-1{fill:#39b25e;}.cls-2{fill:#20a44e;}.cls-3{fill:#008e37;}.cls-4{fill:#62cf7d;}.cls-5{fill:#159f4a;}.cls-6{fill:#81ea98;}.cls-7{fill:#b1fdbe;}.cls-8{fill:#55bf63;}.cls-9{fill:#45b966;}.cls-10{fill:#82eb99;}.cls-11{fill:#129e49;}.cls-12{fill:#00862d;}.cls-13{fill:#006b08;}.cls-14{fill:#47ba67;}.cls-15{fill:#b2ffbf;}.cls-16{fill:#18a04b;}.cls-17{fill:#fff;}.cls-18{fill:#4b5150;}</style></defs><g id="Forma_7067" data-name="Forma 7067"><path class="cls-1" d="M162.4,451s-55.06-35.19-125.11-26.17c-15.38,2-7.53,28-7.53,28S47.23,557.45,87.48,574s92.88,17,113.28,4.66C197.89,555.29,162.4,451,162.4,451Z"/></g><g id="Forma_7069" data-name="Forma 7069"><path class="cls-2" d="M129.78,491.53S72.67,440,50.55,451.37C38.11,457.8,62.13,532.23,86,547.81s50.61,18.7,65.61,9.68C151.65,557.49,118.3,545.08,129.78,491.53Z"/></g><g id="Forma_7070" data-name="Forma 7070"><path class="cls-3" d="M118,499.77c-2.93-18-60.43-68.33-69.91-49.83s14.34,69.91,14.34,69.91c-10.15-39.22-4.66-56.65-4.66-56.65,35.21,17.54,52,44.1,52,44.1S99,521.48,106.48,534.19C123.56,563.32,147,553.9,147,553.9,124.22,543.49,118,499.77,118,499.77Z"/></g><g id="Forma_7071" data-name="Forma 7071"><path class="cls-4" d="M165.27,468.94l1.87-3.82c-2.89-8.67-4.74-14.1-4.74-14.1s-55.06-35.19-125.11-26.17c-15.38,2-7.53,28-7.53,28a406.29,406.29,0,0,0,10.39,43.66c-3.07-22.12-5.1-47,.36-51.55,6.63-5.53,57.55,28.24,76.36,55.21,0,0-.74,45,33.7,57.36,0,0-30.69-36.27-21.15-63.45,0,0-31.6-44-62.38-55.21C67,438.83,90,435.88,165.27,468.94Z"/></g><g id="Forma_7067-2" data-name="Forma 7067"><path class="cls-1" d="M752.12,424.85C682.06,415.83,627,451,627,451s-35.48,104.27-38.35,127.62C609,591,661.69,590.51,701.93,574s57.72-121.17,57.72-121.17S767.5,426.82,752.12,424.85Z"/></g><g id="Forma_7069-2" data-name="Forma 7069"><path class="cls-2" d="M738.85,451.37c-22.12-11.41-79.22,40.16-79.22,40.16,11.48,53.55-21.87,66-21.87,66,15,9,41.7,5.9,65.6-9.68S751.3,457.8,738.85,451.37Z"/></g><g id="Forma_7070-2" data-name="Forma 7070"><path class="cls-3" d="M741.36,449.94c-9.48-18.5-67,31.85-69.9,49.83,0,0-6.28,43.72-29,54.13,0,0,23.43,9.42,40.51-19.71,7.45-12.71-3.23-26.89-3.23-26.89s16.77-26.56,52-44.1c0,0,5.5,17.43-4.66,56.65C727,519.85,750.84,468.44,741.36,449.94Z"/></g><g id="Forma_7071-2" data-name="Forma 7071"><path class="cls-4" d="M752.12,424.85C682.06,415.83,627,451,627,451s-1.85,5.43-4.74,14.1l1.88,3.82c75.27-33.06,98.22-30.11,98.22-30.11C691.59,450,660,494,660,494c9.53,27.18-21.16,63.45-21.16,63.45,34.45-12.31,33.7-57.36,33.7-57.36,18.82-27,69.74-60.74,76.36-55.21,5.47,4.57,3.43,29.43.36,51.55a405,405,0,0,0,10.4-43.66S767.5,426.82,752.12,424.85Z"/></g><g id="Forma_7080" data-name="Forma 7080"><path class="cls-5" d="M638.2,444.91,608.84,585.36a142.36,142.36,0,0,0,26.63,1.83c17.66-54.72,27.89-128.71,31-153.69A211.27,211.27,0,0,0,638.2,444.91Z"/></g><g id="Forma_7037_copia" data-name="Forma 7037 copia"><path class="cls-4" d="M617.68,241.3c-59.9-86.74-190.93-90.84-217.24-90.77s-157.34,4-217.25,90.77c-55.23,80-41.06,172.87-31.54,231.94s31.21,182.53,77.79,223.7c41.84,37,101.3,72.06,160.83,76.71.08.24.13.37.13.37q5,.21,10,.12c3.35.06,6.69,0,10-.12,0,0,0-.13.13-.37,59.52-4.65,119-39.73,160.83-76.71,46.58-41.17,68.28-164.63,77.79-223.7S672.92,321.27,617.68,241.3Z"/></g><g id="Forma_7038" data-name="Forma 7038"><path class="cls-6" d="M206.49,548.53S149.89,392,182.12,346.7c18-25.35,84.6-42.31,84.6-42.31-47.16-11.09-74.57-2.15-74.57-2.15,8.92-68,52.06-108.52,82.72-129.2-34.42,13.35-68.41,34.57-91.68,68.26-55.23,80-41.06,172.87-31.54,231.94s31.21,182.53,77.79,223.7A365.4,365.4,0,0,0,284,736.8C234.88,675.86,206.49,548.53,206.49,548.53Z"/></g><g id="Forma_7040" data-name="Forma 7040"><path class="cls-1" d="M617.68,241.3C565.32,165.49,458.62,152.8,415,150.86c47.15,15.15,140,55.26,180.09,144.21,0,0-33.23-6.34-57-1.43,3.49-.64,51.84,17.6,86,44.45,25.26,19.83,12.54,66,12.54,66,.41-11.56-54.78-57.33-118.66-40.86,0,0,21-61.56-23.66-107.19,0,0,24.94,80.39-18.64,116.51s-111.38,45-163.47-19.72c0,0,.26,19.3,12.19,32.62,0,0-101.05-68.41-162.4,23.3-25.87,38.68,24,129.06,24,129.06s35.78,63.65,138.74-7.53c36.32-25.11,40.32-69.6,75.28-71,37.91-1.49,35.21,37.47,78.15,73.85s98.84,26,123.32,16.49c0,0-5.18,102.79-44.45,139.1-24.81,22.93-57.18,50.22-77.67,67.21,34.56-14.67,66.55-36.46,92-59,46.58-41.17,68.28-164.63,77.79-223.7S672.92,321.27,617.68,241.3Z"/></g><g id="Forma_7041" data-name="Forma 7041"><path class="cls-5" d="M358.85,438.83c-10.9-38-79.81-120.19-164.19-26.89-66,73,28.1,169.17,100.38,131.21S369.76,476.79,358.85,438.83Z"/></g><g id="Forma_7041_copia" data-name="Forma 7041 copia"><path class="cls-5" d="M606.21,411.94c-84.38-93.3-153.28-11.07-164.19,26.89s-8.47,66.36,63.81,104.32S672.2,484.91,606.21,411.94Z"/></g><g id="Forma_7039" data-name="Forma 7039"><path class="cls-7" d="M193.2,228.3a162.17,162.17,0,0,0-10,13c-55.23,80-41.06,172.87-31.54,231.94,1.54,9.61,3.41,20.93,5.66,33.31-5.6-80.39-8.43-123.27.79-163.08C168.6,326.6,219,306.9,219,306.9c-27.29,2.16-55.21,14.7-55.21,14.7C167.58,294.46,183.41,252.48,193.2,228.3Zm200.43-23.21S318.38,194.8,295,254.56c-18.54,47.49,8.25,84.25,8.25,84.25S272.64,231,393.63,205.09Z"/></g><g id="Elipse_7045" data-name="Elipse 7045"><path class="cls-8" d="M245.16,575c-.54-2.37-3.81-3.64-7-3-3,.6-4.93,2.66-4.64,4.69s2.93,3.61,6.11,3.33C243.09,579.78,245.72,577.47,245.16,575Z"/></g><g id="Elipse_7045_copia" data-name="Elipse 7045 copia"><path class="cls-8" d="M282.05,564.41c-.62-2.78-4.4-4.27-8.13-3.49-3.42.71-5.71,3.13-5.37,5.51s3.38,4.25,7.06,3.93C279.65,570,282.7,567.28,282.05,564.41Z"/></g><g id="Elipse_7045_copia_2" data-name="Elipse 7045 copia 2"><path class="cls-8" d="M321.91,549.24c-.92-2.17-4.83-2.88-8.45-1.75-3.3,1-5.31,3.28-4.72,5.16s3.81,3,7.42,2.25C320.13,554.07,322.85,551.47,321.91,549.24Z"/></g><g id="Elipse_7045_copia_3" data-name="Elipse 7045 copia 3"><path class="cls-8" d="M307.69,571.54c-.8-1.9-4.22-2.52-7.38-1.54-2.89.9-4.65,2.88-4.13,4.52s3.33,2.62,6.49,2C306.14,575.77,308.52,573.49,307.69,571.54Z"/></g><g id="Elipse_7045_copia_4" data-name="Elipse 7045 copia 4"><path class="cls-8" d="M568.85,572.06c-3.23-.67-6.5.6-7,3s2.08,4.75,5.57,5.05c3.18.28,5.81-1.24,6.11-3.33S571.8,572.66,568.85,572.06Z"/></g><g id="Elipse_7045_copia_4-2" data-name="Elipse 7045 copia 4"><path class="cls-8" d="M533.05,560.92c-3.73-.78-7.51.71-8.13,3.49s2.4,5.59,6.44,6c3.68.32,6.71-1.47,7.06-3.93S536.47,561.63,533.05,560.92Z"/></g><g id="Elipse_7045_copia_4-3" data-name="Elipse 7045 copia 4"><path class="cls-8" d="M493.51,547.49c-3.62-1.13-7.53-.42-8.45,1.75s1.78,4.83,5.75,5.66c3.61.74,6.81-.31,7.42-2.25S496.81,548.51,493.51,547.49Z"/></g><g id="Elipse_7045_copia_4-4" data-name="Elipse 7045 copia 4"><path class="cls-8" d="M506.66,570c-3.16-1-6.58-.36-7.38,1.54s1.55,4.23,5,4.94c3.16.66,6-.26,6.49-2S509.55,570.9,506.66,570Z"/></g><g id="Forma_7030" data-name="Forma 7030"><path class="cls-1" d="M481.82,574.7c-3.14-10.51-27.21-58.23-64.17-62.38s-73.46,83.17-51.27,103.6c0,0,29.37,18.17,79.23,7.17S483.49,580.3,481.82,574.7Z"/></g><g id="Forma_7032" data-name="Forma 7032"><path class="cls-9" d="M475.36,574.7c-6.28-43.38-45.19-63.8-61.66-67.76s-36.17-2.52-62,22.23c-25.66,24.57-30.25,53-20.07,63.45,22.17,22.71,36.86,28.55,68.83,29C428.73,622.09,479.36,602.29,475.36,574.7Z"/></g><g id="Forma_7034" data-name="Forma 7034"><path class="cls-10" d="M377.49,586.88c-12-8-18.68-11.93-31.9-11.11,0,0,3.28-47.22,44.13-69.37-11.1,2.41-23.61,9-38,22.77-25.66,24.57-30.25,53-20.07,63.45,9,9.24,16.8,15.69,25,20.12,28.44-.86,57.8-16.89,57.8-16.89S389.47,594.84,377.49,586.88Z"/></g><g id="Forma_7033" data-name="Forma 7033"><path class="cls-11" d="M468.19,586.53c-7.56-10.49-36.74,1.86-43,5s-28.13,7.8-48,0-36.77-12.88-42.66-5.73a9.69,9.69,0,0,0-2.23,7.46c21.81,22.16,36.53,27.9,68.19,28.39,20.81.32,53.71-10.32,68.06-26.95C469.89,591.87,470,589.07,468.19,586.53Z"/></g><g id="Forma_7027" data-name="Forma 7027"><path class="cls-12" d="M363.87,595.85c-3.46-3-14.64-7.24-17.21-3.23s7.17,12.19,7.17,12.19,15.84,10.13,18.29,5.38S367.33,598.82,363.87,595.85Z"/></g><g id="Forma_7028" data-name="Forma 7028"><path class="cls-13" d="M363.87,595.49c-5.9-3.89-15.27-6.89-17.21-4s1.44,5.74,1.44,5.74c-1.27-4.8,2.87-4.3,2.87-4.3,2.61,5.67,14.18,16.08,19.71,14,2.45,3.24-1.79,3.94-1.79,3.94s2.16,1.79,4.3-1.43S369.78,599.37,363.87,595.49Z"/></g><g id="Forma_7027_copia" data-name="Forma 7027 copia"><path class="cls-12" d="M454.93,592.62c-2.56-4-13.75.25-17.21,3.23s-10.69,9.58-8.24,14.34,18.28-5.38,18.28-5.38S457.49,596.63,454.93,592.62Z"/></g><g id="Forma_7028_copia" data-name="Forma 7028 copia"><path class="cls-13" d="M454.93,591.54c-1.93-2.94-11.3.06-17.21,4s-11.46,10.76-9.32,14,4.3,1.43,4.3,1.43-4.24-.7-1.79-3.94c5.53,2.1,17.1-8.31,19.72-14,0,0,4.13-.5,2.86,4.3C453.49,597.28,456.86,594.49,454.93,591.54Z"/></g><g id="Forma_7058" data-name="Forma 7058"><path class="cls-14" d="M365.4,179.55c-12.58,2.45-15.36,8.26-15.26,8.23.16-.33-7.74.76-21.25,3-13.29,2.68-32.2,6.51-49.17,21.9-.12-.16-5,6.26-10.26,12.42s-10.88,12.17-10.21,12c1.11-.44,12.49,11.93,30.49-2.14,8.89-7.16,16.22-16,26.18-22.78,9.86-7,22.36-11.95,39.21-16.81a16.53,16.53,0,0,0,14.38,3.51C390.15,194.08,388.17,176.07,365.4,179.55Z"/></g><g id="Forma_7055" data-name="Forma 7055"><path class="cls-4" d="M200.76,116.9a31,31,0,0,0-12.19-23.66C176,83.67,159.72,88.73,146.27,104s-3.7,31.12,4.66,38.36,27.5,8,33.34,2.86c4.55,2.14,37.51,44.79,54.85,88.55,6.77,17.09,49.36,9.54,52-12.55C291.73,215.92,294.73,192.92,200.76,116.9Z"/></g><g id="Forma_7057" data-name="Forma 7057"><path class="cls-14" d="M200.76,116.9a31,31,0,0,0-12.19-23.66c-7.24-5.52-15.73-6.16-24.2-2.79,11.3,1.81,28.53,6.31,29.58,32.19,1.15,2.31,42.16,24.66,83.94,115.49,7-3.76,12.33-9.52,13.21-16.91C291.73,215.92,294.73,192.92,200.76,116.9Z"/></g><g id="Forma_7056" data-name="Forma 7056"><path class="cls-15" d="M243.42,225.88c-10.48-19.7-23.25-57.65-55.21-85,0,0,5.8-5.7,4.3-11.47,0,0-13.66,18.54-38.36,3.23,0,0,8.89-2.52,3.23-14.34s-11-6.24-11.47-1.08c0,0-3.42-5.54,3.3-16.39-1,1-2,2-2.94,3.13-13.46,15.27-3.7,31.12,4.66,38.36s27.5,8,33.34,2.86c4.55,2.14,37.51,44.79,54.85,88.55,2.41,6.08,9.36,9,17.43,9.34A62.21,62.21,0,0,1,243.42,225.88Z"/></g><g id="Forma_7058-2" data-name="Forma 7058"><path class="cls-16" d="M631,299.1c-6-10-11.55-9.63-11.6-9.56s-2.7-6.62-9.77-18.32c-7.32-11.29-19-27.73-42.75-38.05-.17.15-31.11-9.28-32.19-9.65,1,.79-7,15.62,13.67,26.24,10.45,5.17,22.82,9.39,34.14,16.9,11.45,7.3,21.86,17.9,31.51,31,0,0-3.66,7.52.49,14.5C624.82,328.06,642.9,317.17,631,299.1Zm-96.31-75.58h0C534.67,223.5,534.68,223.5,534.72,223.52Z"/></g><g id="Forma_7055-2" data-name="Forma 7055"><path class="cls-4" d="M663.21,104c-13.45-15.27-29.76-20.33-42.3-10.76a31,31,0,0,0-12.19,23.66c-94,76-91,99-90.34,104.32,2.62,22.09,45.21,29.64,52,12.55,17.34-43.76,50.3-86.41,54.85-88.55,5.84,5.11,25,4.37,33.34-2.86S676.67,119.27,663.21,104Z"/></g><g id="Forma_7057-2" data-name="Forma 7057"><path class="cls-15" d="M620.91,93.24a31,31,0,0,0-12.19,23.66c-94,76-91,99-90.34,104.32.88,7.39,6.23,13.15,13.21,16.91C573.37,147.3,614.38,125,615.53,122.64c1.05-25.88,18.28-30.38,29.58-32.19C636.64,87.08,628.15,87.72,620.91,93.24Z"/></g><g id="Elipse_7066" data-name="Elipse 7066"><path class="cls-15" d="M631.49,93.6c-4.66,0-8.43,2.89-8.43,6.45s3.77,6.46,8.43,6.46,8.42-2.89,8.42-6.46S636.14,93.6,631.49,93.6Z"/></g><g id="Forma_7056-2" data-name="Forma 7056"><path class="cls-16" d="M663.21,104c-1-1.1-2-2.14-2.94-3.13,10,16.1-4.94,31.81-4.94,31.81C630.63,148,617,129.45,617,129.45c-1.5,5.77,4.3,11.47,4.3,11.47-32,27.31-44.73,65.26-55.21,85a62.21,62.21,0,0,1-13.13,17.23c8.07-.3,15-3.26,17.43-9.34,17.34-43.76,50.3-86.41,54.85-88.55,5.84,5.11,25,4.37,33.34-2.86S676.67,119.27,663.21,104Z"/></g><g id="Elipse_7025" data-name="Elipse 7025"><circle class="cls-17" cx="395.78" cy="307.62" r="70.26"/></g><g id="Elipse_7024" data-name="Elipse 7024"><path class="cls-18" d="M396.6,276.94A33.09,33.09,0,1,0,429.69,310,33.09,33.09,0,0,0,396.6,276.94Z"/></g><g id="Elipse_7025-2" data-name="Elipse 7025"><path class="cls-17" d="M383.59,289.34a8.25,8.25,0,1,0,8.24,8.24A8.25,8.25,0,0,0,383.59,289.34Z"/></g></svg>