<svg id="Assets" xmlns="http://www.w3.org/2000/svg" viewBox="0 0 800 800"><defs><style>.cls-1{fill:#838395;}.cls-2{fill:#aeaeb4;}.cls-3{fill:#59596a;}.cls-4{fill:#9494a2;}.cls-5{fill:#c8c8d9;}.cls-6{fill:#80808d;}.cls-7{fill:#4e4e61;}.cls-8{opacity:0.67;}.cls-9{fill:#696978;}.cls-10{fill:#646476;}.cls-11{opacity:0.64;}.cls-12{fill:#afdfa8;}.cls-13{opacity:0.45;}.cls-14{fill:#32926a;}.cls-15{fill:#fff;}.cls-16{fill:#67bc6a;}.cls-17{fill:#23a064;}.cls-18{opacity:0.49;}.cls-19{fill:#006768;}.cls-20{opacity:0.75;}.cls-21{fill:#a3dc8f;}.cls-22{opacity:0.63;}.cls-23{fill:#d6f3ca;}</style></defs><g id="Forma_6059_copia" data-name="Forma 6059 copia"><path class="cls-1" d="M90.55,621.65c54.94,66.63,76.14,84.11,76.14,84.11,121.26,78.1,345,78.1,466.29,0,0,0,21.2-17.48,76.13-84.11Z"/></g><g id="Forma_6062" data-name="Forma 6062"><path class="cls-2" d="M178.21,707.54c-6-3.64-4-10.72-4-10.72l-8.37-13.39-20,1.69c14.58,15.46,20.86,20.64,20.86,20.64C214.18,736.34,277.38,755,344,761.58,241.35,745.3,183,710.45,178.21,707.54Z"/></g><g id="Forma_6059_copia_2" data-name="Forma 6059 copia 2"><path class="cls-3" d="M90.55,621.65c28.22,34.23,47.54,55.48,59.65,68.06C287.75,757.86,520.87,756.28,654,685c12.21-13,30.19-33.07,55.13-63.32Z"/></g><g id="Forma_6039_copia_3" data-name="Forma 6039 copia 3"><path class="cls-4" d="M743.65,569.94c-8.85-39.72-91.73-64.61-91.73-64.61H148.08S65.2,530.22,56.35,569.94c0,0-2.08,33-1,51.89.31,5.35,6.46,10.46,10.72,14.06,6.19,5.24,55.72,45.7,159.35,65,5.63,1.54,6.93-.81,8.37-2.68,0,0-.74,5.54,6,6.7s69.57,17.36,160,17.4h.34c90.45,0,153.27-16.25,160-17.4s6-6.7,6-6.7c1.44,1.87,2.74,4.22,8.37,2.68,103.63-19.25,153.16-59.71,159.35-65,4.26-3.6,10.41-8.71,10.72-14.06C745.73,603,743.65,569.94,743.65,569.94Z"/></g><g id="Forma_6059" data-name="Forma 6059"><path class="cls-5" d="M573.58,643.26c-10.44-14.2-38.83-35.15-38.83-35.15s6.06,10.16,7.36,11.38,25.65,27.18,27.12,29.79,3,24.78,3,24.78h4S580.65,652.86,573.58,643.26Zm-509.53-65c-4.12-6.12-7.43-11.25-2.12-21.21a39.55,39.55,0,0,0-5.58,12.84s-.78,12.46-1.14,26.44c6,8,14.86,4.69,14.86,4.69l1.15.17C113.43,645.29,223.4,657,223.4,657,116.26,628.09,77.58,594.33,64.05,578.31ZM282,601.07s-48.14,40.64-49.55,56.58,70.14,13.93,97.42,14.06c0,0-88.7-14.59-90.72-17.07C237.68,652.86,230.51,657.05,282,601.07Z"/></g><g id="Forma_6042_copia" data-name="Forma 6042 copia"><path class="cls-6" d="M743.65,569.94c-.13-.6-.28-1.19-.45-1.78-1.56,6.5-6,15-17.29,23.88-30.51,24.1-126.2,81-326.24,81S104.6,616.14,74.09,592c-11.26-8.91-15.73-17.38-17.29-23.88-.17.59-.32,1.18-.45,1.78,0,0-2.08,33-1,51.89.31,5.35,6.46,10.46,10.72,14.06,6.19,5.24,55.72,45.7,159.35,65,5.63,1.54,6.93-.81,8.37-2.68,0,0-.74,5.54,6,6.7s69.41,17.32,159.69,17.4h.33c90.28-.08,153.61-16.25,160.36-17.4s6-6.7,6-6.7c1.44,1.87,2.74,4.22,8.37,2.68,103.63-19.25,153.16-59.71,159.35-65,4.26-3.6,10.41-8.71,10.72-14.06C745.73,603,743.65,569.94,743.65,569.94Z"/></g><g id="Forma_6042_copia-2" data-name="Forma 6042 copia"><path class="cls-7" d="M234.45,637.9c-6.3,7.51-7.62,11.26-8.7,14.73s-1.78,31.4-.34,41.18a24.63,24.63,0,0,0,2,7.44c3.72.49,5-1.22,6.14-2.78-1.12-14.78-1.11-32.11-1.11-32.11s-.82-7.52,1.68-12.72c13.17-25.07,75-74.33,75-74.33l-.34-8.37C286.25,584.45,240.75,630.39,234.45,637.9Zm339.8,14.73c-1.08-3.47-2.4-7.22-8.7-14.73s-51.8-53.45-74.32-67l-.34,8.37s61.82,49.26,75,74.33c2.5,5.2,1.68,12.72,1.68,12.72s0,17.33-1.11,32.11c1.18,1.56,2.42,3.27,6.14,2.78a24.63,24.63,0,0,0,2-7.44C576,684,575.33,656.1,574.25,652.63Z"/></g><g id="Forma_6059-2" data-name="Forma 6059" class="cls-8"><path class="cls-9" d="M603,546.17l-192.83,62.6s160-.51,243.72-27.45ZM139,595.72s88,.26,108.13-6L211,569.94Z"/></g><g id="Forma_6035_copia" data-name="Forma 6035 copia"><path class="cls-2" d="M706.49,551.53c-4.78-9.3-23.1-19.75-23.1-19.75.51-4.08-1.34-16.74-1.34-16.74-4.44-21.8-42.51-28.46-42.51-28.46H160.46S122.39,493.24,118,515c0,0-1.85,12.66-1.34,16.74,0,0-18.32,10.45-23.1,19.75,0,0-1.67,9.17-.67,14.73,0,0,10.42,13.18,45.86,30.13,0,0,57.61-12.79,73.32-17.08,0,0,76.12,31.08,187.81,31.14h.34C511.86,610.39,588,579.31,588,579.31c15.71,4.29,73.32,17.08,73.32,17.08,35.44-16.95,45.86-30.13,45.86-30.13C708.16,560.7,706.49,551.53,706.49,551.53Z"/></g><g id="Forma_6079" data-name="Forma 6079"><path class="cls-4" d="M639.54,486.58H385.2c-26.27,21.94-52.64,46.81-68.39,69.3,0,0,227.84,38.55,360-51.13C665.21,491.07,639.54,486.58,639.54,486.58Z"/></g><g id="Forma_6037_copia" data-name="Forma 6037 copia"><path class="cls-5" d="M682.05,515a20,20,0,0,0-.81-2.9c-2.5,3.83-6.73,8.45-13.92,12.6l16.07,7C683.9,527.7,682.05,515,682.05,515Zm24.44,36.49a2,2,0,0,0-.14-.25c-7.24,6.91-22.24,19-45.72,27.36,0,0-55.34-13.14-70.64-19.41,0,0-71.77,31.1-190,31.13s-190-31.13-190-31.13c-15.3,6.27-70.64,19.41-70.64,19.41-23.48-8.4-38.48-20.45-45.72-27.36a2,2,0,0,0-.14.25s-1.67,9.17-.67,14.73c0,0,10.42,13.18,45.86,30.13,0,0,57.61-12.79,73.32-17.08,0,0,76.12,31.08,187.81,31.14h.34C511.86,610.39,588,579.31,588,579.31c15.71,4.29,73.32,17.08,73.32,17.08,35.44-16.95,45.86-30.13,45.86-30.13C708.16,560.7,706.49,551.53,706.49,551.53ZM132.68,524.74c-7.19-4.15-11.42-8.77-13.92-12.6A20,20,0,0,0,118,515s-1.85,12.66-1.34,16.74Z"/></g><g id="Forma_6039_copia_2" data-name="Forma 6039 copia 2"><path class="cls-10" d="M596.48,561.56c-2.57-.85-4.78-1.63-6.49-2.33,0,0-71.77,31.1-190,31.13s-190-31.13-190-31.13c-1.71.7-3.92,1.48-6.49,2.33-.82,6.29-1.64,13.75-2,20.4,4.3-1,7.93-2,10.46-2.65,0,0,76.12,31.08,187.81,31.14h.34C511.86,610.39,588,579.31,588,579.31c2.53.69,6.16,1.61,10.46,2.65C598.12,575.31,597.3,567.85,596.48,561.56Z"/></g><g id="Forma_6038_copia" data-name="Forma 6038 copia"><path class="cls-6" d="M139.37,578.64l-.07,0c-.1,4.64-.29,11.73-.7,17.72l.1,0s55.5-12.32,72.41-16.83a130.34,130.34,0,0,0-1.1-20.33C194.7,565.5,139.37,578.64,139.37,578.64Zm521.33,0-.07,0S605.3,565.5,590,559.23a130.34,130.34,0,0,0-1.1,20.33c16.91,4.51,72.41,16.83,72.41,16.83l.1,0C661,590.35,660.8,583.26,660.7,578.62Z"/></g><g id="Elipse_6062" data-name="Elipse 6062" class="cls-11"><path class="cls-10" d="M176.92,540.42c-3.48-8.32-17.6-12.19-31.85-9-14.4,3.23-24.59,12.69-22.49,21.52,2.22,9.33,17.1,14.21,33,10.45C171.18,559.66,180.6,549.2,176.92,540.42Z"/></g><g id="Elipse_6062_copia_3" data-name="Elipse 6062 copia 3"><path class="cls-4" d="M176.16,537.75c-3.48-8.32-17.6-12.19-31.85-9-14.41,3.23-24.59,12.69-22.49,21.52,2.22,9.33,17.1,14.21,33,10.45C170.42,557,179.83,546.53,176.16,537.75Z"/></g><g id="Elipse_6062_copia_2" data-name="Elipse 6062 copia 2"><path class="cls-10" d="M169.52,538.8c-2.63-6.28-13.28-9.2-24-6.79s-18.56,9.57-17,16.24c1.67,7,12.91,10.72,24.87,7.88C165.19,553.32,172.29,545.43,169.52,538.8Z"/></g><g id="Elipse_6062_copia" data-name="Elipse 6062 copia"><path class="cls-12" d="M170,540.7c-4.68-2-11.16-2.52-17.69-1.06-10.51,2.35-18,9.1-17.1,15.56,4.71,2,11.3,2.55,18.13.93C164.07,553.59,170.91,546.87,170,540.7Z"/></g><g id="Forma_6066" data-name="Forma 6066" class="cls-13"><path class="cls-14" d="M139.35,556.48a32,32,0,0,0,13.2-.17c.34-9.23,10.28-14.62,10.28-14.62C145.27,543.18,140.24,554.1,139.35,556.48Z"/></g><g id="Forma_6065" data-name="Forma 6065"><path class="cls-15" d="M141.47,550.08c-2.94,2.4-3.64,4.76-3.79,6a25.49,25.49,0,0,0,3.44.73c1.76-4.84,6-7.89,8-9.77C151.23,545,145.74,546.6,141.47,550.08Zm11.83-8.39c-2.31,1.07-3.06,3-2.29,3.82,1.11,1.21,4.8,1.14,7.24-1.53C160.11,542,156.81,540.05,153.3,541.69Z"/></g><g id="Elipse_6062-2" data-name="Elipse 6062" class="cls-11"><path class="cls-10" d="M654.26,531.41c-14.25-3.18-28.37.69-31.85,9-3.68,8.78,5.74,19.24,21.39,23,15.85,3.76,30.73-1.12,33-10.45C678.85,544.1,668.66,534.64,654.26,531.41Z"/></g><g id="Elipse_6062_copia_3-2" data-name="Elipse 6062 copia 3"><path class="cls-4" d="M655,528.74c-14.25-3.18-28.37.69-31.85,9-3.67,8.78,5.74,19.24,21.39,23,15.85,3.76,30.74-1.12,33-10.45C679.61,541.43,669.43,532,655,528.74Z"/></g><g id="Elipse_6062_copia_2-2" data-name="Elipse 6062 copia 2"><path class="cls-10" d="M653.84,532c-10.75-2.41-21.4.51-24,6.79-2.77,6.63,4.33,14.52,16.14,17.33s23.2-.84,24.87-7.88C672.4,541.58,664.72,534.44,653.84,532Z"/></g><g id="Elipse_6062_copia-2" data-name="Elipse 6062 copia"><path class="cls-12" d="M647,539.64c-6.53-1.46-13-1-17.69,1.06-.87,6.17,6,12.89,16.66,15.43,6.83,1.62,13.42,1.11,18.13-.93C665,548.74,657.49,542,647,539.64Z"/></g><g id="Forma_6066-2" data-name="Forma 6066" class="cls-13"><path class="cls-14" d="M636.5,541.69s9.94,5.39,10.28,14.62a32,32,0,0,0,13.2.17C659.09,554.1,654.06,543.18,636.5,541.69Z"/></g><g id="Forma_6065-2" data-name="Forma 6065"><path class="cls-15" d="M646,541.69c-3.51-1.64-6.81.26-4.95,2.29,2.44,2.67,6.13,2.74,7.24,1.53C649.09,544.67,648.34,542.76,646,541.69Zm11.83,8.39c-4.27-3.48-9.76-5.09-7.63-3.05,2,1.88,6.22,4.93,8,9.77a25.49,25.49,0,0,0,3.44-.73C661.5,554.84,660.8,552.48,657.86,550.08Z"/></g><g id="Forma_6034_copia" data-name="Forma 6034 copia"><path class="cls-16" d="M611.75,263c-61.53-81.3-211.58-84-211.58-84s-150,2.73-211.58,84S149.72,471.79,155.78,511c0,0,.22,4.45,6.69,7,45.21,18,108.5,43.65,237.7,43.65s192.48-25.62,237.69-43.65c6.47-2.58,6.7-7,6.7-7C650.62,471.79,673.28,344.24,611.75,263Z"/></g><g id="Forma_6053" data-name="Forma 6053"><path class="cls-17" d="M261.08,423.11c57.23,56.15,70.22,87.4,70.22,87.4,141.25-29,203.46,25.28,203.46,25.28l41.58-93.07C420.27,380.82,261.08,423.11,261.08,423.11Z"/></g><g id="Forma_6053-2" data-name="Forma 6053" class="cls-18"><path class="cls-19" d="M242.49,311.15c-46.89,44.1-32.26,183.91-26.57,226.36,38.05,11.76,88.67,22.21,162.51,23.94C344.73,384.35,295.16,261.62,242.49,311.15ZM545.8,351.33c-19,15.2-47.55,154.16-57.61,205.78,46.48-5.23,81-14.27,108.58-23.6C617.07,347.14,567.8,333.69,545.8,351.33Z"/></g><g id="Forma_6050" data-name="Forma 6050" class="cls-20"><path class="cls-21" d="M400,202c-192.24,0-215.79,160.36-215.79,160.36,50.59-55,97.43-12.06,97.43-12.06,138.4-122.93,263.47,36.83,263.47,36.83,33.31-30.82,84.36,21.09,84.36,21.09C629.49,362.66,592.26,202,400,202Z"/></g><g id="Forma_6056" data-name="Forma 6056" class="cls-22"><path class="cls-23" d="M466.12,197.08c2.67.68,2.52.55,0,0Zm-.34-.09.29.08h.05Zm.29.08C447.23,193,299.75,165.9,200,269c-55,56.77-39.29,195.61-30.09,252,20.35,8.07,44.53,17.21,76.34,24.79C236.53,488.6,212.29,361.25,272,294.08c56.62-63.75,127.78-66.27,207.23-64.61C558.43,231.12,503.34,206.72,466.07,197.07Z"/></g><g id="Forma_6057" data-name="Forma 6057"><path class="cls-15" d="M196.62,354.34c-5.8,14.11-8,41-6.69,74.66,2.42,64.26,8.41,77.69,11.38,86.71,1.49,4.53,2.93,7.79,6,8.37,1.69.31,1.68-6.37,1.68-6.37-11.28-113.52,1.09-145.44,3-162.7S201.89,341.53,196.62,354.34Zm61.47-83.17c-2-6.66-5.68-12.43-10.9-15.38s-11.94-3.17-19.78.55c-7.69,3.49-16.49,10.88-22.15,17.46C194,289.5,193,302.15,195.59,311.1c2.75,9,9,14.25,16,15.69,14,3.25,31.12-10.22,43.28-30.26C260.05,285.71,259.93,278,258.09,271.17Z"/></g></svg>