<svg id="Assets" xmlns="http://www.w3.org/2000/svg" viewBox="0 0 800 800"><defs><style>.cls-1{fill:#be0017;}.cls-2{fill:#f7200f;}.cls-3{fill:#680101;}.cls-4{opacity:0.64;}.cls-5{fill:#ff9c8c;}.cls-6{opacity:0.35;}.cls-7{fill:#635f65;}.cls-8{fill:#8d8d95;}.cls-9{fill:#4a4248;}.cls-10{fill:#ee1109;}.cls-11{fill:#ff3e1d;}.cls-12{fill:#c32732;}.cls-13{fill:#e2e1d3;}.cls-14{fill:#fff;}.cls-15{fill:#b7b4a1;}.cls-16{fill:#5fb7c9;}.cls-17{opacity:0.46;}.cls-18{opacity:0.53;}</style></defs><g id="Forma_5975" data-name="Forma 5975"><path class="cls-1" d="M149.77,515.7S104.39,544.19,75,633.46c-12.68,38.46,39.48,119.48,39.48,119.48s15.46,20.82,23.55-7.62,17.45-47.39,56.46-80.35C194.45,665,163.77,612.25,149.77,515.7Z"/></g><g id="Forma_5988" data-name="Forma 5988"><path class="cls-2" d="M149.77,515.7S104.39,544.19,75,633.46c-12.68,38.46,39.48,119.48,39.48,119.48s9.18,12.37,17.1,5c-15.07-18.37-46.62-79.37-44.11-113.77,3.62-49.81,57.14-107,57.14-107l5.55-2.42,2.28-2.48Q151,524.21,149.77,515.7Z"/></g><g id="Forma_5978" data-name="Forma 5978"><path class="cls-3" d="M152.81,534.58l-6.5,1.33s-15.17,9.83-18.71,22.74c-3.36,12.26,1.74,103.57,27.28,147.82,8.22-12.3,20.26-25.18,39.57-41.5C194.45,665,167.76,619.1,152.81,534.58Z"/></g><g id="Forma_5977" data-name="Forma 5977" class="cls-4"><path class="cls-5" d="M115.89,550.82C102.46,569.26,87.31,596,75,633.46c-3.84,11.65-1.73,27.21,3.07,43.23,3,7.19,4.6,5.81,4.12-3.57-.35-5.55-2.1-11.9-2.25-21.36s1.74-22.25,10.9-40.87,15.35-29.15,19.28-36.11,5.67-10.19,7.83-13.6C120.09,556.29,119.77,549.79,115.89,550.82Z"/></g><g id="Forma_5975_copia" data-name="Forma 5975 copia"><path class="cls-1" d="M725,633.46c-29.43-89.27-74.81-117.76-74.81-117.76C636.23,612.25,605.55,665,605.55,665c39,33,48.36,51.92,56.46,80.35s23.55,7.62,23.55,7.62S737.72,671.92,725,633.46Z"/></g><g id="Forma_5978_copia" data-name="Forma 5978 copia"><path class="cls-3" d="M672.54,536.32c-13-14.75-22.31-20.62-22.31-20.62-8.1,55.9-21.8,97.11-31.9,121.9-4.41,13.88-8.13,23.74-10.4,29.4,21.9,18.77,34,33,42,47.26C671.34,654.62,675.64,551.45,672.54,536.32Z"/></g><g id="Forma_5977_copia" data-name="Forma 5977 copia" class="cls-6"><path class="cls-3" d="M720.73,637.29c-.55-10.72-7.24-27.7-14.38-43.19-7.3-15.57-16.32-29.56-21.66-36.47-10.59-14-12.69-3.54-9.53,3.55,2.17,3.41,3.8,6.65,7.84,13.6s10.26,17.64,19.27,36.11c9.17,18.62,11,31.41,10.9,40.87s-1.9,15.81-2.25,21.36c-.56,11.09,1.83,11,5.87-1.22C720.24,661.51,722.22,651.89,720.73,637.29Z"/></g><g id="Forma_5974_copia" data-name="Forma 5974 copia"><path class="cls-7" d="M524.16,697.88c-84.87,2.19-165.53,2.19-250.4,0-5.19,7.58-55.11,52.18-45,62,40.82,39.72,299.64,39.72,340.46,0C579.27,750.06,529.35,705.46,524.16,697.88Z"/></g><g id="Forma_5979" data-name="Forma 5979"><path class="cls-8" d="M245.71,758.14c-4.91-7.95,30.47-44.34,46.13-59.83l-18.08-.43c-5.19,7.58-55.11,52.18-45,62C244,774.69,289.53,784,342.8,787.74,280.67,780.62,250.48,765.87,245.71,758.14Z"/></g><g id="Forma_5980" data-name="Forma 5980"><path class="cls-9" d="M536.55,711.18c-69.42-2.37-218-7.5-265.9-9.64-7.66,8.28-25.87,25.8-36,39.82,7.76,4.73,50.12,26.82,164.38,26.82,88.92,0,142.46-14.38,166.86-23.16C559.06,734.55,546.27,721.19,536.55,711.18Z"/></g><g id="Forma_5952_copia" data-name="Forma 5952 copia"><path class="cls-10" d="M608.67,266.68c-122-233.5-301.41-226.43-419.76,0-63.26,121-69.82,308.44,9.69,450.24,0,0,3.25,10.14,30.48,16.28,123.33,27.81,217,27.6,339.41,0,27.23-6.14,30.48-16.28,30.48-16.28C678.49,575.12,671.93,387.71,608.67,266.68Z"/></g><g id="Forma_5980-2" data-name="Forma 5980"><path class="cls-11" d="M374.54,104.25s-80,16.11-153,107.62a543.23,543.23,0,0,0-32.68,54.81c-63.26,121-69.82,308.44,9.69,450.24,0,0,3.25,10.14,30.48,16.28q10.83,2.44,21.36,4.59c-20.36-72.73-47.76-191.92-42.14-290.66C218.1,275.07,304.32,152.7,374.54,104.25Z"/></g><g id="Forma_5982" data-name="Forma 5982"><path class="cls-5" d="M289.4,136.6c-36.16,28.86-70.31,72.33-100.49,130.08-63.26,121-69.82,308.44,9.69,450.24,0,0,3.15,9.82,29.17,16-16.52-31.23-42.78-101.8-52-244.56C162.38,281.84,252,172.74,289.4,136.6Z"/></g><g id="Forma_5986_copia" data-name="Forma 5986 copia"><path class="cls-12" d="M568.84,370.24c-17-118.47-87-218.1-116.72-244.52s-17.13-4.41-14.89,2.08c11.17,32.37,29.39,104.07,35,319.33,3.54,136.06-17.89,242.43-35.58,305.73,34-2,68.67-6.72,105.7-14.1C567.52,656.8,583.28,471,568.84,370.24Z"/></g><g id="Forma_5955_copia_2" data-name="Forma 5955 copia 2"><path class="cls-13" d="M612.71,274.67q-2-4-4-8c-122-233.5-301.41-226.43-419.76,0q-2,3.9-4,7.87C264.71,252.18,531.92,251.85,612.71,274.67ZM141.94,524.28A514.48,514.48,0,0,0,151,587.61c35.76,8.11,141.85,29.91,248.12,29.91,104.29,0,208.74-20.75,247.31-29.29a515.7,515.7,0,0,0,9.11-62.81C534.93,567.82,258.78,566.45,141.94,524.28Zm17.9,99.07a453.46,453.46,0,0,0,21.64,59.44c35.69,9.28,126.64,30.32,217.65,30.32,89.33,0,178.72-19.94,216.63-29.56a454.55,454.55,0,0,0,21.64-59C524.88,662.19,267,660.28,159.84,623.35Z"/></g><g id="Forma_5980_copia" data-name="Forma 5980 copia"><path class="cls-14" d="M159.84,623.35a453.46,453.46,0,0,0,21.64,59.44c12.92,3.36,33.1,8.27,57.9,13.16-4.39-17.67-8.78-36.77-12.84-56.75C200.89,635,178.16,629.66,159.84,623.35Zm51.45-81.56c-26.51-4.72-50.09-10.56-69.35-17.51A514.48,514.48,0,0,0,151,587.61c13.74,3.12,37.88,8.26,68.42,13.4C216.15,581.58,213.35,561.69,211.29,541.79Zm10.3-329.92a543.23,543.23,0,0,0-32.68,54.81q-2,3.9-4,7.87c19.5-5.46,43.09-9.24,67.38-11.82C285.9,187.4,333,132.9,374.54,104.25,374.54,104.25,294.59,120.36,221.59,211.87Z"/></g><g id="Forma_5986" data-name="Forma 5986"><path class="cls-15" d="M538.48,262.07c-28.05-67.58-66.33-118.56-86.36-136.35-29.74-26.42-17.13-4.41-14.89,2.08,6.91,20,16.52,55.1,24.16,129.88C484.61,258.22,511.79,259.46,538.48,262.07ZM469.89,554.86c-1.48,21.18-3.5,41.29-5.9,60.24,37.12-2.65,72.42-7.15,102.65-11.9,2-19,3.71-38.62,5-58.26C540.32,549.73,505.74,553,469.89,554.86ZM447.12,711.35a938.48,938.48,0,0,0,105.45-13.93c3.48-17,6.65-36,9.42-56.06-31.5,4.69-66.68,7.79-103.13,9.36C455.27,672.93,451.24,693.2,447.12,711.35Z"/></g><g id="Forma_5959" data-name="Forma 5959"><path class="cls-12" d="M187.87,341.15l-33.6,173.17s1,15.4,11.78,14.54S233.72,392.35,187.87,341.15Z"/></g><g id="Forma_5959_copia" data-name="Forma 5959 copia"><path class="cls-12" d="M623.22,341.15c-45.86,51.2,11,186.86,21.82,187.71s11.77-14.54,11.77-14.54Z"/></g><g id="Forma_5958" data-name="Forma 5958"><path class="cls-13" d="M188.21,340.11c-2.1-2.49-20.43-5.89-20.43-5.89l-26,185.64L165,516.74s7.54,4,23.9-72S190.31,342.6,188.21,340.11Z"/></g><g id="Forma_5957" data-name="Forma 5957"><path class="cls-14" d="M142.84,372.66c-20.29,53.46-16.73,114.37-14.2,126.76s12.65,32.77,23.55,10.74,23.5-49.2,23.9-130.92S152.35,347.61,142.84,372.66Z"/></g><g id="Forma_5957_copia" data-name="Forma 5957 copia"><path class="cls-15" d="M146,384.24c-13.91,41.45-12.92,89.13-11.58,98.86s7.29,25.83,14.62,8.79,15.83-38.07,17.78-101.95S152.51,364.81,146,384.24Z"/></g><g id="Forma_5957_copia_2" data-name="Forma 5957 copia 2"><path class="cls-16" d="M164.63,357.37c-4.54,4.67-9.95,18.54-13.09,27.91-13.91,41.45-12.92,89.13-11.58,98.86.66,4.78,2.43,11.09,4.93,14.26,1.31-1.08,2.7-3.15,4.15-6.51,7.33-17,15.83-38.07,17.78-101.95C167.38,371.52,166.42,361.64,164.63,357.37Z"/></g><g id="Rect치ngulo_5962" data-name="Rect치ngulo 5962" class="cls-17"><path class="cls-14" d="M143.09,420.31l4.1,75.23a29.94,29.94,0,0,0,1.85-3.65,164.36,164.36,0,0,0,9.77-28.42l.78-98.22a164,164,0,0,0-8.05,20A224.67,224.67,0,0,0,143.09,420.31Z"/></g><g id="Forma_5958-2" data-name="Forma 5958"><path class="cls-13" d="M629.1,334.22s-18.33,3.4-20.43,5.89-16,18.44-4.5,94.55c11.08,73.62,27.71,82.08,27.71,82.08l23.2,3.12Z"/></g><g id="Forma_5974" data-name="Forma 5974" class="cls-18"><path class="cls-14" d="M625.64,370.58l-5.06.91c1.65-10.88,5.07-34.35,3.33-31.38-2.16,3.68-10.72,14.31-12,32.92l-12.07,2.15c-.14,3.34-.19,7-.13,11L611.79,382s1.66,27.57,4.85,46.07c16.57,96.2,33.24,80.69,33.24,80.69Z"/></g><g id="Forma_5957-2" data-name="Forma 5957"><path class="cls-15" d="M654,372.66c-9.51-25.05-33.24-70.65-35.67-2.77-1.74,48.48,2.82,97.67,26.32,140.27,11.88,21.52,21,1.65,23.55-10.74S674.34,426.12,654,372.66Z"/></g><g id="Forma_5957_copia-2" data-name="Forma 5957 copia"><path class="cls-13" d="M650.89,384.24c-6.52-19.43-22.77-58.18-20.82,5.7s10.44,84.91,17.77,101.95,13.29.94,14.63-8.79S664.79,425.69,650.89,384.24Z"/></g><g id="Forma_5957_copia_2-2" data-name="Forma 5957 copia 2"><path class="cls-16" d="M645.35,385.28c-3.15-9.37-8.55-23.24-13.09-27.91-1.8,4.27-2.76,14.15-2.19,32.57,1.94,63.88,10.44,84.91,17.77,101.95,1.45,3.36,2.84,5.43,4.15,6.51,2.5-3.17,4.28-9.48,4.93-14.26C658.26,474.41,659.25,426.73,645.35,385.28Z"/></g><g id="Rect치ngulo_5962-2" data-name="Rect치ngulo 5962" class="cls-17"><path class="cls-14" d="M645.35,385.28a165.8,165.8,0,0,0-8.06-20l.78,98.23a164.36,164.36,0,0,0,9.77,28.42,29.22,29.22,0,0,0,1.85,3.65l4.1-75.24A223.66,223.66,0,0,0,645.35,385.28Z"/></g></svg>