<svg id="Assets" xmlns="http://www.w3.org/2000/svg" viewBox="0 0 800 800"><defs><style>.cls-1{opacity:0.64;}.cls-2{fill:#fff595;}.cls-3{fill:#ffcd63;}.cls-4{fill:#ffd96d;}.cls-5{fill:#ff9800;}.cls-6{opacity:0.35;}.cls-7{opacity:0.54;}.cls-8{fill:#ffb45d;}.cls-9{fill:#fff;}</style></defs><g id="Polígono_6138" data-name="Polígono 6138" class="cls-1"><path class="cls-2" d="M763.37,405.21q-220.9-9.68-87.31-185.88Q485,330.61,502.13,110.16q-100.59,196.92-205.35,2.2,21.84,220-171.56,112.87,137.34,173.3-83.31,187.71,209.24,71.52,31.4,202.94c143.13-35.29,136.37,40.17,136.14,153.76,103.42-48.46,147.61-43.48,192.6,30.36,49.69-61.07,119-84.18,201.46-34.58-17.36-105.89-11-188.86,132.81-156.64Q555.72,481.21,763.37,405.21Z"/></g><g id="Polígono_6137" data-name="Polígono 6137"><path class="cls-3" d="M754.67,528c-98.55-44.47-119.29-125.43,12.19-220.44Q530,363.26,618.87,136.75,449.75,311.68,402,73.08q-47.7,238.61-216.83,63.67,88.88,226.5-148,170.78c131.49,95,109.45,177,16,220.44,100.16,18.64,145.1,80.6,45.71,208.8,141-80.13,172-17.76,190.11,60.57,54-41.86,181.41-48.26,226,0,15.11-88.18,49.06-140.7,190.11-60.57C605.76,608.57,650.15,536.56,754.67,528Z"/></g><g id="Elipse_5890" data-name="Elipse 5890"><ellipse class="cls-2" cx="399.13" cy="487.68" rx="292.87" ry="290.29"/></g><g id="Forma_6070_copia" data-name="Forma 6070 copia"><path class="cls-2" d="M135.18,734.23c27.41-19.85,65.43-36.16,65.43-36.16l-16.87-21.35C178.69,696.23,135.18,734.23,135.18,734.23Zm33.75-535.81C180.32,215.26,203.71,278,203.71,278c1.08-7.75,31.33-21.7,31.33-21.7C203.39,240.27,157.54,181.59,168.93,198.42Zm134,22.39c-11.58-9.35-18.25-23.07-18.25-23.07,2,11.37,3.79,27.2,3.79,27.2S314.47,230.15,302.88,220.81Zm370.18,365-4.83,16.52s25.15.94,35.13,3.1C703.36,605.44,678,592.09,673.06,585.82ZM284.29,765.22c1.2-2.13,10-6.89,10-6.89l-10-5.16A67.34,67.34,0,0,1,284.29,765.22Zm399.78-274.1s43.47-16.9,70.6-22c0,0-55.86,2.49-75.42-3.79ZM136.22,377.49l8.95-17.57c-9.36,1.38-41.67-12.39-41.67-12.39C115.42,355.79,136.22,377.49,136.22,377.49Zm-22,83.33c-19.56,6.27-75.41,3.78-75.41,3.78,27.12,5.14,70.59,22,70.59,22ZM98,608.54c10-2.16,35.13-3.1,35.13-3.1l-4.82-16.53C123.39,595.19,98,608.54,98,608.54ZM562.86,259.72s30.26,13.94,31.34,21.69c0,0,23.39-62.71,34.78-79.54S594.52,243.71,562.86,259.72Zm52.35,417-16.88,21.35s38,16.31,65.43,36.16C663.76,734.23,620.25,696.23,615.21,676.72Zm83.67-324.37s-32.3,13.77-41.66,12.39l8.95,17.57S687,360.61,698.88,352.35ZM397.23,796.21s3.49-17.37,9.3-21.35H387.94C393.75,778.84,397.23,796.21,397.23,796.21ZM381.39,200.83H420c-11.55-19-19.28-77.47-19.28-77.47S392.94,181.84,381.39,200.83Zm136,550.62s8.79,4.76,10,6.88c0,0-.67-7.39,0-12.05ZM524,197.39s-6.66,13.73-18.25,23.07,14.47,4.13,14.47,4.13S522,208.77,524,197.39Z"/></g><g id="Elipse_5890_copia" data-name="Elipse 5890 copia"><ellipse class="cls-4" cx="401.88" cy="489.57" rx="281.5" ry="279.09"/></g><g id="Forma_5901" data-name="Forma 5901" class="cls-1"><path class="cls-5" d="M607.27,298.44c24.29,54.31,63.36,171.34,13.89,283.75-45.31,103-118.58,156.52-161.74,180.57,129-24.48,226.42-136.88,226.42-271.85A274.6,274.6,0,0,0,607.27,298.44Z"/></g><g id="Forma_5936" data-name="Forma 5936" class="cls-6"><path class="cls-2" d="M532.91,229.38a293.79,293.79,0,0,0-133.78-32c-161.75,0-292.87,130-292.87,290.29,0,121.77,75.64,226,182.9,269.12-12.73-26.46-60.38-122.34-42.06-285.65C270.77,260.11,499.32,232.33,532.91,229.38Z"/></g><g id="Forma_6074" data-name="Forma 6074"><path class="cls-2" d="M351.09,476.66c-8.33,21.22,64.83-135-62.33-141.53-17.14-.88-35.86,4.72-53.38,12.73,68.83-82.7,186.55-132.31,282.73-125.51a294.09,294.09,0,0,0-119-25c-161.75,0-292.87,130-292.87,290.29,0,113.82,66.1,212.35,162.33,259.92C243.36,715,153.53,587.07,182.36,453.24a221.39,221.39,0,0,1,7.25-25.85c23-23.13,92.6-86.65,132.56-50.94C339.06,391.55,365.92,438.86,351.09,476.66Zm21.69,54.4s-9,8.11-21,19.29S331.49,572,338.69,583.41c9.51,15.08,33.06,33.74,33.06,33.74s-16.05-28.68-15.84-41,27.89-49.93,27.89-49.93C389,516.05,372.78,531.06,372.78,531.06Zm235.54-158.4c-24.67-61.59-135.79-51.5-162.53,0C425.18,412.35,430.63,446,430.63,446l173.9,68.87S647.3,470,608.32,372.66Z"/></g><g id="Elipse_5902_copia_2" data-name="Elipse 5902 copia 2" class="cls-7"><path class="cls-8" d="M256.62,557.25c-24.33-.51-43.22,12.64-42.2,29.37s21.56,30.7,45.88,31.21,43.22-12.64,42.2-29.37S280.94,557.76,256.62,557.25Zm283,0c-24.32.51-44.86,14.48-45.88,31.21s17.87,29.88,42.2,29.37,44.86-14.49,45.88-31.21S563.9,556.74,539.57,557.25Z"/></g><g id="Forma_5897_copia_2" data-name="Forma 5897 copia 2"><path class="cls-3" d="M328.13,370.78c-40.83-26.65-114.31-22.8-142,38.84-13.25,29.46-14.06,64.54-11.61,80.87,2.4,16,4.41,23.53,23.2,30.73,18.21,7,77.87,29.46,152.79-6.84,8.53-4.14,13.81-8.12,15.54-24.7C369.46,456.9,370.79,398.62,328.13,370.78ZM608.67,415C581,353.4,500.58,344.13,459.75,370.78c-42.66,27.84-41.33,86.12-37.9,118.9,1.73,16.58,7,20.56,15.54,24.7,74.92,36.3,134.58,13.82,152.79,6.84,18.79-7.2,20.8-14.73,23.2-30.73C615.83,474.16,621.92,444.5,608.67,415Z"/></g><g id="Forma_6068" data-name="Forma 6068"><path class="cls-9" d="M117.62,497.32C121,330.78,243.69,245.22,309,211.39,191.37,249.06,106.26,358.52,106.26,487.68c0,98.64,49.64,185.79,125.52,238.25C186.43,687,115.41,608.16,117.62,497.32ZM223,272.8c-10.85,9.62-19.24,24.37-13.77,31s20,.17,31-8.6,15.45-19.57,11.71-25.49S233.85,263.19,223,272.8Z"/></g></svg>