<svg id="Assets" xmlns="http://www.w3.org/2000/svg" viewBox="0 0 800 800"><defs><style>.cls-1{fill:#e3d7f5;}.cls-2{fill:#eee6f9;}.cls-3{fill:#c0a7e0;}.cls-4{fill:#d1baed;}.cls-5{opacity:0.63;}.cls-6{fill:#ad89d3;}.cls-7{fill:#f8f4ff;}.cls-8{fill:#fdfaff;}</style></defs><g id="Forma_5943" data-name="Forma 5943"><path class="cls-1" d="M691.77,510.33c6.27-35.12,1.42-80.07-6.62-110.89C662.07,311,612.86,255.68,544.47,212.76L522,196.54c-17.29-10.22-37.18-14.08-59.58-19.86-9.6-2.48-20.44-4.92-32.11-4.64-11,4.67-22.65.33-35.41,2.65-21.65,3.94-41.09,2.18-60.25,7.62l-36.08,10.26c-13.84,6.7-28.92,12-42,19.53-36,20.79-69.71,48.26-93,81.75-14.19,20.4-27.83,41.35-38.39,65.21-3.21,7.23-7.47,14.21-9.93,22.51-1.12,3.78.57,8.09,0,11.58-2.53,15.28-5.5,32.71-8,49-4.94,32.91.9,71.06,7.62,100,3.57,15.37,5.71,30,11.25,42.7.26-.42,4.23,8.55,5,9.93l16.88,28.13L173.08,657c17.41,23.08,41.58,42.36,66.2,58.26a316.66,316.66,0,0,0,28.47,16.88l17.54,7.95c2.27,1.48,2.3,6.49,4.64,8.27,6.4,4.87,15.49,8.25,24.49,10.26,6.71,1.5,12.29.25,18.21-.66l24.49,2.65c35,7.77,87.91,1.6,118.83-7.28L491.84,749l9.27.34,11.25-2.65c-1.33-.85,10-4.71,11.26-5.3,11.21-5.1,19-12.93,28.79-19.53,40-26.92,72.85-58.15,98.31-99.63,7.3-11.9,13.19-25.24,20.85-37.4l7-5.63c3.22-3.69,5.26-10.25,7-15.23q4-16.05,7.94-32.1c1.18-5.16-1.45-8.33-2.32-10.93C691.32,517.39,691.55,513.86,691.77,510.33Z"/></g><g id="Forma_5949" data-name="Forma 5949"><path class="cls-2" d="M522,196.54c-17.29-10.22-37.18-14.08-59.58-19.86-9.6-2.48-20.44-4.92-32.11-4.64-11,4.67-22.65.33-35.41,2.65-21.65,3.94-41.09,2.18-60.25,7.62l-36.08,10.26c-13.84,6.7-28.92,12-42,19.53-36,20.79-69.71,48.26-93,81.75-14.19,20.4-27.83,41.35-38.39,65.21-3.21,7.23-7.47,14.21-9.93,22.51-1.12,3.78.57,8.09,0,11.58-2.53,15.28-5.5,32.71-8,49-4.94,32.91.9,71.06,7.62,100,3.57,15.37,5.71,30,11.25,42.7.26-.42,4.23,8.55,5,9.93l16.88,28.13L173.08,657c13.78,18.27,31.79,34.15,50.91,47.86-33.64-74.33-40-200.45-40-200.45,31,62,71.49,59.91,71.49,59.91S336.7,520,349.18,510s28.74-65.78,2.64-120.82-69.17-78.11-69.17-78.11,9.71-26.41,83.74-67.86c73.83-41.34,138.92-40.64,168.62-37.27Z"/></g><g id="Forma_5947" data-name="Forma 5947"><path class="cls-3" d="M356.13,440.82c-19.67-129-115.85-107.58-115.85-107.58,52.42,9.32,55.61,22.18,55.61,22.18-95.61-28.51-112.68,72.35-106.26,123.8s62.23,84.4,62.23,84.4c-16.12,8.6-40.05,4.64-40.05,4.64C246.17,592,375.79,569.8,356.13,440.82ZM190.3,383.89c17.75-27.39,55.27-42,55.27-42-100.63,28.61-70.5,118.83-70.5,118.83S172.53,411.27,190.3,383.89Z"/></g><g id="Forma_5944" data-name="Forma 5944"><path class="cls-4" d="M548.11,228l42.37,29.46,76.6,90.19c-26.67-59.45-68.67-101-122.61-134.87L522,196.54c-17.29-10.22-37.18-14.08-59.58-19.86-9.6-2.48-20.44-4.92-32.11-4.64-11,4.67-22.65.33-35.41,2.65-21.65,3.94-41.09,2.18-60.25,7.62l-4.25,1.2C486.85,166.47,548.11,228,548.11,228ZM691.77,510.33c4.89-27.39,3-60.76-1.86-88.74-15.73,59.34-53,175.47-115.32,232.73-85.87,78.87-187.93,40.34-197,33.43s-22.75-17.26-15.55-6.29,3.5,19-6.62,20.85-67.89,4.12-87.72-25.15c-29.35-43.32-41.41-43.37-55.28-49-15.62-6.34-17.76,2.43-17.21,7.61s5.56,15.35,7.61,19.53,9.62,20-7.28,3.64c-47.25-45.77-54.59-91.34-61.9-124.46-6.29-28.52,5.87-44.85,18.54-42s3-5.63,3-5.63-19.71-10.45-30.12-45c-11.73-38.94,16.33-105.2,36.13-144.69-13.38,19.38-26.13,39.35-36.13,61.94-3.21,7.23-7.47,14.21-9.93,22.51-1.12,3.78.57,8.09,0,11.58-2.53,15.28-5.5,32.71-8,49-4.94,32.91.9,71.06,7.62,100,3.57,15.37,5.71,30,11.25,42.7.26-.42,4.23,8.55,5,9.93l16.88,28.13L173.08,657c17.41,23.08,41.58,42.36,66.2,58.26a316.66,316.66,0,0,0,28.47,16.88l17.54,7.95c2.27,1.48,2.3,6.49,4.64,8.27,6.4,4.87,15.49,8.25,24.49,10.26,6.71,1.5,12.29.25,18.21-.66l24.49,2.65c35,7.77,87.91,1.6,118.83-7.28L491.84,749l9.27.34,11.25-2.65c-1.33-.85,10-4.71,11.26-5.3,11.21-5.1,19-12.93,28.79-19.53,40-26.92,72.85-58.15,98.31-99.63,7.3-11.9,13.19-25.24,20.85-37.4l7-5.63c3.22-3.69,5.26-10.25,7-15.23q4-16.05,7.94-32.1c1.18-5.16-1.45-8.33-2.32-10.93C691.32,517.39,691.55,513.86,691.77,510.33Z"/></g><g id="Forma_5943-2" data-name="Forma 5943" class="cls-5"><path class="cls-6" d="M691.77,510.33c6.27-35.12,1.42-80.07-6.62-110.89-23-88-71.77-143.17-139.59-186,16.19,17.38,31.55,33.76,32.67,44,2,18,25.61,47,33.1,46.67S632,309,624.57,314.38s-4,8.93-4,8.93c56,43.29,45.35,91,45.35,91-1.77-16.9-126.92-173.51-67.53-80.77s57.81,126.07,57.93,158.55c.1,27.85-6.43,53.43-24.83,55.94s-39.83,24.18-41.37,41.05c-1.47,16.08,3.33,19.36-2.32,44.35-10.77,47.68-134.61,111.79-171.24,129.82,22-1.62,43.55-5.45,59.36-10L491.84,749l9.27.34,11.25-2.65c-1.33-.85,10-4.71,11.26-5.3,11.21-5.1,19-12.93,28.79-19.53,40-26.92,72.85-58.15,98.31-99.63,7.3-11.9,13.19-25.24,20.85-37.4l7-5.63c3.22-3.69,5.26-10.25,7-15.23q4-16.05,7.94-32.1c1.18-5.16-1.45-8.33-2.32-10.93C691.32,517.39,691.55,513.86,691.77,510.33Z"/></g><g id="Forma_5945" data-name="Forma 5945"><path class="cls-3" d="M278,264.06c-9.57,6.69-5.44,11.75,2,6.95C297,260.07,287.58,257.38,278,264.06Zm70.5,2.65c-18.88-2.23-14.06,14.45-3.64,14.9C360.19,282.27,367.41,268.94,348.51,266.71Zm-92,357.37s9.87,17.07,23.1,11.48C279.63,635.56,267,636.18,256.53,624.08ZM386.25,402.75c-3.65-2.43-8.21,2.61-4,5C386.72,410.2,389.9,405.19,386.25,402.75Zm33.43-200.58c8.38-2-5.43-3.68-15.89-3s-9.11,4.33-1.65,4.3S411.3,204.21,419.68,202.17Zm-84.74,57.59s15.32-4.84,25.49,3.64C360.43,263.4,357,248.74,334.94,259.76Zm284.67,195c3.71,15.23,16.29-4,10.59-19.53C617.77,401.29,615.89,439.5,619.61,454.72ZM614,608.64c-3.9,15.75,19.4-9.35,21.52-23.5C640.51,551.51,617.88,592.89,614,608.64ZM235.77,308.91c-10.43-3.58-29,3-41.84,16.74s-1.26,23.71,10.29,21.14,16.75-4,27.17-13S246.19,312.48,235.77,308.91ZM646.09,500.07c-1.88-17.61-9.45,15.46-11.26,31.44S648.3,520.8,646.09,500.07ZM411.41,349.46c-4.73-3.73-9.28,4.52-4.31,7S416.13,353.19,411.41,349.46Zm-240,185C151,518.16,156.2,548.06,156.2,548.06,170.05,600,190,598.38,190,598.38c-11.62-6.89-23.19-29.53-25.15-36.74s2.41-5.49,3.64-1.33,7.48,18.36,16.22,26.15c13,11.56,12.13,7,11.58.66S191.87,550.82,171.43,534.49Zm10.59-231c2-3,9.21-12.79,22.51-25.15,17.49-16.27,11.13-15.18-6.62,1a103.52,103.52,0,0,0-19.86,23.5C173.23,310.42,180,306.45,182,303.45Zm437.59,87.06c-6.93-12.19-10.37-7.34-7,2S623.73,397.76,619.61,390.51Zm-351,219.67c-4.29-3.48-7.59-2.13-7.47,4.93s6.2,12.62,11.72,13.43C289.7,631.05,272.86,613.67,268.57,610.18ZM474,611.62c5.27-1.79,22.62-6.88,30.78-15.23s7.47-11,1.65-7.28-25,15.54-33.43,19.2S468.7,613.4,474,611.62Zm98,78.11c-44.08,40.9-107.25,48.06-123.79,50s-8.78,5.28,6.29,5c65.45-1.37,109.2-42.92,116.18-49.32S616,648.84,571.94,689.73ZM451.46,617.58c5.9-3.93-3.87-1.75-8.61-.67s-8.48,2.09-5.63,2.32S446.41,620.93,451.46,617.58Zm78.45,6.95c-.55,6.31-3,17.8-5,24.49s.2,8.28,2,4,6.08-6.71,7.94-17.21,1.25-6.5,1.32-13.57S530.45,618.21,529.91,624.53Zm-94.67-74.81c-3-2.1-12.71-7.49-6.95-2.65,6.14,5.16,11.94,8,16.88,8.94S438.27,551.82,435.24,549.72Zm213.5,24.16c-4.18,13.64-15.37,33.81-24.83,44s-19.8,21.35-6,10.92,31.73-39.12,34.1-53.29C653.39,567.51,652.91,560.25,648.74,573.88ZM412.07,317.35c-8.41-5.94-15.68,9.31-8.28,12.91C413.88,335.17,420.47,323.3,412.07,317.35Zm179.4,216.48c-5.27,2.25-25.55,13.23-40.38,14.23l-1.32-2s21.67-68.75-.34-137-4.38-4.28-3,1,15.83,61.45-6.62,122.14c0,0-.81,1.72-4,2s-5.05.56-5.62-5.62-12.3-37.91-15.56-44.36-3.72-3.65-1.32,5.3,8.42,38.2,4.63,47.33c0,0-7.59,4.33-10.26,16.88,0,0-1.93,3-8.94,4-9.61,1.3-20.91,2.9-33.1,1.33s-4.36,2.38,10.26,4.63,32.11,2,32.11,2,4.17,16.9,21.85,19.86c0,0,1.78,16.08,4,20.19s1-10.66,4.63-21.85c0,0,14.14-9.78,11.59-26.15,0,0,28.38-10.86,44-21.84S596.74,531.59,591.47,533.83ZM447.82,456.05c-4.5-4.56-11.42-1.73-15.89,5.95s4.51,14.88,11.58,10.93S452.31,460.6,447.82,456.05Zm30.78-66.54c8.23,21.4,13.12,34.41,21.18,57.27,8.66,24.55,8.14,1.77,4.31-7.95C488.14,398.4,482.52,390.33,478.6,389.51Zm20.85-140.67c16.6,7.21,5.14-2.65,3-4.31s-58.07-30.68-85.73-4C416.7,240.56,448.07,226.5,499.45,248.84Zm-57.92,46.67c17.28,12.24,44.91,22.46,63.88,23.5s27.3-7.84,26.48-15.89-14.9-42.25-71.83-51.3S424.24,283.27,441.53,295.51Zm15.55,181.72c6.29-7.84,3-15.56,3-15.56-.38,16-15.55,21.52-15.55,21.52S450.1,485.94,457.08,477.23Zm47.34-117.18c-5.06-10.15-9.6-6.62-9.6-6.62s-3.52,3.27.33,8.94S507.8,366.85,504.42,360.05Z"/></g><g id="Forma_5946" data-name="Forma 5946"><path class="cls-7" d="M119.46,494.77c-1.51-44.43-8.13-26.13-5.3,4.31,2.53,27.12,3.41,33.23,8.94,51.63s13.36,29.83,8,8.61C125.07,535.9,120.53,526.29,119.46,494.77ZM520.31,269c-18.77-22.85-58.86-28.49-65.87-27.81s-8.29,5.63-.67,6.29c38.33,3.34,55.78,18.41,61.57,23.17S539.07,291.88,520.31,269ZM378.64,519.6c-6.54,8.16-21.77,26.58-32.44,34.75-7.07,5.41,2,14.57,2,14.57s12.81,19.32,27.48,26.15c0,0-18.9-21-20.19-35.42,0,0,24.54-16.93,29.79-35.09S385.17,511.44,378.64,519.6Z"/></g><g id="Forma_5949-2" data-name="Forma 5949"><path class="cls-8" d="M245.9,346.48C195.45,360.16,187,406.39,187,406.39c20.95-44.09,51.55-50.5,60.24-55.6S245.9,346.48,245.9,346.48ZM165.47,584.14s-14-28.34-15.56-53.29C149.91,530.85,143.06,554,165.47,584.14Zm184-29.37c3.59-2.78,26.75-12.7,33.48-37.16C382.94,517.61,364.29,542,349.46,554.77ZM241.27,240.56c-20.62,25.42,9.11,25.61,23.17,8.28S254.24,224.58,241.27,240.56Z"/></g><g id="Forma_5945_copia" data-name="Forma 5945 copia"><path class="cls-2" d="M233.59,315s-2-4.21-2.47,1.8-6.07,12.76-19,19.42.84,3.6.84,3.6S238.57,327.1,233.59,315ZM246.9,679.8c-10.14-5.95-17.58-14.26-27.48-25.48-11-12.47-5.61,7.12,4,14.89,6.74,5.47,9.74,8.6,17.21,12.25S257,685.76,246.9,679.8ZM117.47,473.92c-.57-7.78-4.16,10.61-2,30.45,2.51,22.91,6.45,40.45,10.59,52.3s16.64,29.77,4.63.66C119.68,530.58,118.05,481.7,117.47,473.92ZM542.15,214.08C511.71,188,452.2,176.45,441.86,175.35s-10.72.63-1.66,2.65c67.35,15,90.05,31.56,99,37.07S542.15,214.08,542.15,214.08ZM387.9,704.63c-13.25-4.09-18.18,6.93-3.31,9.6C422.49,721,401.16,708.72,387.9,704.63ZM348.18,733.1c-30.39-3.68-48.2-10.27-68.51-17.22-18.31-6.26-1.66,6.29-1.66,6.29s6.94,7,33.76,13.24c20.33,4.71,33.1,5.15,38.4,5.3S378.57,736.77,348.18,733.1Z"/></g></svg>