<svg width="41" height="46" viewBox="0 0 41 46" fill="none" xmlns="http://www.w3.org/2000/svg">
<path d="M37.2081 9.68726L26.0489 1.45328C23.9363 -0.117678 21.1465 -0.442704 18.7088 0.613629L6.00571 6.13906C3.5951 7.19539 1.9158 9.44349 1.61786 12.0708L0.0469053 25.8573C-0.251035 28.4846 0.886554 31.0577 2.99922 32.6286L14.1584 40.8626C16.2711 42.4336 19.0609 42.7586 21.4986 41.7023L22.3924 41.296C19.738 40.2667 17.1378 39.0479 14.7543 37.6665C7.57666 34.8496 2.56585 28.6471 3.56801 19.438C4.62435 9.84977 10.5561 2.42835 22.6362 3.75554C30.0847 4.56811 37.5061 11.2311 36.3143 22.0653C35.3663 30.7056 30.6535 34.0913 26.1844 35.1205C27.3761 35.7164 29.8138 36.4477 32.3057 36.9894L34.2017 36.1768C36.6123 35.1205 38.2916 32.8724 38.5895 30.2451L40.1605 16.4586C40.4584 13.8313 39.3208 11.2582 37.2081 9.68726Z" fill="#D62829"/>
<path d="M20.6589 11.0957C15.8377 10.554 13.2917 14.4814 12.7229 19.4922C11.8833 27.0761 14.5647 30.7597 19.4401 31.3014C22.8258 31.6806 26.4011 28.6471 27.1324 22.0111C27.972 14.2918 25.426 11.6374 20.6589 11.0957Z" fill="#D62829"/>
<path d="M32.7932 38.7771C32.6036 38.8312 32.414 38.8854 32.1973 38.9667C31.141 39.3459 30.0847 39.725 29.0283 40.1042C27.7553 40.5647 26.4823 41.0251 25.2093 41.4585C24.7759 41.5939 24.7488 42.1898 25.1551 42.4065C28.1887 43.8962 31.3577 45.088 34.5538 45.7922C36.2873 46.1714 37.9665 45.0609 38.427 42.894L38.5895 42.1627C38.8062 41.1877 38.3187 40.2668 37.479 39.7521C36.9915 39.4542 36.4227 39.3459 35.9081 39.1563C35.2309 38.9396 34.5538 38.7229 33.8496 38.6958C33.4704 38.6958 33.1453 38.6958 32.8203 38.8041L32.7932 38.7771Z" fill="#D62829"/>
</svg>
