<svg id="Assets" xmlns="http://www.w3.org/2000/svg" viewBox="0 0 800 800"><defs><style>.cls-1{fill:#dfd4c2;}.cls-2{fill:#c9b297;}.cls-3{fill:none;}.cls-4{fill:#f4eae3;}</style></defs><g id="Forma_1712" data-name="Forma 1712"><path class="cls-1" d="M675.09,244c6.06-23.08-11.43-29.19-11.43-29.19,3.5-25.73-10.74-35.39-10.74-35.39-1.18-31.65-22.51-33.21-22.51-33.21-2.57-36.21-21.83-31.38-21.83-31.38C599.54,81.2,570.13,86,570.13,86c-3.62-13.16-15.59-5.84-15.59-5.84-14.65-30.34-39.11-23.93-42.26-20.8-18-22.32-48.84-5.83-48.84-5.83C439.6,34,394.16,69.2,394.16,69.2c-38.53-45.64-75.17-12-75.17-12-30.76-14.08-63,16.41-63,16.41-27.38-5.57-55,27.58-57.5,32.84-26.16.25-42.93,40.75-45.38,43.42-28.65,9-30.14,46.34-30.14,46.34-23.4,13.69-18.28,54.63-18,56.92C93.08,262.69,99,280.82,99,280.82c7.37,38.27,76.34,62.85,122.63,38.31s69.65-59,181.16-60.57C522,256.86,571.17,314,571.17,314l5.2,5.48,110.84-33.94C694.18,253.64,675.09,244,675.09,244Z"/></g><g id="Forma_1714" data-name="Forma 1714"><path class="cls-2" d="M139.21,231.56c-3.09-2.82-1.68-1.43,2.07,2.13A26.49,26.49,0,0,0,139.21,231.56Zm25.64-52.87c-1.22-1.55-2.37-2.91-3.47-4.05Zm440.27,93c24.84-25.58,34.29-59.47,34.29-59.47C627,234.69,575,257.47,575,257.47c17.54-16.1,45-74.8,45-74.8-11,19.39-63.39,59.84-63.39,59.84C581.83,206.73,601,150.2,601,150.2c-16.38,41.37-68.24,88.66-68.24,88.66,26.16-49.16,27.71-90.49,27.71-90.49-23.82,55.31-53.34,75.53-53.34,75.53,18.49-35.66,21.48-136.46,21.48-136.46-2.14,28.91-40.13,108.74-45,113.11,10.59-23.06,3.81-91.58,3.81-91.58-1.13,31.37-20.95,83.76-27.71,100,11.78-32.79,5.54-76.26,5.54-76.26-3.44,39.33-28.75,67.87-28.75,67.87,11.64-57.82-6.23-115.66-6.23-115.66.95,16.84-20.09,115.66-20.09,115.66,4-35.08-16.63-111.65-16.63-111.65,2.19,24.67-17.32,120.77-17.32,120.77,1.11-20.88-7.79-92.47-11-117.31,3.32,42.37-17.75,122.42-17.75,122.42-.77-24.82-22.24-92.88-30.27-117.54C327,134,328.35,215.51,328.35,215.51c-13.07-53.23-52.66-118.22-52.66-118.22,14.11,24.42,29.45,138.29,29.45,138.29-17.24-67.09-73.78-109.83-73.78-109.83,20.29,31.19,46.76,115.66,46.76,115.66-14.37-34.88-75.36-107.82-77.94-111.28,22.21,35.38,45.38,119.68,45.38,119.68-18-31.26-57.16-77-57.16-77,22.59,30,44.34,88.66,44.34,88.66-9.8-14.52-55-67.66-67.89-82.79C187,207,226.93,299.49,209.19,271c-18.72-30.09-67.63-84.32-50.92-62s21.47,60.93,21.47,60.93-28.11-26.35-38.46-36.18c11.64,13.17,28.07,50.41,28.07,50.41-8.44-10-47.11-35.75-47.11-35.75l44.69,55.09,14.55,22.26c-8.66,13.13,14.73,4.87,40.18-6.57s63.65-55.61,181.16-60.57C522,258.56,571.17,314,571.17,314l5.2,5.48,32.74-10,9.52-20.26c16.94-15.66,27.71-42.69,27.71-42.69C633.94,262.43,605.12,271.7,605.12,271.7Zm-288-174.46a72.08,72.08,0,0,0-3-9.07S315.28,91.55,317.13,97.24Zm48-4.88A76.64,76.64,0,0,0,364,83.79S364.45,87,365.15,92.36Z"/></g><g id="Forma_1735_Trazado_de_recorte" data-name="Forma 1735 Trazado de recorte"><path class="cls-3" d="M263.22,265.86C221,288.63,187,303.08,187,303.08s-24.61,36-1,21.89,14.83-13.5,80.71-44.88c186-88.58,321.46,27.37,321.46,27.37C476.87,181.23,304.74,243.47,263.22,265.86Z"/></g><g id="Forma_1715" data-name="Forma 1715"><path class="cls-4" d="M525.45,76.49s17.3,90.56-20.44,148.14C505,224.63,571.12,166.71,525.45,76.49Zm-75.86-3.65s-1.48,104-11.43,131.72C438.16,204.56,477.76,141.12,449.59,72.84Zm8,129.17c3.21-6.76,38-48.47,18-118.22C475.57,83.79,474.1,165.27,457.55,202ZM510.23,99.16c.53.86,8,14.87-20.11,73.66C494.24,166.34,535.5,137.52,510.23,99.16Zm64.41,10.9s-4.07,75.72-31.83,112.22C554,210.81,597,176.27,574.64,110.06ZM542.81,222.28a12.8,12.8,0,0,0-2.47,3.08C541.19,224.37,542,223.34,542.81,222.28Zm57.81-88.5S592.31,207.2,559.05,240C559.05,240,623.53,199.05,600.62,133.78Zm-38.8,125.51c1-.93,2.06-1.87,3.07-2.81A21,21,0,0,0,561.82,259.29Zm56.12-125.51s3.5,69.65-53.05,122.7C579.85,244.24,640.16,200.66,617.94,133.78Zm-179.44-42s-5,24.81-10.39,20.07c0,0,1.5-14.29-.35-25.18,0,0-6.28,16.37-8.31,14.59a96.62,96.62,0,0,0-10.39-12s3.44,21.17-1,38.32c0,0,9.23-4.52,11.43-8.4s8.58,46.4-6.24,85.75C414.88,201.64,446.43,139.21,438.5,91.82ZM372,92.55S399.18,144.36,382,204.93C382,204.93,417.93,127.19,372,92.55Zm-24.24,20.8s-14.49-33.09-31.87-40.87c0,0,14.91,44.45,13.51,60.2,0,0-15.46-32.52-42.26-51.08,0,0,30.74,59.17,40.87,129.17.77-9.86,1.51-52.64-2.08-65.68,0,0,14.16,8.95,16.28,29.19,1.05-12,1.44-44.26-7.62-60.93,0,0,23.67,31.7,25.29,56.19,0,0,2.86-54.8-15.59-86.84C344.28,82.7,346.24,98,347.75,113.35Zm-114-4.38s49.58,58.71,60.27,102.89C294.05,211.86,298.81,132.14,233.78,109Zm28.06-17.88L260.45,98S311,173.46,315.88,203.83C315.53,196.41,320.22,124.68,261.84,91.09Zm-24.25,32.84a71.85,71.85,0,0,1,8.31,22.62s-8.62-12.73-37.06-24.08c0,0,34.77,47,48.15,82.82,0,0-5.86-32.83-13.16-45.61,0,0,26,27,36,54.37C279.85,214.05,274.47,166.75,237.59,123.93Zm-54.73,8S247.74,230.39,257,246.89C255.6,242.56,227.54,155.42,182.86,132Zm-11.78,22.26s50.71,73.38,71,92.31C239.06,242.29,160.47,113,171.08,154.21Zm-15.24,11.31c2.14,7.43,46,72.69,71.71,93.41C227.55,258.93,145.85,130.86,155.84,165.52Zm482.88.73S606.45,245.05,585,268.78C585,268.78,642.55,222.91,638.72,166.25Zm14.2,40.5s-27.78,55.2-50.23,75.9C602.69,282.65,649.27,260.85,652.92,206.75Zm10.74,19s-18.37,45.74-40.18,64.94C623.48,290.67,668.29,271.44,663.66,225.73ZM213,266.23,210.59,264C211.4,264.77,212.21,265.53,213,266.23Zm-64.09-100c-5.25,43.35,9,60.21,9,60.21-8.08-8.92-27-24.45-27-24.45,5.82,13.87,21.13,47.07,21.13,47.07-6.94-6.77-28.29-24.1-35-31.75,7.75,21.12,26.32,46.34,26.32,46.34-12.41-9.7-37.06-27.36-37.06-27.36,15.85,22.23,63.39,53.27,63.39,53.27-8.26-7.73-27.2-37.47-30.83-43.06,16.26,17.51,46.42,35.76,46.42,35.76-13-9.2-29.51-43.29-32.57-48.53,15.36,17.87,36.38,31,36.38,31-21.58-19.56-31.18-52.91-31.18-52.91,10.82,12.62,43.51,43.5,52.67,52.11C185.35,239,149.34,162.76,148.91,166.25Z"/></g><g id="Forma_1718" data-name="Forma 1718"><path class="cls-1" d="M207.45,508.13c-1.56-27.22-11.74-51.17-36-47.43C154,463.38,130.28,471,108,471.28s-60-6.54-70.32-5.47-43.9,14.78-28.4,67.5C21.4,574.43,54.64,567,74.09,564.69s66.44-4.31,76.9-1.46S210.55,562.12,207.45,508.13Z"/></g><g id="Forma_1719" data-name="Forma 1719"><path class="cls-4" d="M171.43,460.7C154,463.38,130.28,471,108,471.28s-60-6.54-70.32-5.47-43.9,14.78-28.4,67.5c.43,1.46.88,2.85,1.36,4.19-10.15-37,20.11-59.65,20.11-59.65-4.83,12.43,2.77,34.66,2.77,34.66C32.2,500.68,44,487.7,44,487.7c-3.71,21.62,14.89,36.85,14.89,36.85-7.42-19.69,8-37.45,8.31-40.13-1.34,24.79,11.15,31,14.55,37.94C76.78,501,87.26,487,87.26,487c-.6,17.31,15.24,30.65,15.24,30.65-3-14.35,8.31-25.17,8.31-25.17,1.66,12.45,13.16,18.6,13.16,18.6-6.06-28.81,13.55-39.15,11.09-31s0,22.62,0,22.62c8.22,52.93,38.79,42,38.79,42-25.39-7-26-52.54-26-52.54-1.38-27.76,27-30.65,27-30.65a2.46,2.46,0,0,1,1-1.11A32.11,32.11,0,0,0,171.43,460.7Z"/></g><g id="Forma_1720" data-name="Forma 1720"><path class="cls-2" d="M81.5,534.55c-.15-.59-.31-1.13-.48-1.6C81.17,533.49,81.33,534,81.5,534.55Zm-36.85-7.44c1,9.16-.95,21.79,11.08,36.12-2.09-.83-35.78-12.93-39.49-46,0,0-1.47,21.34,7,39.94,14.59,12.94,34.77,9.55,48.88,7.74C63.79,556.86,47.33,539.58,44.65,527.11Zm18,13.86s2.55,13.93,10,23.89l1.39-.17c3.59-.43,8.11-.85,13.17-1.23C79.36,560.08,67.48,553.18,62.66,541Zm18.84-6.42c1.65,6.18,3,18.39,10.79,28.56,5.15-.33,10.67-.62,16.21-.84C100.74,557.81,86.48,549.87,81.5,534.55Zm15.11-1.24s3.06,17.79,13.31,28.9c5.11-.19,10.21-.32,15-.37C115.89,557.83,101.46,549.15,96.61,533.31Zm16-22.68c.49,3.52-1.87,29,17.4,51.19a165.88,165.88,0,0,1,17,.72C136.06,553.27,117.77,534.71,112.61,510.63Zm72.12-48.91a25.2,25.2,0,0,0-9-1.4c4,3.83,6.71,5,10.29,16.44,0,0,18.93,47.73-2.77,55.82-18.83,7-22.49-40.24-15.94-48.16s16.95,12.83,13.36,25.9c-2.76,10.06-8.18-3.66-10.59-15.69,0,0-1.65,17.94,3.12,24.09,7.44,9.59,26.9-3.63,7.62-37.22-17.53-28.91-27.68,5.77-22.17,31.74,3,14.28,13.63,34,30.83,24.81C205.87,529.28,204.47,499.84,184.73,461.72Zm-58.33,42s-5.64,30,22.47,59a21,21,0,0,1,2.12.44c4.68,1.27,17.07,1.18,29.07-4.12l12.85-7.56S140.68,571.34,126.4,503.76Z"/></g><g id="Forma_1734_Trazado_de_recorte" data-name="Forma 1734 Trazado de recorte"><path class="cls-3" d="M171.43,460.7C154,463.38,130.28,471,108,471.28s-60-6.54-70.32-5.47a26.51,26.51,0,0,0-5,1.1c3.58,6.88,10.83,13.91,25.43,16.41,31.85,5.47,63.45-6.26,92.49,1.1,17.36,4.4,35.23-3,47.7-11C192.57,464.12,183.85,458.79,171.43,460.7Z"/></g><g id="Forma_1718-2" data-name="Forma 1718"><path class="cls-1" d="M203.32,418.82c-.53-29.92-9.78-56.95-34.14-54.86-17.48,1.5-41.41,7.85-63.59,6.35S46,358.21,35.69,358.54-8.63,371.09,4.84,430.05c10.51,46,43.92,40.61,63.4,39.66s66.4.76,76.72,4.73S204.37,478.13,203.32,418.82Z"/></g><g id="Forma_1719-2" data-name="Forma 1719"><path class="cls-4" d="M169.18,364c-17.48,1.5-41.41,7.85-63.59,6.35S46,358.21,35.69,358.54-8.63,371.09,4.84,430.05c.37,1.63.78,3.19,1.21,4.7-8.74-41.36,22.28-63.61,22.28-63.61-5.28,13.2,1.46,38.15,1.46,38.15C28.88,396.23,41.09,383,41.09,383c-4.51,23.35,13.46,41.54,13.46,41.54-6.65-22.16,9.42-40.31,9.8-43.22-2.27,27,9.94,34.87,13.08,42.71-4.12-23.79,6.85-38.26,6.85-38.26-1.24,18.89,14,34.78,14,34.78-2.48-15.95,9.24-26.86,9.24-26.86,1.18,13.77,12.42,21.45,12.42,21.45-5-32,15-41.72,12.22-33s-.85,24.75-.85,24.75c6.21,58.58,37.1,49.1,37.1,49.1-25-9.74-23.93-59.62-23.93-59.62-.33-30.49,28.09-31.31,28.09-31.31a2.4,2.4,0,0,1,1-1.13A28.08,28.08,0,0,0,169.18,364Z"/></g><g id="Forma_1720-2" data-name="Forma 1720"><path class="cls-2" d="M76.76,437.35c-.13-.66-.27-1.27-.42-1.8C76.47,436.16,76.61,436.75,76.76,437.35Zm-19,5.47s2,15.44,9.11,27l1.4-.07c3.59-.18,8.12-.26,13.18-.26C73.66,465.1,62.08,456.57,57.73,442.82ZM50,466.6c-2.06-1.08-35.19-17.1-37.64-53.55,0,0-2.27,23.23,5.45,44.28,14.05,15.35,34.3,13.31,48.44,12.49-8-9.52-23.73-29.79-25.94-43.65C41,436.27,38.53,449.93,50,466.6Zm26.77-29.25c1.41,6.89,2.32,20.37,9.69,32.13,5.14.06,10.65.2,16.18.41C95.06,464.37,81.14,454.51,76.76,437.35Zm45.91-30s-6.74,32.31,20.19,66.44a21.5,21.5,0,0,1,2.1.65c4.61,1.78,17,2.7,29.13-2.11l13.09-7.21S134.38,482.47,122.67,407.35Zm59.74-41.18a23.87,23.87,0,0,0-9-2.28c3.82,4.51,6.5,6,9.64,18.83,0,0,17.08,53.78-4.86,60.85-19,6.12-20.91-45.88-14.08-54S180.57,405,176.5,419c-3.14,10.78-8-4.68-10-18,0,0-2.32,19.48,2.2,26.6,7.06,11.11,27-1.75,9-40.09-16.4-33.07-27.82,4-23.3,32.9,2.49,15.87,12.32,38.32,29.81,29.69C200.94,441.82,200.66,409.5,182.41,366.17Zm-58.31,105A150.76,150.76,0,0,1,141,473.36c-10.57-11-28.11-32.86-32.35-59.62C109,417.63,105.72,445.26,124.1,471.18ZM91.87,437.23s2.38,19.71,12.18,32.72c5.11.21,10.2.49,15,.83C110.17,465.64,96.11,455,91.87,437.23Z"/></g><g id="Forma_1733_Trazado_de_recorte" data-name="Forma 1733 Trazado de recorte"><path class="cls-3" d="M169.18,364c-17.48,1.5-41.41,7.85-63.59,6.35S46,358.21,35.69,358.54a28.48,28.48,0,0,0-10,2.55c.82,9.49,5.42,21,22.13,24.08,29.68,5.46,75-.23,91.1,6.21,11.37,4.56,39.36,5.18,60.85-.28C195,374.24,185.5,362.56,169.18,364Z"/></g><g id="Forma_1718-3" data-name="Forma 1718"><path class="cls-1" d="M209.55,320.3c-.53-29.92-9.78-56.95-34.13-54.86-17.48,1.5-41.41,7.86-63.6,6.36S52.26,259.7,41.93,260-2.4,272.58,11.08,331.53c10.5,46,43.92,40.61,63.4,39.66s66.39.76,76.71,4.74S210.61,379.61,209.55,320.3Z"/></g><g id="Forma_1719-3" data-name="Forma 1719"><path class="cls-4" d="M175.42,265.44c-17.48,1.5-41.41,7.86-63.6,6.36S52.26,259.7,41.93,260-2.4,272.58,11.08,331.53c.37,1.64.77,3.2,1.2,4.7-8.73-41.35,22.29-63.61,22.29-63.61C29.29,285.82,36,310.77,36,310.77c-.92-13.06,11.29-26.28,11.29-26.28C42.81,307.84,60.79,326,60.79,326c-6.66-22.16,9.41-40.32,9.79-43.23-2.27,27,9.94,34.88,13.08,42.72-4.12-23.8,6.86-38.27,6.86-38.27-1.24,18.89,14,34.79,14,34.79-2.48-16,9.23-26.86,9.23-26.86,1.19,13.76,12.43,21.44,12.43,21.44-5-32,15-41.72,12.21-33s-.85,24.75-.85,24.75c6.22,58.58,37.11,49.1,37.11,49.1-25.05-9.73-23.93-59.62-23.93-59.62-.34-30.49,28.08-31.3,28.08-31.3a2.48,2.48,0,0,1,1-1.14A30.49,30.49,0,0,0,175.42,265.44Z"/></g><g id="Forma_1720-3" data-name="Forma 1720"><path class="cls-2" d="M64,344.31s2,15.44,9.11,27l1.4-.08c3.59-.17,8.11-.26,13.17-.25C79.9,366.59,68.32,358.06,64,344.31Zm19-5.48c1.41,6.9,2.31,20.37,9.68,32.14,5.14,0,10.66.19,16.19.41C101.3,365.86,87.38,356,83,338.83Zm0,0c-.14-.66-.28-1.26-.43-1.79C82.7,337.64,82.85,338.24,83,338.83ZM56.23,368.09C54.17,367,21,351,18.58,314.54c0,0-2.27,23.23,5.45,44.27,14.06,15.36,34.3,13.31,48.44,12.49-8-9.51-23.73-29.78-25.94-43.65C47.18,337.76,44.77,351.42,56.23,368.09Zm72.68-59.25s-6.74,32.31,20.18,66.44a18.41,18.41,0,0,1,2.1.65c4.62,1.78,17,2.7,29.14-2.12l13.09-7.2S140.61,384,128.91,308.84Zm59.73-41.19a23.77,23.77,0,0,0-9-2.27c3.82,4.51,6.5,6,9.64,18.82,0,0,17.08,53.79-4.86,60.85-19,6.13-20.9-45.87-14.08-54s16.42,15.43,12.35,29.44c-3.13,10.77-8-4.69-10-18,0,0-2.31,19.48,2.21,26.6,7.05,11.11,26.95-1.74,9-40.08-16.39-33.07-27.81,4-23.29,32.9,2.48,15.87,12.31,38.32,29.8,29.68C207.18,343.31,206.89,311,188.64,267.65ZM98.1,338.72s2.39,19.71,12.19,32.71c5.1.22,10.19.49,15,.84C116.4,367.13,102.35,356.45,98.1,338.72Zm32.23,33.94a152.69,152.69,0,0,1,16.93,2.19C136.68,363.8,119.15,342,114.9,315.22,115.26,319.12,112,346.75,130.33,372.66Z"/></g><g id="Forma_1718-4" data-name="Forma 1718"><path class="cls-1" d="M765.85,465.81c-10.32-1.07-48.08,5.78-70.32,5.47s-46-7.9-63.39-10.58c-24.29-3.74-34.47,20.21-36,47.43-3.09,54,46,58,56.47,55.1s57.44-.87,76.9,1.46,52.68,9.74,64.77-31.38C809.75,480.59,776.17,466.88,765.85,465.81Z"/></g><g id="Forma_1719-4" data-name="Forma 1719"><path class="cls-4" d="M765.85,465.81c-10.32-1.07-48.08,5.78-70.32,5.47s-46-7.9-63.39-10.58a32.12,32.12,0,0,0-4.48-.38,2.41,2.41,0,0,1,1,1.11s28.41,2.89,27,30.65c0,0-.59,45.55-26,52.54,0,0,30.57,11,38.8-42,0,0,2.47-14.48,0-22.62s17.15,2.2,11.08,31c0,0,11.51-6.15,13.17-18.6,0,0,11.34,10.82,8.31,25.17,0,0,15.83-13.34,15.24-30.65,0,0,10.48,14,5.54,35.39,3.41-6.9,15.9-13.15,14.55-37.94.28,2.68,15.74,20.44,8.32,40.13,0,0,18.6-15.23,14.89-36.85,0,0,11.76,13,10.39,24.81,0,0,7.6-22.23,2.78-34.66,0,0,30.26,22.62,20.1,59.65.48-1.34.94-2.73,1.37-4.19C809.75,480.59,776.17,466.88,765.85,465.81Z"/></g><g id="Forma_1720-4" data-name="Forma 1720"><path class="cls-2" d="M677.17,503.76c-14.29,67.58-66.51,47.79-66.51,47.79l12.85,7.56c12,5.3,24.39,5.39,29.07,4.12a20.43,20.43,0,0,1,2.12-.44C682.8,533.71,677.17,503.76,677.17,503.76Zm-20.62,58.78a165.88,165.88,0,0,1,17-.72c19.27-22.24,16.9-47.67,17.4-51.19C685.79,534.71,667.51,553.27,656.55,562.54ZM645,513.24c5.52-26-4.63-60.65-22.16-31.74-19.29,33.59.18,46.81,7.62,37.22,4.76-6.15,3.11-24.09,3.11-24.09-2.4,12-7.82,25.75-10.59,15.69-3.59-13.07,6.81-33.83,13.36-25.9s2.9,55.18-15.93,48.16c-21.7-8.09-2.77-55.82-2.77-55.82,3.58-11.46,6.31-12.61,10.29-16.44a25.22,25.22,0,0,0-9,1.4c-19.73,38.12-21.13,67.56-4.7,76.33C631.33,547.24,641.92,527.52,645,513.24Zm33.67,48.6c4.81,0,9.91.18,15,.37,10.24-11.11,13.31-28.9,13.31-28.9C702.11,549.15,687.68,557.83,678.62,561.84Zm108.7-44.58c-3.7,33-37.39,45.14-39.49,46,12-14.33,10.09-27,11.09-36.12-2.69,12.47-19.15,29.75-27.44,37.83,14.11,1.81,34.29,5.2,48.88-7.74C788.8,538.6,787.32,517.26,787.32,517.26Zm-71,46.2c5.05.38,9.58.8,13.17,1.23l1.39.17c7.49-10,10-23.89,10-23.89C736.08,553.18,724.21,560.08,716.31,563.46Zm5.75-28.91c.17-.53.34-1.06.49-1.6C722.38,533.42,722.22,534,722.06,534.55Zm-27,27.72c5.54.22,11.06.51,16.2.84,7.78-10.17,9.14-22.38,10.79-28.56C717.09,549.87,702.83,557.81,695.07,562.27Z"/></g><g id="Forma_1734_Trazado_de_recorte-2" data-name="Forma 1734 Trazado de recorte"><path class="cls-3" d="M765.85,465.81c-10.32-1.07-48.08,5.78-70.32,5.47s-46-7.9-63.39-10.58c-12.42-1.91-21.15,3.42-26.92,12.72,12.47,8,30.34,15.4,47.7,11,29-7.36,60.64,4.37,92.49-1.1,14.59-2.5,21.85-9.53,25.43-16.41A26.51,26.51,0,0,0,765.85,465.81Z"/></g><g id="Forma_1718-5" data-name="Forma 1718"><path class="cls-1" d="M760.26,358.54c-10.33-.33-47.72,10.27-69.9,11.77s-46.12-4.85-63.6-6.35c-24.35-2.09-33.6,24.94-34.13,54.86-1.06,59.31,48,59.6,58.36,55.62s57.24-5.68,76.72-4.73,52.89,6.32,63.4-39.66C804.58,371.09,770.58,358.86,760.26,358.54Z"/></g><g id="Forma_1719-5" data-name="Forma 1719"><path class="cls-4" d="M760.26,358.54c-10.33-.33-47.72,10.27-69.9,11.77s-46.12-4.85-63.6-6.35a28,28,0,0,0-4.47,0,2.45,2.45,0,0,1,1.05,1.13s28.42.82,28.08,31.31c0,0,1.13,49.88-23.92,59.62,0,0,30.88,9.48,37.1-49.1,0,0,1.91-16.05-.85-24.75s17.18,1,12.21,33c0,0,11.24-7.68,12.43-21.45,0,0,11.71,10.91,9.23,26.86,0,0,15.29-15.89,14-34.78,0,0,11,14.47,6.85,38.26,3.14-7.84,15.35-15.7,13.08-42.71.38,2.91,16.45,21.06,9.79,43.22,0,0,18-18.19,13.47-41.54,0,0,12.21,13.23,11.29,26.29,0,0,6.74-25,1.46-38.15,0,0,31,22.25,22.29,63.61.43-1.51.83-3.07,1.21-4.7C804.58,371.09,770.58,358.86,760.26,358.54Z"/></g><g id="Forma_1720-5" data-name="Forma 1720"><path class="cls-2" d="M673.27,407.35c-11.7,75.12-64.51,57.77-64.51,57.77l13.09,7.21c12.17,4.81,24.52,3.89,29.14,2.11a20.67,20.67,0,0,1,2.1-.65C680,439.66,673.27,407.35,673.27,407.35Zm3.63,63.43c4.8-.34,9.89-.62,15-.83,9.8-13,12.19-32.72,12.19-32.72C699.84,455,685.78,465.64,676.9,470.78Zm-35.39-50.4c4.52-28.86-6.9-66-23.29-32.9-18,38.34,1.94,51.2,9,40.09,4.53-7.12,2.21-26.6,2.21-26.6-1.95,13.35-6.84,28.81-10,18-4.07-14,5.52-37.57,12.35-29.44s5,60.13-14.08,54c-21.94-7.07-4.86-60.85-4.86-60.85,3.14-12.83,5.82-14.32,9.64-18.83a23.77,23.77,0,0,0-9,2.28c-18.25,43.33-18.54,75.65-1.83,83.9C629.2,458.7,639,436.25,641.51,420.38Zm45.77-6.64c-4.25,26.76-21.78,48.58-32.36,59.62a150.67,150.67,0,0,1,16.93-2.18C690.23,445.26,686.92,417.63,687.28,413.74Zm96.32-.69C781.15,449.5,748,465.52,746,466.6c11.47-16.67,9-30.33,9.7-40.43-2.21,13.86-18,34.13-25.94,43.65,14.14.82,34.38,2.86,48.44-12.49C785.87,436.28,783.6,413.05,783.6,413.05Zm-69.07,56.4c5.06,0,9.58.08,13.18.26l1.39.07c7.09-11.52,9.11-27,9.11-27C733.86,456.57,722.29,465.1,714.53,469.45Zm4.65-32.1c.16-.6.3-1.19.43-1.8C719.46,436.08,719.32,436.69,719.18,437.35Zm-25.86,32.54c5.53-.21,11-.35,16.18-.41,7.37-11.76,8.27-25.24,9.68-32.13C714.8,454.51,700.88,464.37,693.32,469.89Z"/></g><g id="Forma_1733_Trazado_de_recorte-2" data-name="Forma 1733 Trazado de recorte"><path class="cls-3" d="M760.26,358.54c-10.33-.33-47.72,10.27-69.9,11.77s-46.12-4.85-63.6-6.35c-16.32-1.4-25.85,10.28-30.53,27.14,21.49,5.46,49.47,4.84,60.85.28,16-6.44,61.42-.75,91.1-6.21,16.71-3.07,21.3-14.59,22.13-24.08A28.48,28.48,0,0,0,760.26,358.54Z"/></g><g id="Forma_1718-6" data-name="Forma 1718"><path class="cls-1" d="M737.05,260c-10.33-.32-47.72,10.28-69.9,11.78s-46.11-4.86-63.6-6.36c-24.35-2.09-33.6,24.94-34.13,54.86-1.06,59.31,48,59.61,58.36,55.63s57.24-5.69,76.72-4.74,52.89,6.33,63.4-39.66C781.37,272.58,747.38,260.35,737.05,260Z"/></g><g id="Forma_1719-6" data-name="Forma 1719"><path class="cls-4" d="M737.05,260c-10.33-.32-47.72,10.28-69.9,11.78s-46.11-4.86-63.6-6.36a30.49,30.49,0,0,0-4.47-.05,2.48,2.48,0,0,1,1,1.14s28.42.81,28.09,31.3c0,0,1.12,49.89-23.93,59.62,0,0,30.89,9.48,37.1-49.1,0,0,1.91-16.05-.85-24.75s17.18,1,12.22,33c0,0,11.24-7.68,12.42-21.44,0,0,11.71,10.91,9.23,26.86,0,0,15.29-15.9,14.05-34.79,0,0,11,14.47,6.85,38.27,3.14-7.84,15.35-15.7,13.08-42.72.38,2.91,16.45,21.07,9.8,43.23,0,0,18-18.19,13.46-41.54,0,0,12.21,13.22,11.29,26.28,0,0,6.75-24.95,1.47-38.15,0,0,31,22.26,22.28,63.61.43-1.5.83-3.06,1.21-4.7C781.37,272.58,747.38,260.35,737.05,260Z"/></g><g id="Forma_1720-6" data-name="Forma 1720"><path class="cls-2" d="M653.69,372.27c4.8-.35,9.89-.62,15-.84,9.8-13,12.19-32.71,12.19-32.71C676.63,356.45,662.57,367.13,653.69,372.27Zm10.38-57c-4.25,26.77-21.78,48.58-32.36,59.63a153,153,0,0,1,16.93-2.19C667,346.75,663.71,319.12,664.07,315.22Zm-45.77,6.65c4.53-28.87-6.9-66-23.29-32.9-18,38.34,1.94,51.19,9,40.08,4.52-7.12,2.2-26.6,2.2-26.6-1.94,13.35-6.84,28.81-10,18-4.07-14,5.52-37.57,12.35-29.44s5,60.13-14.08,54c-21.94-7.06-4.86-60.85-4.86-60.85,3.14-12.83,5.82-14.31,9.64-18.82a23.86,23.86,0,0,0-9,2.27c-18.25,43.33-18.53,75.66-1.83,83.9C606,360.19,615.82,337.74,618.3,321.87Zm31.76-13c-11.7,75.11-64.51,57.77-64.51,57.77l13.1,7.2c12.16,4.82,24.51,3.9,29.13,2.12a18.41,18.41,0,0,1,2.1-.65C656.81,341.15,650.06,308.84,650.06,308.84Zm20.05,62.54c5.53-.22,11-.36,16.18-.41,7.37-11.77,8.27-25.24,9.69-32.14C691.6,356,677.67,365.86,670.11,371.38Zm90.28-56.84C757.94,351,724.81,367,722.75,368.09c11.46-16.67,9-30.33,9.69-40.44-2.21,13.87-18,34.14-25.94,43.65,14.14.82,34.38,2.87,48.44-12.49C762.66,337.77,760.39,314.54,760.39,314.54ZM696,338.83c.15-.59.29-1.19.42-1.79C696.25,337.57,696.11,338.17,696,338.83Zm-4.66,32.11c5.06,0,9.59.08,13.18.25l1.39.08c7.09-11.52,9.11-27,9.11-27C710.65,358.06,699.08,366.59,691.32,370.94Z"/></g></svg>