<svg id="Assets" xmlns="http://www.w3.org/2000/svg" viewBox="0 0 800 800"><defs><style>.cls-1{fill:#a6b2b8;}.cls-2{fill:#cad2d6;}.cls-3{fill:#fff;}.cls-4{fill:#008b00;}.cls-5{fill:#6fb956;}.cls-6{fill:#0049af;}.cls-7{fill:#0066d3;}.cls-8{fill:#d78100;}.cls-9{fill:#ffa100;}.cls-10{fill:#ffc03e;}.cls-11{fill:#c20026;}.cls-12{fill:#f40033;}.cls-13{fill:none;}.cls-14{fill:#b31358;}.cls-15{fill:#ff4e91;}.cls-16{fill:#ff94be;}</style></defs><g id="Forma_2174" data-name="Forma 2174"><path class="cls-1" d="M603.77,236.89C598.54,220.77,513.06,95.62,422,13c0,0-12.08-11-28.19,3.48S279.94,113.06,214.29,225.17c0,0-14.62,15.54-.95,26s82.93,38.95,190.31,38.95,187.46-31.35,187.46-31.35S609,253,603.77,236.89Z"/></g><g id="Forma_2179_copia" data-name="Forma 2179 copia"><path class="cls-2" d="M412.1,9.06c-4.85-.39-11.16,1-18.27,7.44C377.72,31,279.94,113.06,214.29,225.17a31.37,31.37,0,0,0-3.83,5.35c148,35.13,279.33,10.54,285.65-38C502,147.5,426.7,31.13,412.1,9.06Z"/></g><g id="Forma_2180" data-name="Forma 2180"><path class="cls-3" d="M367.74,39.91c-36.19,33.4-99.86,97-148.35,176.72,20.82,11.67,43.9,6.87,44.3,8.54C300.6,131.55,387.5,29.48,387.5,29.48,382,32.11,375.25,35.65,367.74,39.91Z"/></g><g id="Rectángulo_2276" data-name="Rectángulo 2276"><path class="cls-4" d="M344.44,62.41c-15.88,13.23-31.9,44.27-43.07,65.87,21,3.23,42.12,6.6,66.68,15.82,10.11-30.95,22.46-59.35,30.53-75C384.53,64.29,359.57,61.23,344.44,62.41Z"/></g><g id="Forma_2180_copia_2" data-name="Forma 2180 copia 2"><path class="cls-5" d="M344.44,62.41c-15.88,13.23-31.9,44.27-43.07,65.87,4.14.63,8.28,1.28,12.46,2,16.82-26.38,33.93-50,47.42-67.76A123.05,123.05,0,0,0,344.44,62.41Z"/></g><g id="Rectángulo_2278_copia" data-name="Rectángulo 2278 copia"><path class="cls-6" d="M429.93,175.07c-15.92,18.6-34.78,37.49-51.9,57.75,19.12,16.94,41.51,34.27,61,52.33,19.14-21.72,37.12-41.85,47.42-62.25C471,206.8,450.69,191.12,429.93,175.07Z"/></g><g id="Rectángulo_2278" data-name="Rectángulo 2278"><path class="cls-7" d="M429.93,175.07c-15.92,18.6-34.78,37.49-51.9,57.75,4.47,4,9.11,7.93,13.85,11.93,39.73-4.24,70.93-14.11,88.53-27.93C465.9,202.84,448.07,189.1,429.93,175.07Z"/></g><g id="Elipse_2279_copia" data-name="Elipse 2279 copia"><path class="cls-8" d="M268.39,173.29c-24.26,1.3-40.19,22.6-41.63,43.44-1.29,18.78,8.5,36.49,25.33,43.57,20.31,8.55,46.3-1.33,55.85-26.51C319.56,203.15,298.25,171.69,268.39,173.29Z"/></g><g id="Elipse_2279" data-name="Elipse 2279"><path class="cls-9" d="M268.39,173.29c-24.26,1.3-40.19,22.6-41.63,43.44A47.23,47.23,0,0,0,229,234.62a612.66,612.66,0,0,0,72.85,10.57,49.2,49.2,0,0,0,6.12-11.4C319.56,203.15,298.25,171.69,268.39,173.29Z"/></g><g id="Forma_2180_copia" data-name="Forma 2180 copia"><path class="cls-10" d="M268.39,173.29c-24.26,1.3-40.19,22.6-41.63,43.44-.07,1.11-.11,2.22-.11,3.32,18.59,7.23,36.68,3.65,37,5.12a461.28,461.28,0,0,1,22.81-48.54A38.76,38.76,0,0,0,268.39,173.29Z"/></g><g id="Polígono_2277_copia" data-name="Polígono 2277 copia"><path class="cls-11" d="M501.72,97.09c-10.29-10.52-23.38-19.39-35.81-28.24-.24,12.88-.11,26.47-2.35,41.16-2,14.64-6.37,30.39-10,46.61,34.52-11.27,44.77-14.06,77.15-24.94C520.35,118.92,512.4,107.43,501.72,97.09Z"/></g><g id="Polígono_2277" data-name="Polígono 2277"><path class="cls-12" d="M464.92,98.17c-.31,3.87-.74,7.81-1.36,11.84-2,14.64-6.37,30.39-10,46.61,14-4.58,24.07-7.77,33.21-10.66A453.31,453.31,0,0,0,464.92,98.17Z"/></g><g id="Forma_2285_copia_3_Trazado_de_recorte" data-name="Forma 2285 copia 3 Trazado de recorte"><path class="cls-13" d="M457,47c-45,26.2-105.25,47.94-159,64.14q-6,6.81-12.1,14C375.54,100.47,430.79,75.49,464.67,55Q460.85,50.95,457,47ZM578.3,195.42c-40.74,39.64-124.22,71.93-197.12,94.24,7.29.27,14.78.43,22.47.43,3.88,0,7.73,0,11.54-.13,106.91-34.58,151-67.87,168.64-86.42Q581.22,199.64,578.3,195.42ZM426.87,17.47c-20.76,11.3-44.21,21.72-68.46,31.16-6,5.65-12.47,11.93-19.35,18.81,42.29-14.82,73.38-29.22,96.17-42.11C432.45,22.68,429.67,20.05,426.87,17.47Zm57.36,58.77c-61.15,40.66-162.13,71.69-230.52,89.49q-4.28,5.78-8.48,11.7c138-32.76,209.46-67.73,246.11-93.17Q487.82,80.24,484.23,76.24Zm59.58,72C473.24,208.9,305.43,251.3,243.49,265.36q7.33,2.65,16.21,5.34c187-41.69,261.39-88.12,290.22-114.45Q546.92,152.29,543.81,148.24ZM511,107.2c-75,57-232.86,96.73-292,110.14q-2.36,3.89-4.67,7.83a28,28,0,0,0-2,2.44C400,188.15,482.2,143.43,517.56,115.18Q514.31,111.21,511,107.2Z"/></g><g id="Forma_2177" data-name="Forma 2177"><path class="cls-14" d="M509.09,17.13S477.53,15.76,451.46,8s-51-5.07-51-5.07-21.58,6-54.78,9.19c-21.18,2-31.62-12.45-54.14,4.11,2.76.42,22.48,4.75,22.48,4.75s7.77-5.62,25.65-2.53,30.8-3.64,37.36-6.33c0,0-22.46,15.57-85.49,23.75,0,0,17.15,9.54,28.81,7.6,1-.39,24.48,8.94,36.1,4.75,1-.58,6.12-12.74,14.88-18.37s25-11.72,29.45-18.68l11.4-5.39,10.13,2.54s20.56,0,37.05,7.91,31,13.9,39.58,13.3C499,29.48,509.89,25.3,509.09,17.13Z"/></g><g id="Forma_2176" data-name="Forma 2176"><path class="cls-15" d="M482.81,11.75c31-3.45,42.43,4.75,42.43,4.75s2-11.21-15.51-12-30.2,2.31-44,1S420.59-2.68,404,2.57c0,0-20.82-7.52-45.92,3.16s-79.16,16.15-79.16,16.15,4.24,11.1,6.65,12.67c0,0,48.43-10,69.66-19s27.55-7.28,27.55-7.28-15.9,2-54.78,24.38a126.73,126.73,0,0,1-34.83,13.93s24.16,15,30.71,14.25a361,361,0,0,0,36.42-28.5c20.2-17.83,37.36-22.16,37.36-22.16s-3.89,8,0,23.75-24.06,24.69-24.06,24.69L408.08,65s18.34-10.29,11.4-28.5-6-27.87-6-27.87,12.85-1,26.28,20.9S485,51.65,485,51.65l15.83-10.13S482,40,462.55,26c-12.66-9.13-16.69-13.86-26-17.36a63.46,63.46,0,0,1-6.28-2,64.91,64.91,0,0,1,6.28,2A127.48,127.48,0,0,0,482.81,11.75Z"/></g><g id="Forma_2178" data-name="Forma 2178"><path class="cls-16" d="M393.83,52.28s16-5.78,6-32C399.85,20.3,405.36,42,393.83,52.28ZM359.64,29.8c-12.66,13-34.2,27.86-34.2,27.86,6.07-3,23.57-14.55,33.56-24.38S394.48,9.57,394.15,9.53,372.3,16.76,359.64,29.8ZM388.45,5.42S371,4.94,342.54,16.18a280.15,280.15,0,0,1-56.05,15.2s31.35-3.37,58.26-13.3S388.45,5.42,388.45,5.42ZM444.5,29.8C423.42,4.29,417,8,417,8s13.16,2.77,27.55,26C453.68,48.72,485,50.38,485,50.38S458.83,47.15,444.5,29.8ZM488.83,8.9c-26.29,1.73-43.93,1-54.15-2.22,0,0,11.19,6.11,56.68,3.8,25.53-1.29,29.77,1.9,29.77,1.9S515.12,7.17,488.83,8.9Z"/></g></svg>