<svg id="Assets" xmlns="http://www.w3.org/2000/svg" viewBox="0 0 800 800"><defs><style>.cls-1{fill:#006bcd;}.cls-2{fill:#0057b0;}.cls-3{fill:#0099f0;}.cls-4{fill:#00316e;}.cls-5{fill:#00baec;}.cls-6{fill:#76e3f7;}.cls-7{fill:#63bcf9;}.cls-8{fill:#fff;}</style></defs><g id="Elipse_2385_copia_3" data-name="Elipse 2385 copia 3"><path class="cls-1" d="M510.53,598.5c-22.56-4.31-47.93.86-47.93.84a411.1,411.1,0,0,1-63.3,5,418.74,418.74,0,0,1-63.05-4.75c0,.09-25.15-5.14-47.33-.06-22.17,4.8-41.57,26-30,78.82,8.21,35.32,25.19,52.79,43.6,62,18.42,9,38.27,9.83,52.34,7.72,15-2.77,45.18-4.41,45.18-4.07,0-.33,30.17-.16,45.2,2.44,13.12,1.39,33.1,1.6,51.8-6.09,18.71-8,36-23,44.13-60.9C552.66,623.42,533.12,602.46,510.53,598.5Z"/></g><g id="Elipse_2385_copia_5" data-name="Elipse 2385 copia 5"><path class="cls-2" d="M490.6,614.78c-18.92-3.45-40.19.69-40.18.67a359.93,359.93,0,0,1-53.07,4,367.85,367.85,0,0,1-52.86-3.81c0,.07-21.09-4.13-39.68-.06-18.59,3.86-34.85,20.9-25.18,63.23,6.89,28.33,21.12,42.34,36.56,49.73s32.08,7.9,43.88,6.2c12.59-2.22,37.88-3.54,37.88-3.27,0-.26,25.29-.12,37.89,2,11,1.12,27.75,1.28,43.42-4.88,15.69-6.46,30.22-18.45,37-48.85C525.92,634.77,509.53,618,490.6,614.78Z"/></g><g id="Elipse_2385_copia_9" data-name="Elipse 2385 copia 9"><path class="cls-3" d="M295.55,605.43c22.17-5.07,47.32.16,47.33.07a418.64,418.64,0,0,0,63.05,4.75,409.87,409.87,0,0,0,63.3-5s25.36-5.14,47.93-.84a39.42,39.42,0,0,1,15.73,6.3,37.59,37.59,0,0,0-22.36-12.24c-22.56-4.31-47.93.86-47.93.84a411.1,411.1,0,0,1-63.3,5,418.74,418.74,0,0,1-63.05-4.75c0,.09-25.15-5.14-47.33-.06-22.17,4.8-41.57,26-30,78.82,6.26,26.92,17.61,43.47,30.81,53.9-10.33-10.48-19-25.66-24.18-48C254,631.48,273.38,610.24,295.55,605.43ZM506.18,621.6c10.79,8.82,16.87,26.51,10.08,58.09-6.78,30.4-21.31,42.39-37,48.85-15.67,6.16-32.43,6-43.42,4.88-12.6-2.08-37.89-2.22-37.89-2,0-.27-25.29,1-37.88,3.27-11.8,1.7-28.44,1.06-43.88-6.2-1.38-.66-2.76-1.38-4.11-2.15a62.38,62.38,0,0,0,9.79,5.81c15.44,7.25,32.08,7.89,43.88,6.2,12.59-2.22,37.88-3.54,37.88-3.27,0-.26,25.29-.12,37.89,2,11,1.12,27.75,1.28,43.42-4.88,15.69-6.46,30.22-18.45,37-48.86C529.85,646.57,520.29,628.63,506.18,621.6Z"/></g><g id="Elipse_2385_copia_7" data-name="Elipse 2385 copia 7"><path class="cls-4" d="M490.6,614.78c-18.92-3.45-40.19.69-40.18.67a359.93,359.93,0,0,1-53.07,4,367.85,367.85,0,0,1-52.86-3.81c0,.07-21.09-4.13-39.68-.06-18.59,3.86-34.85,20.9-25.18,63.23,6,24.59,17.49,38.39,30.52,46.44-9.61-8.45-17.76-21.12-22.47-40.5-9.67-42.33,6.59-59.37,25.18-63.22,18.59-4.07,39.67.13,39.68.05a366.32,366.32,0,0,0,52.86,3.81,358.56,358.56,0,0,0,53.07-4s21.26-4.13,40.18-.67A35.06,35.06,0,0,1,508.77,624,32.1,32.1,0,0,0,490.6,614.78Z"/></g><g id="Rectángulo_2407" data-name="Rectángulo 2407"><rect class="cls-4" x="342.07" y="606.56" width="129.23" height="129.42" rx="28.63"/></g><g id="Forma_2390_copia" data-name="Forma 2390 copia"><path class="cls-5" d="M475.36,652.91c-36.28-.86-132.42,2-132.42,2s-38.23-2.81-52.5,18.68c-16.69,25.12-13.23,81.28,26.48,104.92S403,800,403,800s86,.72,107.36-52.86S511.64,653.76,475.36,652.91Zm16.84,87.46C474.4,782.6,402.63,782,402.63,782s-38.69,1.72-71.81-16.91-30.67-66.43-16.26-86c6.77-9.18,38-7.84,38-7.84s80.21-2.24,110.48-1.57S510,698.15,492.2,740.37Z"/></g><g id="Forma_2390_copia_3" data-name="Forma 2390 copia 3"><path class="cls-6" d="M295.17,677.15c14.27-21.49,52.49-18.68,52.49-18.68s96.15-2.84,132.43-2a42.69,42.69,0,0,1,22.43,6.64,41.85,41.85,0,0,0-27.16-10.21c-36.28-.86-132.42,2-132.42,2s-38.23-2.81-52.5,18.68C274.31,697.85,277,751.11,313,776,281.53,749.89,279.78,700.32,295.17,677.15Zm191.61-2c13.57,12.31,17.65,36.18,5.42,65.2C474.4,782.6,402.63,782,402.63,782s-38.69,1.72-71.81-16.91c-1.41-.79-2.75-1.62-4.05-2.5a56.66,56.66,0,0,0,8.78,6.08c33.12,18.63,71.81,16.91,71.81,16.91s71.77.57,89.57-41.65C510.48,711.79,504,686,486.78,675.17Z"/></g><g id="Rectángulo_2407_copia" data-name="Rectángulo 2407 copia"><rect class="cls-1" x="335.92" y="600.15" width="129.23" height="129.42" rx="28.63"/></g><g id="Rectángulo_2407_copia_4" data-name="Rectángulo 2407 copia 4"><path class="cls-2" d="M449.38,607.26a36.15,36.15,0,0,1,9.14,24v55.34c0,20.45-17.17,37-38.34,37H367.63a39.14,39.14,0,0,1-22.58-7.11,38.84,38.84,0,0,0,29.21,13.05H426.8c21.18,0,38.35-16.58,38.35-37V637.2A36.61,36.61,0,0,0,449.38,607.26Z"/></g><g id="Rectángulo_2407_copia_3" data-name="Rectángulo 2407 copia 3"><path class="cls-7" d="M426.8,600.15H374.26c-21.18,0-38.34,16.59-38.34,37.05v55.33a36.39,36.39,0,0,0,12.45,27.32,36.09,36.09,0,0,1-7.72-22.29V642.23c0-20.46,17.17-37.05,38.34-37.05h52.55a38.94,38.94,0,0,1,25.89,9.73A38.76,38.76,0,0,0,426.8,600.15Z"/></g><g id="Forma_2412" data-name="Forma 2412"><path class="cls-8" d="M261.6,643.6c.67-.8,4-31,34.55-38.87C296.15,604.73,259.91,605.66,261.6,643.6Zm79-10.52c1.06-1.44,5.55-21.93,33.14-27.9C373.79,605.18,343.31,604.17,340.65,633.08Zm-52.54,64.48S296,673,317.46,663.26C317.46,663.26,288.76,670.28,288.11,697.56Z"/></g></svg>