<svg id="Assets" xmlns="http://www.w3.org/2000/svg" viewBox="0 0 800 800"><defs><style>.cls-1{fill:#e9e1af;}.cls-2{fill:#c66001;}.cls-3{fill:#ae4100;}.cls-4{fill:#e36e02;}.cls-15,.cls-16,.cls-5,.cls-6,.cls-8{fill:#c85c00;}.cls-5{opacity:0.24;}.cls-6{opacity:0.28;}.cls-7{fill:#770700;opacity:0.38;}.cls-8{opacity:0.34;}.cls-9{fill:#dc6702;opacity:0.59;}.cls-10{fill:#e26d03;opacity:0.29;}.cls-11{fill:#c45f00;}.cls-12{fill:#b14500;opacity:0.42;}.cls-13{fill:#aa3c00;opacity:0.72;}.cls-14{fill:#e16801;}.cls-15{opacity:0.63;}.cls-16{opacity:0.71;}.cls-17{fill:#790600;opacity:0.77;}.cls-18{fill:#ffc060;}</style></defs><path class="cls-1" d="M628.74,213.68c-42.81-37-372.24-44.58-435.4-10.35-10.25,6.44-16.15,8.18-15.14,27.88S196,263.14,220,269.85c26.55,7.42,136.88,21.89,206,18.72s165.94-8.57,193.6-33.06C643.45,234.37,633.19,216.11,628.74,213.68Z"/><path class="cls-2" d="M628.74,213.68c-42.81-37-372.24-44.58-435.4-10.35-9,5.66-14.65,7.69-15.2,21.45,6.06,10.82,24.26,22.37,68.18,30.73,51.3,9.77,85.41,9.92,107.16,8s59.6,7.92,81.26,7.17,54.71-6.59,78.08-9.16,66.94,1.29,106.76-24.7c5.6-3.66,10.63-7.17,15.14-10.51C634.21,219.47,630.83,214.83,628.74,213.68Z"/><path class="cls-3" d="M630.16,214.83a6.62,6.62,0,0,0-1.42-1.15c-7.78-6.72-25-12.48-48.4-17.19l-353.53-3.73c-14.37,2.93-25.86,6.44-33.47,10.57-6.36,4-11.05,6.19-13.44,12,5.89,8.42,16.1,16.74,33.76,20.28,41.74,8.39,166.87,21.88,228.65,18.73s175.87-13.09,188.42-37.85Z"/><path class="cls-1" d="M623.16,172.66c-42.81-37-372.24-44.59-435.39-10.36-10.26,6.44-16.15,8.18-15.14,27.88s17.82,31.93,41.82,38.64c26.55,7.42,136.89,21.89,206,18.72S586.34,239,614,214.48C637.88,193.34,627.61,175.08,623.16,172.66Z"/><path class="cls-4" d="M623.16,172.66c-42.81-37-372.24-44.59-435.39-10.36-9,5.66-14.65,7.69-15.21,21.45,6.07,10.82,33.56,6.56,70.18,24,45.7,21.71,99.35,16.69,121.1,14.74s50.43-4.43,72.1-5.18,47.81,2.27,71.3,3.19c33.49,1.31,75.7,4.08,115.52-21.91,5.61-3.66,1.88-10,6.38-13.3C628.64,178.44,625.25,173.8,623.16,172.66Z"/><path class="cls-5" d="M228.68,265.74c-1.2.82-2.61,3.12-2.24,3.65a1.57,1.57,0,0,0,2.14.92,4,4,0,0,0,2.58-3.17C231.54,265.68,230.5,264.42,228.68,265.74Zm-25.34-20.85c-1.39.57-3.43,2.55-3.22,3.14a1.42,1.42,0,0,0,1.79,1.33,4.51,4.51,0,0,0,3.4-2.6C206.11,245.4,205.47,244,203.34,244.89Zm42.43,8c-1.42.87-3.46,4-3.23,5,0,1.1.55,2.41,1.85,2.2s3-2.16,3.43-4.08C248.61,253.76,247.93,251.42,245.77,252.84Zm238.83-3.7a1.87,1.87,0,0,0-1.36,2.54,2.72,2.72,0,0,0,2.56,2.26,2.34,2.34,0,0,0,2.3-2.59C488.35,250.34,485.77,249,484.6,249.14Zm-32.5,14.51c-2.24-1.17-2.76,1.24-1.82,3.32.58,1.87,2.26,3.73,3.7,3.68s1.72-1.31,1.69-2.41C455.82,267.24,453.58,264.36,452.1,263.65Zm-50.19-3.52c-1.56.2-2.07,2.23-1.66,3.64.21,1.31,1.34,3.37,3.17,3.3,2,.09,2.85-2.07,2.8-3.71C406.52,261.91,403.34,259.89,401.91,260.13ZM296,241.9c-1,1-2,3.42-1.51,3.89a1.66,1.66,0,0,0,2.3.61,3.62,3.62,0,0,0,1.94-3.45C298.82,241.46,297.53,240.37,296,241.9Z"/><path class="cls-6" d="M357.88,266.74c-1.44-.23-4.61,1.8-4.3,3.25,0,1.64.8,3.79,2.81,3.7,1.84.06,2.95-2,3.16-3.32C360,269,359.44,266.93,357.88,266.74ZM307.7,270.5c-1.47.71-3.7,3.61-3.54,4.6,0,1.11.4,2.47,1.7,2.4s3.1-1.82,3.68-3.69C310.47,271.73,309.94,269.32,307.7,270.5Zm-32.56-14.35c-1.17-.18-3.75,1.21-3.49,2.22A2.34,2.34,0,0,0,274,261a2.73,2.73,0,0,0,2.56-2.28A1.86,1.86,0,0,0,275.14,256.15ZM514,258.71c-2.16-1.41-2.84.93-2,3.11.46,1.92,2,4,3.45,4.06s1.8-1.11,1.84-2.21C517.46,262.69,515.4,259.57,514,258.71Zm42.39-8.15c-2.13-.91-2.77.52-2,1.88a4.5,4.5,0,0,0,3.42,2.58,1.4,1.4,0,0,0,1.77-1.33C559.81,253.09,557.77,251.12,556.37,250.56ZM461,249.07a3.64,3.64,0,0,0,1.95,3.44,1.66,1.66,0,0,0,2.3-.62c.48-.48-.48-2.92-1.52-3.88C462.16,246.49,460.88,247.58,461,249.07Zm70.15,22.45c-1.82-1.3-2.86,0-2.47,1.42a4,4,0,0,0,2.59,3.16,1.57,1.57,0,0,0,2.13-.93C533.76,274.64,532.33,272.34,531.13,271.52Z"/><path class="cls-7" d="M623.16,172.66c-42.81-37-372.24-44.59-435.39-10.36-10.26,6.44-16.15,8.18-15.14,27.88,0,.52.07,1,.12,1.52,7.4,9.85,14.27,10.77,39.31,15.21,31.56,5.61,142.55,11.53,214.71,8.37,70.82-3.11,148.34,3.15,199.09-15.39C633.26,185.46,626.54,174.5,623.16,172.66Z"/><path class="cls-1" d="M626.28,125.9C579.69,92.31,242.07,97.52,174,132.08c-11,6.37-17.1,8.2-19.06,26.71-2,18.8,13.05,30.14,36.39,36,25.25,6.34,138.5,18,213.52,12.79C479,202.41,587,193.86,617.36,168,643.23,145.84,631.24,128.11,626.28,125.9Z"/><path class="cls-4" d="M626.28,125.9C579.69,92.31,242.07,97.52,174,132.08c-9.69,5.59-15.55,7.69-18.15,20.62,4.4,10.07,32.44,5.12,67,20.64,44,19.77,100.28,13.32,123.56,10.68,23.06-2.62,53.6-6,76.71-7.42s51.27.73,76.72.91c36.57.24,83.17,1.69,126.77-25.92,6.1-3.87,1.76-10,6.63-13.49C632.48,131.39,628.61,126.94,626.28,125.9Z"/><path class="cls-8" d="M217.49,177.16c-1.42.87-3.46,4-3.24,5,.05,1.1.56,2.41,1.86,2.21s3-2.16,3.43-4.09C220.33,178.08,219.64,175.73,217.49,177.16Zm50.22-10.94c-1,1-2,3.41-1.51,3.88a1.67,1.67,0,0,0,2.3.62,3.64,3.64,0,0,0,1.94-3.46C270.54,165.77,269.25,164.69,267.71,166.22ZM200.4,190.05c-1.2.82-2.62,3.13-2.24,3.66a1.57,1.57,0,0,0,2.14.92,4,4,0,0,0,2.57-3.17C203.26,190,202.21,188.74,200.4,190.05Zm-25.34-20.84c-1.4.56-3.43,2.54-3.22,3.14a1.4,1.4,0,0,0,1.78,1.32,4.5,4.5,0,0,0,3.41-2.59C177.83,169.72,177.19,168.28,175.06,169.21Zm281.26,4.25A1.87,1.87,0,0,0,455,176a2.73,2.73,0,0,0,2.57,2.26,2.33,2.33,0,0,0,2.29-2.59C460.06,174.66,457.49,173.28,456.32,173.46Zm-82.69,11c-1.57.19-2.07,2.22-1.66,3.63.21,1.32,1.34,3.37,3.17,3.3,2,.09,2.84-2.06,2.8-3.71C378.24,186.22,375.06,184.21,373.63,184.45ZM423.82,188c-2.25-1.17-2.77,1.25-1.83,3.32.59,1.87,2.27,3.73,3.7,3.68s1.73-1.3,1.7-2.41C427.54,191.55,425.29,188.67,423.82,188Z"/><path class="cls-9" d="M626.28,125.9a34.28,34.28,0,0,0-4.71-2.78c-50.31-10.71-142-17.68-230.36-19.36-93.15,2.26-185.12,12-217.21,28.32-9.5,5.48-15.32,7.6-18,19.91,5.25,11,21.24,18.64,43,23.4,32.14,7,161.7,20.32,239.57,18,45.49-1.34,98.39-3.22,140.49-8.28,16.84-4.68,30.3-10.32,38.32-17.18C643.23,145.84,631.24,128.11,626.28,125.9Z"/><path class="cls-1" d="M640.43,117.42c-10-17.24-38.73-34.15-76.79-43.59C525.56,64,478.15,61.57,430.09,63.44s-96.78,7.9-137.7,13.75c-40.92,6.17-74,12.09-90.78,20.89-10.79,6.11-16.63,7.72-18.46,26.2-1.67,18.92,11.62,29.8,31.91,34.47,11.18,2.52,41.18,5.62,78.63,7.9,37.26,2.27,82,3.7,118.19,2.77,35.52-.49,80.4-.59,120.54,1.62,40.13,1.57,75.52,5.44,92-1.77C652.94,155.6,645.19,121.61,640.43,117.42Z"/><path class="cls-10" d="M358.83,223.88c-1.44-.24-4.62,1.78-4.32,3.23,0,1.64.78,3.8,2.8,3.71,1.83.07,3-2,3.17-3.3C360.89,226.11,360.39,224.08,358.83,223.88Zm-50.2,3.52c-1.47.71-3.72,3.59-3.56,4.59,0,1.1.38,2.46,1.69,2.41s3.11-1.81,3.7-3.68C311.4,228.64,310.88,226.23,308.63,227.4ZM462,206.7a3.65,3.65,0,0,0,1.94,3.45,1.66,1.66,0,0,0,2.3-.61c.48-.47-.47-2.92-1.51-3.89C463.2,204.12,461.91,205.21,462,206.7Zm-185.87,6.19c-1.17-.17-3.75,1.2-3.5,2.21a2.33,2.33,0,0,0,2.29,2.59,2.74,2.74,0,0,0,2.57-2.26A1.87,1.87,0,0,0,276.14,212.89Zm281.25-4.25c-2.13-.92-2.77.51-2,1.87a4.5,4.5,0,0,0,3.4,2.6,1.41,1.41,0,0,0,1.78-1.33C560.82,211.19,558.79,209.21,557.39,208.64Zm-42.42,8c-2.16-1.42-2.85.92-2.05,3.1.45,1.92,2,4,3.43,4.08,1.29.21,1.8-1.1,1.85-2.2C518.42,220.59,516.38,217.46,515,216.59Zm17.08,12.9c-1.81-1.32-2.86-.06-2.47,1.4a4,4,0,0,0,2.57,3.17,1.57,1.57,0,0,0,2.14-.92C534.67,232.61,533.25,230.31,532.05,229.49Z"/><path class="cls-11" d="M630.91,110.32c-10-17.67-38.61-27.27-75.28-36.65A333.91,333.91,0,0,0,508,64.82a630,630,0,0,0-77.89-1.38c-48.06,1.81-96.78,7.9-137.7,13.75-40.92,6.17-74,12.09-90.78,20.89-10.79,6.11-16.63,7.72-18.46,26.2-.08,1-.12,1.92-.13,2.85,5.48,2.49,12.12,5.64,20.63,9.84,12.09,5.45,28.75,7.68,44.5,8.89,15.93,1.15,31,1.3,43.75,1.15,25.6-.25,42.85-2,53.45-3,20.71-2,50.76-4.11,75.53-4s58.56,5.07,86,8.33c20.29,2.25,40.67,7,59.72,9.13,19.21,2.11,37.08,1.55,55.81-6.89,5.38-4.3,14.66-7.88,16.65-18.71C639.29,122.51,633.05,112.24,630.91,110.32Z"/><path class="cls-12" d="M345,130c-1,1-2,3.41-1.51,3.88a1.67,1.67,0,0,0,2.3.62,3.64,3.64,0,0,0,1.94-3.46C347.82,129.52,346.53,128.44,345,130Zm-50.23,10.94c-1.41.87-3.45,4-3.23,5,.05,1.11.56,2.41,1.85,2.21s3-2.16,3.44-4.09C297.61,141.83,296.92,139.48,294.76,140.91ZM252.34,133c-1.4.56-3.43,2.54-3.22,3.14a1.4,1.4,0,0,0,1.78,1.32,4.52,4.52,0,0,0,3.41-2.59C255.11,133.47,254.47,132,252.34,133Zm25.34,20.84c-1.2.82-2.62,3.13-2.24,3.66a1.57,1.57,0,0,0,2.14.92,4,4,0,0,0,2.57-3.17C280.54,153.74,279.49,152.49,277.68,153.8Zm173.23-5.6c-1.57.19-2.07,2.22-1.66,3.63.21,1.32,1.34,3.37,3.17,3.3,2,.09,2.84-2.06,2.8-3.71C455.52,150,452.34,148,450.91,148.2Zm82.69-11a1.87,1.87,0,0,0-1.37,2.53A2.73,2.73,0,0,0,534.8,142a2.33,2.33,0,0,0,2.29-2.59C537.34,138.41,534.76,137,533.6,137.21Zm-32.5,14.5c-2.25-1.17-2.77,1.25-1.83,3.32.59,1.87,2.27,3.73,3.7,3.68s1.73-1.3,1.7-2.41C504.82,155.3,502.57,152.42,501.1,151.71Z"/><path class="cls-13" d="M563.64,73.83C525.56,64,478.15,61.57,430.09,63.44q-6.84.26-13.7.63c-38.48,3.68-77.69,9-113.17,14.11-44.24,6.66-82.1,13-101.56,20.62l-5.07,2.08c-7.62,4.33-11.92,8-13.44,23.4a32.56,32.56,0,0,0,.3,8.39c5.79,5.86,17.16,9.14,31.75,10.34,12.7,1,46.54.93,86.87-.26s86.36-3.49,122.4-6.7c35.52-2.86,78.55-6,115.47-7.12,37-1.6,67.9-1.31,82.45-7,6.66-2.81,11.12-6.4,14-10.2C623.91,96.51,597.47,82.22,563.64,73.83Z"/><path class="cls-1" d="M616.25,49.2c-15-14.38-46.1-28.33-85.39-37.11S444.11-.59,396.51,2,301.23,13.09,261.74,25.68,191,54.43,176.43,68.59c-9.37,9.7-14.94,13.12-11.89,32.16s20.67,27.95,45.06,30.79c27.39,2.77,136.68-.12,206.27-8.68,35-4.5,77.37-9.11,115.43-12.56,37.9-3.83,71.46-6.49,85.08-15.8C639.75,78.46,621.45,53.32,616.25,49.2Z"/><path class="cls-14" d="M621.52,55.42a29.6,29.6,0,0,0-5.27-6.22c-15-14.38-46.1-28.33-85.39-37.11S444.11-.59,396.51,2,301.23,13.09,261.74,25.68c-23.1,7.27-43.38,15.88-59.16,24.6a135.27,135.27,0,0,0-18,19.29c-6.39,10.1-9.94,14.68-8.09,28.61,7.35,8.69,22.07,14.85,62.56,16.4,47.48,2,82-1.2,102.94-6.55,20.81-5.34,57,3.6,77.75,1.22s49.86-11.53,71-14c10.45-.9,26.2-.33,43.49-.63,17.68-.55,28.66,2.49,56.28-5.17,12.52-4,22.7-9.61,31.07-16.73C625.77,68.48,623.43,60.44,621.52,55.42Z"/><path class="cls-15" d="M238.2,72.79c-1.42.87-3.46,4-3.23,5,0,1.11.55,2.41,1.85,2.21s3-2.16,3.43-4.09C241,73.71,240.36,71.36,238.2,72.79ZM221.12,85.68c-1.21.83-2.62,3.13-2.24,3.66a1.56,1.56,0,0,0,2.13.92,4,4,0,0,0,2.58-3.17C224,85.62,222.93,84.37,221.12,85.68ZM195.77,64.84c-1.39.57-3.42,2.54-3.22,3.14a1.42,1.42,0,0,0,1.79,1.33,4.51,4.51,0,0,0,3.4-2.6C198.54,65.35,197.9,63.91,195.77,64.84Zm92.65-3c-1,1-2,3.41-1.51,3.89a1.68,1.68,0,0,0,2.31.61,3.64,3.64,0,0,0,1.93-3.45C291.25,61.41,290,60.32,288.42,61.85ZM477,69.09a1.86,1.86,0,0,0-1.36,2.53,2.73,2.73,0,0,0,2.56,2.27,2.35,2.35,0,0,0,2.3-2.6C480.78,70.29,478.2,68.91,477,69.09ZM444.53,83.6c-2.24-1.18-2.76,1.24-1.82,3.31.59,1.87,2.26,3.73,3.7,3.68s1.72-1.3,1.69-2.41C448.26,87.19,446,84.3,444.53,83.6Zm-50.19-3.52c-1.56.19-2.06,2.22-1.65,3.64.21,1.31,1.33,3.36,3.17,3.3,2,.08,2.84-2.07,2.8-3.72C399,81.85,395.78,79.84,394.34,80.08Z"/><path class="cls-16" d="M327.46,86c-1.84-.25-5.82,3.16-5.37,5.38,0,2.56,1.17,5.83,3.74,5.52,2.35-.06,3.7-3.35,3.91-5.41C330.2,89.25,329.47,86.15,327.46,86ZM221.25,76.26c-1.5-.17-4.73,2.19-4.37,3.73,0,1.77,1,4,3.05,3.82,1.91,0,3-2.32,3.18-3.74C223.48,78.52,222.89,76.37,221.25,76.26Zm42.2,19.63c-1.86,1.23-4.6,5.9-4.36,7.43,0,1.72.61,3.8,2.27,3.59,1.84,0,3.9-3.08,4.57-6C267,97.57,266.27,93.87,263.45,95.89ZM458.62,50.18c-.12,1.93,1,4.45,2.63,5.19a2,2,0,0,0,2.92-1.16c.59-.77-.73-4.49-2.1-5.9C460,46.08,458.43,47.88,458.62,50.18Zm68.15,10.66c-2.83-2-3.6,1.68-2.49,5,.67,3,2.73,6,4.57,6,1.66.2,2.26-1.87,2.27-3.59C531.36,66.74,528.62,62.06,526.77,60.84Zm53.88-16.1c-2.76-1.24-3.51,1-2.43,3.08.66,1.82,2.67,3.7,4.47,3.73a2,2,0,0,0,2.22-2.22C585.15,48.39,582.46,45.5,580.65,44.74ZM549.18,79.33c-2.37-1.87-3.66.16-3.1,2.4.2,1.93,1.7,4.23,3.44,4.7a2,2,0,0,0,2.69-1.62C552.67,84,550.76,80.5,549.18,79.33Z"/><path class="cls-17" d="M279,162.7s-33.24.16-26.69,17.92c3.57,9.69,14.87,5.93,17.53,13.55s7.7,27.67,4,34.25-23.1,5.12-39.44,17.93c-8.15,6.39-6.48,14.44-5.57,19.12s5,21.21-1.2,78.08c-3.44,14.82-13.06,14.24-7.17,24.3s18.82,3.71,19.52-4a525.65,525.65,0,0,0-.8-106s.65-4.18,10-8,38-8.35,41-13.14-4.3-28.57,0-41.43,8.7-8.72,17.13-11.55,22.05-3.65,21.91-11.16S295.26,159.46,279,162.7Zm352.93,78.87s-14.9,22.37-40.23,27.88c0,0-2.1-1.81,1.2-14.74s-5.82-17.44-17.93-17.92-5.14-8.47-6.37-15.54-11.28-55.06,7.17-58.16,28.22,8.58,21.51,27.49,7.86,24.28,14.34,20.32,3.6-17.51,1.59-25.9,8.77-40.1-39.43-80.86c0,0-5.42-27.63-13.15-46.61C551,33.81,527.86,26,543.89,26.46s68,22.31,69.31,50.59c.83,18-7.46,21.35,9.16,29.48,7.63,3.73,6.41-8.33,4.78-13.15S623.6,72.91,622,63.91,608,13.7,456.25,1.36a403.63,403.63,0,0,0-55-.79S235.89,12.31,192.55,58.33s-15.42,56.49-8.37,51,7.94-15.94,21.91-31.07,45.23-30.4,37.84-17.53c-8.61,15-27,39-25.89,99.59,0,0-14.88,1.45-19.12,13.94s-1.76,31.15-4.38,43.82.46,32.32,15.53,20.71c9.4-11.47,3.05-19,3.59-23.9s1.19-28.28,1.19-28.28a23.88,23.88,0,0,1,10-10.76c7.46-4.31,10.92-5,14.34-21.51s4.52-90.87,41.43-100.78c0,0,14.32-5.16,8.76,7.57a190.46,190.46,0,0,0-7.56,19.52s-4,11.69,4.78,11.15,9.92-7.76,11.15-14.34-1.39-16.56,15.93-26.29,36.92-9.12,38.24,4.78c0,0,.57,17.25-6.37,42.22s-3.07,25.36-1.59,30.68,6.2.38,6,11.95,3.11,20.71.4,27.88-9.3,21.14,0,21.11,15.79-1.3,16.33-15.93S352.33,66.67,384.55,41.6s100-9.13,114.72,25.49,12.55,46,19.52,56.17,34.09,25.13,32.27,51.39.48,52.79-.4,57.76-2.94,10-12.35,13.54S519,259,526.36,263.88s36.67,1.58,41,3.18,8.89-1.28,8.37,30.28-10.84,64.31,5.57,56.17c11.56-5.74,9.14-10.67,6.78-19.13s-1.41-37.55.39-45.81c0,0,36.61-6.11,49.8-20.31C638.3,268.26,657.54,248.16,631.92,241.57ZM530,116.09c-6.92-24-19.62-57.09-29.08-71.7S509.23,32,509.23,32c13.24-.2,30.77,11,36.65,21.11s5.5,29.44,24.7,53.38,7.38,31.74,2,31.47S536.87,140.13,530,116.09Z"/><path class="cls-18" d="M287.75,68.69s-4.73,8.48-5.18,13.94,1.62,4.45,2.79.4,3.22-10.63,4.78-13.55S288.92,66.09,287.75,68.69ZM236,247.15s-6.76,3.52-6.38,9.56,2.59,1.45,2.79,0,.39-4.88,2.79-6.38S237.67,245.61,236,247.15Zm6.77-176.07s-17.41,28.76-17.13,48.2c0,0,1.36,4.37,2.79-1.6s9.33-34.53,14.74-41.82S245.15,66,242.74,71.08Zm64.13-52.19s-52.58,10.68-71.7,19.92c0,0-6.56,5.55,2,2S295.79,23,314.44,20.88C314.44,20.88,324,16.83,306.87,18.89ZM262.26,181.42c-4-2.66-7.62-5.85-4-9.56,0,0,1.12-2.72-2-1.2,0,0-5,5.67,0,10s7.34,4.08,10,8.37c0,0,3.05,1.54,2.39-1.2S266.26,184.08,262.26,181.42Zm8.36,10.36c-2.13,3.17,1.92,2.19,2,.79S270.62,191.78,270.62,191.78Zm-45-67.72s-3,3.45-.8,4.38,4.36-1.89,3.59-3.19S225.61,124.06,225.61,124.06Zm0,232.23s-4.43,4.63-2.79,7.17,4.41,2.08,5.18.4S227.62,353.13,225.61,356.29ZM616.39,65.9c1.46,2.43,3.17,8.48,2.79,12.35s1.29,5.76,2.39,4.38,1.5-8.36-2-14.74-4-7.48-4.39-9.16-2.27-2.26-2-.4A52.88,52.88,0,0,0,616.39,65.9ZM196.56,58.84c-.21-.09-6,4.9-10.28,11.36-4.53,6.35-7.53,14.17-7.88,17.13,0,0-1.17,4.49,2.31-1.22,2-2.75,4.29-8.58,7.84-13.8s8.07-10,11.7-11.82C206.67,56.42,201.7,54.44,196.56,58.84Zm2.36,133.73c-1.24,2.28.4,2.79.4,2.79s1.62,1.38,2-1.59S198.92,192.57,198.92,192.57Zm16.33-27.88S199,169.74,198.52,185.4c0,0,2.41,4.28,2.79,1.2s1.22-13.26,11.55-17.53S215.25,164.69,215.25,164.69Zm394.37,25.49c2,.27,1.56-2.11.79-5.18s-2.14-6.62-2-12.74-.87-15.86-3.18-19.92-2.34-2-2,0c0,0,2.89,12,2.39,19.52S607.6,189.92,609.62,190.18Zm7.17,84.45c-2,.29-3.36,3.29,0,4s3.18-2.39,3.18-2.39A3.46,3.46,0,0,0,616.79,274.63Zm-7.57-79.27c.59,2.5,3.19,1.59,3.19,1.59s2-.87,0-3.18C609.71,190.71,609.22,195.36,609.22,195.36ZM352.68,144c2-1.92,1.19-4.11.8-6.77-.32-2.15-1.85-4.67-4.78-7.57-1.23-1.21-.32-9,.4-12.35s-.3-8.37-1.2-4.78c0,0-2.92,11.73-1.59,16.34s4.24,3.48,4.78,8.36S350.69,145.9,352.68,144ZM621.17,86.21c-1.59-.44-1.2,2.39-1.2,2.39a1.16,1.16,0,0,0,1.6,1.2C623.19,89.34,622.76,86.66,621.17,86.21Zm-39,160.14c-.37,2.31,1.42,2.2,2,2s1.79-1.58,1.2-2.79S582.5,244,582.13,246.35Zm59,4.38c-1.65-1.86-3.05-1.07-2.39,0s1.64.11,2,4c.48,5.34-13.8,14-15.54,14.74s-3.28,1.86-2.39,3.59,2.79.4,2.79.4,14-8.75,16.33-13.55S642.73,252.59,641.09,250.73Zm-242.6-245S383.67,7.1,368.22,8.93c0,0-7.47,3.57-2.39,2.79s27.28-2.94,32.26-3.18S399.61,5.78,398.49,5.75ZM577,243.16c-2-.53-8.59,2.58-9.56-1.19-1.12-4.38-2.65-16.52-3.18-22.71s-1-6.53-1.6-3.18c0,0,1.1,18.28,2,24.69s5,4.84,8,5.58,5.88.76,6.77,0S578.9,243.7,577,243.16Zm-224.67-94.8c-1,1.35-.19,2.74.8,2.39a3.68,3.68,0,0,0,2-2C355.28,148.13,353.31,147,352.28,148.36Zm183.64-18.73c-4.67-6.24-5.78-5.9-5.18-3.18,0,0,5.45,8.48,12.75,12.35s8.59,3.38,7.57.79C551.06,139.59,540.59,135.87,535.92,129.63ZM405.26,5.35s-3.84,0-2.78,1.59S407.42,6.13,405.26,5.35Z"/></svg>