<svg id="Assets" xmlns="http://www.w3.org/2000/svg" viewBox="0 0 800 800"><defs><style>.cls-1{fill:#ffae3e;}.cls-2{fill:#f6952b;}.cls-3{fill:#f09436;}.cls-4{fill:#ffc680;}.cls-5{fill:#ffe1c9;}.cls-6{fill:#ffcda7;}.cls-7{fill:#ff80bc;}.cls-8{fill:#eb70ab;}.cls-9{fill:#ffc0e5;}.cls-10{fill:#fff;}</style></defs><g id="Forma_2413" data-name="Forma 2413"><path class="cls-1" d="M711.49,49.12c-2.1-2.09-12.93,2-12.93,2L545.41,133c20.35,100.14,100.44,92.48,100.44,92.48S706.13,79.73,711.49,67.69,713.58,51.22,711.49,49.12Z"/></g><g id="Forma_2417" data-name="Forma 2417"><path class="cls-2" d="M711.49,49.12c-1-1-4.07-.58-7,.14a40.89,40.89,0,0,1-3,15.11S638.83,192,637.56,195c-10-9.34-24.71-14.69-29.83-14.59C602.26,144,581,127.48,567.86,121l-22.45,12c20.35,100.14,100.44,92.48,100.44,92.48S706.13,79.73,711.49,67.69,713.58,51.22,711.49,49.12Z"/></g><g id="Forma_2414_copia_12" data-name="Forma 2414 copia 12"><path class="cls-3" d="M703.89,60.92c-1-3.59-2.14-7.1-3.38-10.49-1.17.39-2,.68-2,.68l-5.9,3.16q.81,2.46,1.65,5.28c-3.18-.4-6.38-.74-9.57-1L667.4,67.77C669,72.21,670.85,78,672.73,85c-6.46-1-13.06-1.73-19.6-2.3q-1.11-3.13-2.31-6.1L642,81.37c0,.19.11.37.16.56L641,81.87,624,91c7.29.29,14.29.74,20.93,1.3,1.19,4.51,2.44,9.53,3.7,15-7.62-1-15.37-1.73-22.94-2.24a126.37,126.37,0,0,0-5.28-12.11L612.75,97c.65,2,1.42,4.49,2.29,7.41-5.34-.23-10.49-.36-15.35-.43l-17.83,9.53q3.63,0,7.19,0c1.75,6.09,3.75,13.6,5.8,22.29-8.53-.31-16.53-.38-23.48-.33-1.23-4.85-2.57-9.59-4-14.15l-9.67,5.17q1.13,4.3,2.31,9.18c-8.52.23-13.75.57-13.75.57l-.09.13q1.07,4.75,2.29,9.19,7-.36,13.73-.49c1.22,5.48,2.44,11.36,3.6,17.59-4.25,0-8.09.11-11.4.21q2,4.92,4.31,9.36c3-.05,5.89-.06,8.78-.05,1,5.8,1.88,11.85,2.7,18.11a94.47,94.47,0,0,0,14,14.35c7.91.52,15.39,1.2,22.35,2q.54,5.91.94,12a95.19,95.19,0,0,0,10.51,3.61c-.21-3.94-.51-8.79-.94-14.32,6.43.86,12.26,1.78,17.4,2.67.35,4.84.62,9.77.82,14.76a71.32,71.32,0,0,0,10.28.2c-.1-2.64-.29-7.15-.65-13q3.33.67,5.92,1.24l3.21-7.75c-3.11-1.15-6.39-2.19-9.8-3.14-.56-7.16-1.32-15.44-2.38-24.33,7.62,1.27,13.91,2.51,18.56,3.51.19,2.41.36,4.85.52,7.3,2.71-6.55,5.65-13.65,8.72-21-.38-4.06-.81-8.34-1.32-12.8,3.24.73,5.31,1.25,6,1.43l1.35-3.25,1.07-3.38a93.31,93.31,0,0,0-9.56-3.83c-1.13-8.65-2.54-17.71-4.29-26.74,6.87,1.13,12.68,2.24,17.24,3.19.65,5.07,1.21,10.42,1.66,16,3-7.32,6-14.55,8.9-21.45-1-.42-2-.84-3.08-1.24-.77-6-1.75-12.44-3-19,5.19.88,9.71,1.74,13.47,2.51,1.2-2.89,2.36-5.66,3.45-8.27a162.49,162.49,0,0,0-19.22-4.83A160.85,160.85,0,0,0,676.6,68c7.4.67,14.32,1.47,20.66,2.32,1.53,6.1,3,13,4.35,20.77,2.36-5.64,4.41-10.54,6-14.43q-.49-2.49-1-5l3,.47c.88-2.09,1.54-3.61,1.92-4.46a42.32,42.32,0,0,0,1.89-5C710.27,62,707.1,61.44,703.89,60.92ZM573.62,145c8.13.07,16,.35,23.48.8,1.19,5.54,2.37,11.45,3.48,17.68-8.27-.49-16.26-.73-23.56-.82C576,156.76,574.9,150.83,573.62,145Zm7.69,49.54c-.73-7-1.63-14.46-2.76-22.17,8.3.25,16.25.72,23.76,1.33,1.13,7.16,2.17,14.67,3.05,22.47C597.2,195.34,589.06,194.82,581.31,194.51Zm25.16-58.19a229,229,0,0,0-6.56-22.67q9.32.27,18,.88c1.79,6.59,3.76,14.4,5.71,23.21C617.87,137.13,612.11,136.67,606.47,136.32Zm2.27,10.29c6,.5,11.73,1.1,17.11,1.75,1.12,5.64,2.22,11.61,3.24,17.85-5.68-.8-11.45-1.44-17.17-1.94C611,158.43,609.94,152.5,608.74,146.61Zm7.3,50.76c-.66-7-1.51-14.68-2.6-22.67,6.16.65,11.94,1.37,17.27,2.12,1.07,7.51,2,15.36,2.78,23.47C627.85,199.12,622,198.15,616,197.37Zm13.28-81.93c7.82.72,15.09,1.58,21.71,2.49,1.63,7.76,3.21,16.2,4.64,25.19-6.44-1.6-13.27-2.87-20.25-3.9C633.69,131.07,631.68,123,629.32,115.44Zm11.08,52.63c-.83-5.95-1.79-12-2.89-18.17,7.57,1.1,14.19,2.25,19.66,3.3q1.3,9.45,2.31,19.56A164.3,164.3,0,0,0,640.4,168.07Zm38.28-54.8a175.2,175.2,0,0,0-18.09-4.19c-1.21-5.35-2.55-10.62-4-15.71,6.78.74,13.08,1.57,18.8,2.42C676.54,101.1,677.67,106.94,678.68,113.27Z"/></g><g id="Forma_2414_copia_13" data-name="Forma 2414 copia 13"><path class="cls-4" d="M706.54,59.26c-.94-3.32-2-6.57-3.1-9.71-2.64.72-4.88,1.56-4.88,1.56l-3.18,1.7c.51,1.58,1,3.28,1.58,5.08-3.05-.38-6.12-.71-9.19-1l-17.65,9.44c1.57,4.4,3.41,10.11,5.27,17.06-6.46-1-13.06-1.73-19.61-2.3q-1.08-3-2.23-5.9l-8.88,4.74c0,.12.07.23.1.35l-.68,0-17,9.08c7.14.29,14,.73,20.51,1.28,1.19,4.51,2.45,9.53,3.7,15-7.62-1-15.37-1.74-22.93-2.25a125.83,125.83,0,0,0-5.2-11.91l-7.72,4.12c.63,2,1.38,4.39,2.22,7.21-5.18-.22-10.18-.35-14.91-.42L585,111.84q3.39,0,6.73,0c1.74,6.09,3.74,13.6,5.79,22.29-8.53-.31-16.53-.38-23.48-.33-1.21-4.77-2.53-9.45-4-14L560.35,125c.74,2.81,1.5,5.8,2.26,9-8.52.23-13.75.57-13.75.57L546.5,138c.47,2.06,1,4.07,1.5,6q8.54-.51,16.8-.65c1.21,5.48,2.43,11.37,3.59,17.59-5.73,0-10.72.17-14.68.31,1.3,3.27,2.69,6.38,4.14,9.32q6.21-.14,12.23-.1c1.18,7,2.26,14.37,3.21,22l-1.32,0a93.91,93.91,0,0,0,13.18,13c-.07-.87-.15-1.75-.23-2.65,8.58.53,16.68,1.26,24.16,2.09q.66,7.26,1.11,14.78a92.65,92.65,0,0,0,10.47,3.22c-.22-4.28-.55-10-1.07-16.7,6.43.86,12.26,1.78,17.4,2.67q.59,8.16.89,16.61a59.44,59.44,0,0,0,8,0s.76-1.82,2.1-5.07c-.11-2.52-.27-5.76-.51-9.56,1.48.29,2.85.58,4.12.84l3.3-8q-3.89-1.35-8.09-2.51c-.56-7.17-1.32-15.45-2.38-24.33,7.62,1.26,13.91,2.5,18.56,3.5.09,1.07.17,2.14.24,3.22l8.63-20.81c-.28-2.89-.6-5.88-1-9,1.78.4,3.21.74,4.25,1l2.82-6.81c-2.57-1.15-5.31-2.23-8.18-3.21-1.13-8.65-2.54-17.71-4.29-26.74,6.87,1.13,12.68,2.24,17.24,3.19q.75,5.81,1.32,12.1c2.59-6.24,5.13-12.36,7.57-18.21l-1.41-.56c-.76-6-1.75-12.44-3-19,4.38.75,8.29,1.48,11.66,2.15,1.24-3,2.42-5.81,3.53-8.45A166.93,166.93,0,0,0,684.88,85a158.93,158.93,0,0,0-5.63-18.66c7.4.67,14.32,1.47,20.66,2.33,1.31,5.22,2.59,11.06,3.77,17.48,2.51-6,4.56-10.89,6-14.24-.14-.63-.27-1.26-.41-1.89l1.14.18c.47-1.11.84-2,1.09-2.51a37.49,37.49,0,0,0,2.43-7.11Q710.28,59.86,706.54,59.26ZM576.27,143.31c8.14.07,16,.36,23.48.8,1.19,5.54,2.37,11.45,3.48,17.68-8.27-.49-16.26-.73-23.56-.81C578.68,155.1,577.55,149.17,576.27,143.31ZM584,192.85c-.72-7-1.63-14.46-2.76-22.17,8.3.26,16.25.72,23.76,1.33,1.14,7.16,2.17,14.68,3,22.47C599.85,193.68,591.71,193.16,584,192.85Zm25.16-58.19A228.84,228.84,0,0,0,602.56,112q9.32.27,18,.87c1.79,6.59,3.75,14.4,5.7,23.21C620.52,135.47,614.76,135,609.12,134.66ZM611.39,145q9,.77,17.11,1.75c1.13,5.64,2.22,11.61,3.24,17.85-5.68-.8-11.44-1.43-17.17-1.93C613.65,156.77,612.59,150.84,611.39,145Zm7.3,50.76c-.66-7-1.51-14.68-2.59-22.66,6.16.64,11.93,1.36,17.27,2.12,1.06,7.5,2,15.35,2.77,23.46C630.5,197.46,624.63,196.5,618.69,195.71ZM632,113.78c7.82.72,15.1,1.58,21.72,2.49,1.62,7.76,3.2,16.2,4.63,25.19-6.44-1.59-13.27-2.87-20.25-3.89C636.34,129.41,634.33,121.37,632,113.78Zm11.08,52.63c-.83-5.94-1.78-12-2.89-18.17,7.57,1.1,14.19,2.25,19.66,3.3.87,6.3,1.65,12.84,2.31,19.56A166.36,166.36,0,0,0,643.05,166.41Zm38.28-54.8a180.55,180.55,0,0,0-18.09-4.19c-1.21-5.34-2.55-10.61-4-15.71,6.78.74,13.08,1.57,18.81,2.42C679.19,99.45,680.32,105.28,681.33,111.61Z"/></g><g id="Forma_2420" data-name="Forma 2420"><path class="cls-5" d="M646.85,285.81s22.82-39.28-3-71.27S592.81,194,592.81,194s-4.34-82.58-95.13-61.65C454,142.41,455,162.75,438.34,178.4c-16.48,15.49-44.35,17.44-28.17,53,9.54,21,15.71,27.43,15.91,38.79s-3.35,30.77-7.63,41.1-9.28,38.78,8.29,38.12,10.05-22.94,9.61-40.11a215.54,215.54,0,0,1,3-38.78s2.7,18.92,12.59,23.2,106.17,14.93,124,31.82,50.78,36,62.32,32.49c0,0,7.85,18.38,4,35.47s1.32,27.79,8.61,22.87,11.26-19.77-3-61.66C647.84,354.75,685.38,332.82,646.85,285.81Z"/></g><g id="Forma_2422" data-name="Forma 2422"><path class="cls-6" d="M600.77,271.22s-7.13-7.45-12.93-25.19c-17.22-52.72-46-35.65-57.35-27.18S508,234.1,495.36,229.12s-30.5.33-30.5.33c-14.24-45.5,3-76,19.36-93.24-30.26,10.84-31.15,28.35-45.88,42.19-16.48,15.49-44.35,17.44-28.17,53,9.54,21,15.71,27.43,15.91,38.79s-3.35,30.77-7.63,41.1-9.28,38.78,8.29,38.12,10.05-22.94,9.61-40.11a215.54,215.54,0,0,1,3-38.78s2.7,18.92,12.59,23.2,106.17,14.93,124,31.82c1.84,1.76,3.85,3.53,6,5.3,11.41-7.37,19.53-12.59,19.53-12.59C619.38,294.21,600.77,271.22,600.77,271.22Z"/></g><g id="Forma_2422-2" data-name="Forma 2422"><path class="cls-7" d="M624.3,302.05s-10.86,12.71-20.22,17.24c0,0,7.37-8.44.67-27.52s-19.63-10.3-25.86-37.12-27.6-28.09-39.11-26.52-26.89,13.15-50.06,13.26c-32.55.14-50.61,28.61-34.14,67.62,10.62,25.17,54,34.47,54,34.47s4.87,11.68,3.65,23.87,22.08,14,21.21-11.93c0,0,27.86,3.82,44.09-3.65,0,0,3,15.89,3.31,27.51s-.13,21.31,10.28,18.24,2.68-18.66,3.65-36.14c.64-11.63,7.46-10.22,10.94-9.94s33.33-4.14,33.48-26.52S624.3,302.05,624.3,302.05Z"/></g><g id="Forma_2423" data-name="Forma 2423"><path class="cls-8" d="M604.15,319.2a17.35,17.35,0,0,0,3-7.74C606.61,313.12,605.63,315.84,604.15,319.2ZM482.27,242c8.46,6.78,30,18.27,54.77-13.29-11.2,2.76-25.93,12.63-47.32,12.73A51.17,51.17,0,0,0,482.27,242Zm96.62,12.7c-2.52-10.85-7.51-17.52-13.33-21.51,2.51,5,5,12.4,6.37,23.16,2.67,20.2,17.68,25,29,27.88C593.87,274.64,584.07,276.94,578.89,254.65Zm45.41,47.4s-10.83,12.68-20.18,17.22a97.09,97.09,0,0,1-11.64,19.9s8.09-2.79,10.61-7.95c2.55-2.46,21.22-10.08,22.2-29.06A8.32,8.32,0,0,0,624.3,302.05Z"/></g><g id="Forma_2424" data-name="Forma 2424"><path class="cls-9" d="M517.57,362.05c-1,7.05.48,13.84,2.65,8.62,2-4.88-1.92-17.41-2.57-20.66A44.29,44.29,0,0,1,517.57,362.05ZM496,271.88c2.12-14.36-12.27-6.63-12.27-6.63s-5.79,6.65-3.64,13.93S493.9,286.24,496,271.88Zm-14.25,31.83c-.37-14.52-6.1-14.62-8.95-6s3.16,28.37,23.53,31.49C496.35,329.23,482.14,318.23,481.77,303.71ZM517.65,350l-.08-.56C517.58,349.58,517.61,349.77,517.65,350ZM624,323.93c-2.46,2.08-9.51,9.15-14.25,13.59s-4.71,8.56,1.33,4.31S633,316.28,624,323.93Zm-37.79,55.69c-2.15,4.82-2.24,10.76,0,10.27s5.9-3.11,5-6S588.34,374.79,586.18,379.62Z"/></g><g id="Forma_2425" data-name="Forma 2425"><path class="cls-10" d="M417.79,323.26c-3.94,6.67-.43,12.33,2.32,12.6s6-5.55,5.63-10.28S422.06,316,417.79,323.26ZM425.41,198s-14.87,9.92-9.94,24.86,12.83,24.27,11.93,16.58-7.28-12.09-6.63-20.22,3-13.57,9-18.9S425.41,198,425.41,198Zm60.33-32.82s-4.06-5.17-9.61.34c0,0-31.52,21.51-31.49,59,0,22.64,9.62,14.62,10.61,9.94s-3.73-37.69,24.53-58C491.89,167.71,485.74,165.14,485.74,165.14Zm17.57-20.22c-8.18-7.48-15.25,4.31-15.25,4.31-5.58,17.84,12.6,11.27,12.6,11.27S511.5,152.41,503.31,144.92Z"/></g></svg>